<svg width="25" height="24" viewBox="0 0 25 24" fill="none" xmlns="http://www.w3.org/2000/svg">
<g clip-path="url(#clip0_1516_5815)">
<path d="M24.4866 12.2245C24.4866 11.2412 24.4049 10.5237 24.2282 9.7796H12.7383V14.2176H19.4826C19.3467 15.3205 18.6124 16.9814 16.9807 18.0975L16.9578 18.2461L20.5907 20.9963L20.8424 21.0209C23.154 18.9347 24.4866 15.8653 24.4866 12.2245" fill="white"/>
<path d="M12.7391 23.9176C16.0433 23.9176 18.8172 22.8545 20.8433 21.0209L16.9815 18.0976C15.9481 18.8018 14.5612 19.2935 12.7391 19.2935C9.50292 19.2935 6.75623 17.2074 5.77711 14.324L5.63359 14.3359L1.85604 17.1927L1.80664 17.3269C3.81906 21.2334 7.95273 23.9176 12.7391 23.9176Z" fill="white"/>
<path d="M5.77775 14.324C5.5194 13.5799 5.36989 12.7826 5.36989 11.9588C5.36989 11.1349 5.5194 10.3377 5.76416 9.5936L5.75732 9.43513L1.93243 6.53241L1.80729 6.59058C0.977873 8.21168 0.501953 10.0321 0.501953 11.9588C0.501953 13.8855 0.977873 15.7058 1.80729 17.3269L5.77775 14.324" fill="white"/>
<path d="M12.7391 4.62403C15.0371 4.62403 16.5871 5.59401 17.471 6.40461L20.9248 3.10928C18.8036 1.1826 16.0433 0 12.7391 0C7.95273 0 3.81906 2.68406 1.80664 6.59056L5.76351 9.59359C6.75622 6.7102 9.50291 4.62403 12.7391 4.62403" fill="white"/>
</g>
<defs>
<clipPath id="clip0_1516_5815">
<rect width="24" height="24" fill="white" transform="translate(0.5)"/>
</clipPath>
</defs>
</svg>
