<svg width="33" height="32" viewBox="0 0 33 32" fill="none" xmlns="http://www.w3.org/2000/svg">
<g clip-path="url(#clip0_805_2732)">
<path d="M4.59374 0.0375481C4.52499 0.0500488 4.31249 0.0937977 4.12499 0.131298C2.76874 0.406298 1.44374 1.5313 0.862493 2.9063C0.512492 3.73755 0.531242 2.9813 0.531242 16C0.531242 29.0188 0.512492 28.2625 0.862493 29.0938C1.44374 30.4625 2.67499 31.5125 4.12499 31.8813C4.63749 32.0125 28.3625 32.0125 28.875 31.8813C30.5875 31.4438 31.9437 30.0875 32.3812 28.375C32.5125 27.8625 32.5125 4.13755 32.3812 3.62505C32.0125 2.18755 30.9625 0.943798 29.625 0.375048C28.75 0.00629807 29.7437 0.0375481 16.6875 0.0250492C10.1062 0.0187988 4.66249 0.0250492 4.59374 0.0375481ZM26.4437 3.81255C27.9125 4.0938 28.9375 5.5313 28.7 6.97505C28.5 8.20005 27.575 9.12505 26.35 9.32505C24.5437 9.62505 22.875 7.9563 23.175 6.15005C23.4375 4.57505 24.9062 3.52505 26.4437 3.81255ZM17.6875 7.5938C19.5375 7.8438 21.1625 8.6563 22.5062 9.9938C24.9875 12.475 25.6687 16.0688 24.275 19.3125C23.4687 21.1875 21.8125 22.8438 19.9375 23.65C17.2687 24.8 14.3062 24.5438 11.9062 22.9563C11.075 22.4063 10.0937 21.425 9.54374 20.5938C7.67499 17.7625 7.67499 14.1125 9.54374 11.2813C10.0937 10.45 11.075 9.4688 11.9062 8.9188C13.6375 7.7813 15.65 7.3188 17.6875 7.5938Z" fill="white"/>
<path d="M25.4875 5.75625C25.2188 5.89375 25 6.2625 25 6.5625C25 6.875 25.2188 7.23125 25.5 7.375C25.6313 7.44375 25.8313 7.5 25.9375 7.5C26.25 7.5 26.6063 7.28125 26.75 7C26.8188 6.86875 26.875 6.66875 26.875 6.5625C26.875 6.25 26.6562 5.89375 26.375 5.75C26.0688 5.59375 25.7875 5.59375 25.4875 5.75625Z" fill="white"/>
<path d="M15.5 9.46869C12.975 9.91244 10.9687 11.7062 10.2625 14.1562C9.2625 17.6062 11.2937 21.2312 14.7812 22.2374C18.2312 23.2374 21.8562 21.2062 22.8625 17.7187C23.9562 13.9312 21.4125 10.0312 17.4562 9.44369C16.875 9.35619 16.0875 9.36869 15.5 9.46869Z" fill="white"/>
</g>
<defs>
<clipPath id="clip0_805_2732">
<rect width="32" height="32" fill="white" transform="translate(0.5)"/>
</clipPath>
</defs>
</svg>
