<svg width="60" height="60" viewBox="0 0 60 60" fill="none" xmlns="http://www.w3.org/2000/svg">
<rect width="60" height="60" rx="30" fill="#F6F6F6"/>
<path d="M27.5969 51C27.5969 51 30.3927 45.2871 28.5218 41.6745C27.6069 39.9079 25.9605 38.8657 24.3929 37.8732C22.7546 36.836 21.2022 35.8533 20.6605 34.1552C20.6605 34.1552 18.8106 34.9113 19.6936 37.0537C20.5766 39.196 22.3 40.2462 22.3 40.2462C14.7536 37.0595 12.8163 33.9404 13.724 25.8378C11.5818 30.7952 11.4538 34.2392 13.2407 37.8518C15.0277 41.4644 17.2341 43.0187 22.0057 45.9592C26.7774 48.8997 27.5969 51 27.5969 51Z" fill="#023246"/>
<path d="M32.4031 51C32.4031 51 29.6074 45.2871 31.4783 41.6745C32.3931 39.9079 34.0395 38.8657 35.6072 37.8732C37.2454 36.836 38.7978 35.8533 39.3395 34.1552C39.3395 34.1552 41.1895 34.9113 40.3064 37.0537C39.4234 39.196 37.7 40.2462 37.7 40.2462C45.2464 37.0595 47.1837 33.9404 46.276 25.8378C48.4182 30.7952 48.5463 34.2392 46.7593 37.8518C44.9723 41.4644 42.7659 43.0187 37.9943 45.9592C33.2227 48.8997 32.4031 51 32.4031 51Z" fill="#023246"/>
<path fill-rule="evenodd" clip-rule="evenodd" d="M34.3625 15.0002C35.0787 15.0002 35.7938 15.1011 36.4737 15.3291C40.6631 16.6901 42.1727 21.2835 40.9117 25.2985C40.1966 27.3502 39.0275 29.2228 37.4963 30.7528C35.3046 32.8737 32.8994 34.7564 30.3104 36.3783L30.0266 36.5496L29.7315 36.3669C27.1334 34.7564 24.7146 32.8737 22.5024 30.7414C20.9815 29.2114 19.8113 27.3502 19.0848 25.2985C17.8022 21.2835 19.3118 16.6901 23.5467 15.3053C23.8758 15.1919 24.2152 15.1125 24.5557 15.0682L24.8849 15C25.2095 15 25.3076 15.0001 25.3916 15.0001C25.4544 15.0001 25.5093 15.0002 25.6454 15.0002H25.7702C26.4853 15.0217 27.1777 15.1465 27.8485 15.3745H27.9155C27.9609 15.396 27.9949 15.4198 28.0176 15.4414C28.2684 15.5219 28.5057 15.6126 28.7327 15.7374L29.164 15.9302C29.2682 15.9857 29.3852 16.0706 29.4863 16.144C29.5504 16.1904 29.608 16.2323 29.6521 16.2591C29.6706 16.27 29.6894 16.281 29.7084 16.2921C29.8057 16.3489 29.9071 16.408 29.9926 16.4735C31.2536 15.5106 32.7848 14.9888 34.3625 15.0002ZM30.6346 20.9366C30.4643 20.7665 30.2334 20.6709 29.9926 20.6709C29.7517 20.6709 29.5208 20.7665 29.3505 20.9366C29.1802 21.1068 29.0845 21.3376 29.0845 21.5782V24.3003H26.3604C26.1196 24.3003 25.8886 24.3958 25.7184 24.566C25.5481 24.7362 25.4524 24.967 25.4524 25.2076C25.4524 25.4482 25.5481 25.679 25.7184 25.8492C25.8886 26.0193 26.1196 26.1149 26.3604 26.1149H29.0845V28.837C29.0845 29.0776 29.1802 29.3084 29.3505 29.4786C29.5208 29.6487 29.7517 29.7443 29.9926 29.7443C30.2334 29.7443 30.4643 29.6487 30.6346 29.4786C30.8049 29.3084 30.9006 29.0776 30.9006 28.837V26.1149H33.6247C33.8655 26.1149 34.0965 26.0193 34.2668 25.8492C34.437 25.679 34.5327 25.4482 34.5327 25.2076C34.5327 24.967 34.437 24.7362 34.2668 24.566C34.0965 24.3958 33.8655 24.3003 33.6247 24.3003H30.9006V21.5782C30.9006 21.3376 30.8049 21.1068 30.6346 20.9366Z" fill="#023246"/>
<rect x="19" y="15" width="22" height="18" fill="#F6F6F6"/>
<path d="M21.1818 17.6987C18.9434 18.6412 17.7381 21.0788 18.0481 24.199C18.3236 26.9291 18.5302 27.3191 19.701 27.3191C20.562 27.3191 20.803 27.0591 21.6639 25.499L22.6282 23.6789L23.2825 25.0115C23.6268 25.759 24.0056 26.344 24.1434 26.344C24.3156 26.344 24.6944 25.2715 25.0043 23.9715C25.8308 20.7213 26.0719 20.3963 26.4851 21.9564C29.0334 31.3168 29.4467 32.4543 29.791 31.5443C29.8943 31.2843 30.5486 29.5942 31.2029 27.8391C31.8917 26.0515 32.546 24.4265 32.6837 24.1665C32.8559 23.8739 33.4758 24.7515 34.4744 26.7016C35.3354 28.3266 36.1274 29.7242 36.2651 29.7892C36.4029 29.8867 36.8161 29.3667 37.2294 28.6191C37.9181 27.3841 37.987 27.3191 39.6055 27.3191C41.6028 27.3191 41.6717 27.1891 41.9472 23.9064C42.085 21.9564 41.9817 21.4363 41.2929 20.2013C40.1565 18.1212 39.0201 17.4712 36.4373 17.3087C33.9234 17.1462 31.9605 17.8937 30.7208 19.4213L29.9976 20.3313L29.2745 19.4213C27.6904 17.4712 23.799 16.6262 21.1818 17.6987Z" fill="#023246"/>
<path d="M25.5555 23.939C25.3833 24.654 25.0389 25.8566 24.8323 26.6691L24.419 28.1317L23.5926 26.5716C23.1104 25.7266 22.6283 25.0765 22.4561 25.174C22.3184 25.2715 21.9052 25.9216 21.5608 26.6691C21.0442 27.7416 20.7687 27.9691 19.9423 27.9691H18.978L19.7012 29.3342C20.1144 30.0817 21.2164 31.4793 22.2151 32.4543C24.2124 34.5019 29.1024 38.0446 29.8945 38.0446C31.5819 38.0446 38.5726 32.2593 40.1222 29.5942L41.052 27.9691H39.5712C38.1249 27.9691 38.0216 28.0342 37.264 29.4642C36.8507 30.3417 36.3686 30.8618 36.1964 30.6993C36.0587 30.5368 35.2666 29.2042 34.4746 27.7091C33.6825 26.2141 32.9594 25.044 32.8905 25.1415C32.8216 25.2065 32.064 27.0591 31.2031 29.2692C30.3422 31.4793 29.5846 33.3319 29.5157 33.3969C29.3435 33.5594 27.966 29.3342 26.9329 25.5965C26.5886 24.199 26.1753 22.9639 26.072 22.8664C26.0031 22.7689 25.7621 23.2565 25.5555 23.939Z" fill="#023246"/>
</svg>
