<svg width="81" height="80" viewBox="0 0 81 80" fill="none" xmlns="http://www.w3.org/2000/svg">
<mask id="mask0_3014_1984" style="mask-type:luminance" maskUnits="userSpaceOnUse" x="10" y="8" width="61" height="64">
<path d="M70.2777 8.39508H10.7226V71.605H70.2777V8.39508Z" fill="white"/>
</mask>
<g mask="url(#mask0_3014_1984)">
<path d="M62.0078 68.3197L37.4074 69.7254C37.3028 68.0469 36.8447 65.3036 34.8661 63.1436C34.1395 62.2586 33.1638 61.6119 32.0651 61.2877L32.0495 61.2831L32.0337 61.279C30.3057 60.8298 28.7585 61.5361 27.8465 61.9525C27.7231 62.0088 27.6114 62.0599 27.5123 62.102C25.7055 62.8634 23.4111 63.0518 21.4578 62.7648C20.4855 62.6219 19.6455 62.3678 19.0208 62.0449C18.3824 61.715 18.0769 61.3717 17.9699 61.106C17.9196 60.9737 17.8687 60.7168 17.8436 60.324C17.8195 59.9457 17.8229 59.5101 17.8429 59.0656C17.8827 58.1777 17.9851 57.3225 18.0316 56.9349L62.0078 68.3197ZM62.0078 68.3197C60.5001 65.2237 59.3996 61.9431 58.7354 58.5596L58.7348 58.5562C58.1519 55.5301 58.1884 53.6264 58.7657 51.8502L58.7703 51.8361L58.7753 51.8221C59.4619 49.9053 60.6033 48.1842 62.1014 46.8062C64.8901 43.5572 66.9261 39.7314 68.063 35.6029C68.9999 32.0807 68.3032 28.5305 67.2232 25.6592C66.146 22.7953 64.7225 20.701 64.3308 20.1445L64.3293 20.1424C58.0273 11.1407 45.2048 8.42888 35.1537 11.2209L35.1529 11.2211C35.0109 11.2605 34.8554 11.3027 34.6877 11.3482C33.0378 11.7959 30.202 12.5654 27.3337 14.0935C24.1807 15.7731 21.0859 18.3201 19.5234 22.2579C18.4681 25.0515 18.2161 28.0847 18.7958 31.0142L18.7971 31.0209L18.7971 31.0209C18.9675 31.9138 18.9675 32.8308 18.7971 33.7237L18.7941 33.7393L18.7906 33.7548C18.4991 35.0564 17.8946 36.2673 17.0294 37.2824C16.2949 38.1744 15.4762 38.9937 14.5843 39.7286C14.1432 40.1188 13.7887 40.419 13.5044 40.658C13.4611 40.6944 13.4199 40.729 13.3806 40.762C13.1532 40.953 12.9915 41.0888 12.8629 41.2051C12.6397 41.4071 12.6019 41.4721 12.574 41.5552C12.4945 41.9327 12.5017 42.3233 12.5953 42.6977C12.6921 43.0849 12.8785 43.4439 13.1394 43.7456L13.1471 43.7544L13.1545 43.7634C13.5373 44.2275 13.9686 44.4149 14.5532 44.6689L14.5956 44.6873L14.6114 44.6942C15.1751 44.9392 16.0623 45.3248 16.4326 46.4027L16.4422 46.4304L16.45 46.4587C16.6409 47.1422 16.6409 47.8649 16.4501 48.5484L16.4476 48.5573L16.445 48.5661C16.2715 49.1462 15.9934 49.5215 15.8223 49.7526L15.8097 49.7696C15.7893 49.7972 15.7721 49.821 15.7577 49.8414C15.759 49.8429 15.7603 49.8444 15.7617 49.846C15.8765 49.9758 16.1433 50.2003 16.7166 50.4922L18.5408 51.421L16.6869 52.289C16.666 52.2988 16.646 52.3085 16.6271 52.3182C16.6598 52.3521 16.6981 52.3909 16.743 52.4358C16.7616 52.4544 16.781 52.4737 16.8012 52.4937C17.1293 52.82 17.6567 53.3443 17.9664 54.1138L17.9666 54.1141C18.3102 54.9686 18.2015 55.7267 18.0921 56.4896C18.0708 56.6375 18.0496 56.7857 18.0316 56.9347L62.0078 68.3197ZM15.6999 49.7619C15.6999 49.7619 15.7004 49.7628 15.701 49.7646C15.7002 49.7628 15.6998 49.7619 15.6999 49.7619Z" stroke="#1B6B93" stroke-width="2" stroke-miterlimit="10"/>
<path d="M26.489 24.8221L26.1206 25.0623C24.8767 25.8733 23.9258 27.0619 23.4077 28.4534L23.4072 28.4548C22.9825 29.59 22.8834 30.821 23.1211 32.0093L23.1211 32.0094C23.3564 33.186 23.9126 34.2743 24.7278 35.1542C25.8032 36.1379 27.1746 36.7375 28.6277 36.8585L28.6277 36.8585C30.0927 36.9806 31.5563 36.6093 32.7859 35.8036L33.4569 35.3639L34.0317 35.9236C34.7841 36.6564 35.7593 37.1172 36.803 37.2332C37.8468 37.3492 38.8994 37.1137 39.7943 36.564L40.0783 36.3894L40.4103 36.4203C40.9556 36.4711 41.9099 36.6013 42.9131 36.9856C43.9156 37.3696 45.0313 38.0327 45.8045 39.1876L45.8191 39.2094L45.8325 39.232C46.4827 40.323 46.8014 41.5793 46.7503 42.8476C46.8341 44.7596 46.8854 47.2958 46.7868 50.3833H51.9012C52.1893 49.1382 52.7229 47.9599 53.4739 46.9186L53.4752 46.9168C54.3787 45.67 55.2886 45.1363 56.0881 44.6765L56.117 44.6598C56.8579 44.2337 57.4772 43.8775 58.1511 43.0102L58.1518 43.0094C58.7381 42.2564 58.8404 41.8093 58.9957 41.13L59.0077 41.0774C59.1954 40.2583 59.4411 39.2622 60.4158 37.6699L60.4167 37.6685C60.9233 36.8441 61.3852 36.2601 61.7306 35.8235C61.8337 35.6931 61.9264 35.5759 62.0069 35.4693C62.3396 35.0284 62.5165 34.7152 62.6098 34.1494L62.6104 34.1456C62.6806 33.7301 62.6517 33.4956 62.5313 33.0685C62.4959 32.9433 62.4488 32.7916 62.393 32.612C62.2505 32.1531 62.0514 31.5123 61.8482 30.6657L61.8479 30.6646C61.4094 28.8282 61.2943 27.4988 61.2096 26.5199C61.1946 26.3458 61.1805 26.1829 61.1657 26.0301C61.0708 25.0502 60.9568 24.6108 60.5303 24.1234C59.8741 23.4347 58.9969 22.9982 58.0515 22.8904L57.2515 22.7991L57.1699 21.9981C57.1056 21.3663 56.9029 20.7565 56.5762 20.2118C56.2528 19.6729 55.8159 19.211 55.2959 18.8583C54.6407 18.4595 53.8883 18.2485 53.121 18.2485C52.3471 18.2485 51.5883 18.4632 50.9291 18.8687L50.1418 19.353L49.5972 18.6061C49.2182 18.0863 48.7386 17.6479 48.187 17.3169C47.6398 16.9885 47.0326 16.7726 46.4011 16.6815C45.7074 16.6077 45.0059 16.6835 44.3439 16.9041L26.489 24.8221ZM26.489 24.8221L26.5609 24.3882M26.489 24.8221L26.5609 24.3882M26.5609 24.3882C26.6955 23.5763 27.0012 22.8024 27.4577 22.1177C27.9113 21.4373 28.5036 20.8604 29.1957 20.4248C30.3859 19.7343 31.7877 19.5025 33.1372 19.7734L33.7273 19.8918M26.5609 24.3882L33.7273 19.8918M42.0106 18.479L41.3677 18.1059C40.1983 17.4273 38.8254 17.1875 37.495 17.4293L42.0106 18.479ZM42.0106 18.479L42.5532 17.9709M42.0106 18.479L42.5532 17.9709M42.5532 17.9709C43.0662 17.4904 43.677 17.1266 44.3438 16.9042L42.5532 17.9709ZM33.7273 19.8918L34.1082 19.4259M33.7273 19.8918L34.1082 19.4259M34.1082 19.4259C34.964 18.3791 36.1646 17.6713 37.495 17.4293L34.1082 19.4259Z" stroke="#1B6B93" stroke-width="2" stroke-miterlimit="10"/>
<mask id="path-4-inside-1_3014_1984" fill="white">
<path d="M33.334 30.4323C33.8026 29.8685 34.3221 29.349 34.8859 28.8804C35.6226 28.3065 36.4006 27.7877 37.2138 27.3285C39.5417 25.8231 39.1847 25.3885 40.3176 25.0006C41.0984 24.7424 41.9302 24.6781 42.7414 24.8133C43.5526 24.9485 44.3186 25.2791 44.9734 25.7765C45.6485 26.343 45.6485 26.762 46.5253 27.3285C47.2349 27.7548 48.0297 28.0198 48.8532 28.1044C50.6379 28.3683 50.894 27.8484 51.9571 28.1044C54.0211 28.5933 54.9833 31.0143 55.0609 31.2083C55.4991 32.4644 55.4991 33.8319 55.0609 35.0881C54.6948 35.9549 54.1683 36.7446 53.509 37.416C52.4382 38.6808 51.9571 38.8049 51.1811 39.7439C50.4484 40.6559 49.9192 41.7143 49.6292 42.8477V51.3833"/>
</mask>
<path d="M31.796 29.1538C31.0899 30.0032 31.2061 31.2642 32.0555 31.9703C32.9049 32.6764 34.1659 32.5602 34.872 31.7108L31.796 29.1538ZM34.8859 28.8804L33.6567 27.3027L33.6317 27.3221L33.6074 27.3424L34.8859 28.8804ZM37.2138 27.3285L38.1973 29.0699L38.2495 29.0405L38.2998 29.0079L37.2138 27.3285ZM40.3176 25.0006L39.6897 23.1017L39.6797 23.105L39.6696 23.1085L40.3176 25.0006ZM44.9734 25.7765L46.2591 24.2445L46.2218 24.2132L46.1831 24.1838L44.9734 25.7765ZM46.5253 27.3285L45.4399 29.0084L45.4674 29.0261L45.4954 29.0429L46.5253 27.3285ZM48.8532 28.1044L49.1458 26.1259L49.1018 26.1194L49.0577 26.1149L48.8532 28.1044ZM51.9571 28.1044L51.4889 30.0488L51.4961 30.0505L51.9571 28.1044ZM55.0609 31.2083L56.9493 30.5495L56.9344 30.507L56.9177 30.4652L55.0609 31.2083ZM55.0609 35.0881L56.9033 35.8663L56.9282 35.8073L56.9493 35.7469L55.0609 35.0881ZM53.509 37.416L52.0819 36.0148L52.0302 36.0674L51.9826 36.1237L53.509 37.416ZM51.1811 39.7439L49.6394 38.4698L49.6306 38.4805L49.622 38.4912L51.1811 39.7439ZM49.6292 42.8477L47.6916 42.352L47.6292 42.5959V42.8477H49.6292ZM47.6292 51.3833C47.6292 52.4879 48.5246 53.3833 49.6292 53.3833C50.7338 53.3833 51.6292 52.4879 51.6292 51.3833H47.6292ZM34.872 31.7108C35.2623 31.2413 35.6949 30.8087 36.1644 30.4184L33.6074 27.3424C32.9494 27.8894 32.343 28.4958 31.796 29.1538L34.872 31.7108ZM36.115 30.4581C36.774 29.9447 37.47 29.4807 38.1973 29.0699L36.2302 25.5871C35.3313 26.0948 34.4711 26.6682 33.6567 27.3027L36.115 30.4581ZM38.2998 29.0079C39.6081 28.1619 40.2106 27.5796 40.632 27.1557C40.7297 27.0575 40.7771 27.0095 40.822 26.9673C40.8589 26.9326 40.8688 26.9262 40.8639 26.9298C40.8328 26.9526 40.834 26.9378 40.9656 26.8927L39.6696 23.1085C39.2348 23.2574 38.8558 23.4424 38.5002 23.7028C38.1852 23.9336 37.9322 24.198 37.7956 24.3353C37.5304 24.6021 37.1474 24.9897 36.1277 25.6491L38.2998 29.0079ZM40.9454 26.8995C41.4182 26.7432 41.9217 26.7043 42.4126 26.7861L43.0702 22.8406C41.9388 22.652 40.7787 22.7417 39.6897 23.1017L40.9454 26.8995ZM42.4126 26.7861C42.9036 26.868 43.3673 27.0681 43.7637 27.3691L46.1831 24.1838C45.2699 23.4902 44.2015 23.0291 43.0702 22.8406L42.4126 26.7861ZM43.6877 27.3085C43.8286 27.4267 43.8508 27.4703 44.1023 27.7898C44.3906 28.1559 44.7665 28.5733 45.4399 29.0084L47.6107 25.6486C47.4072 25.5172 47.3447 25.4418 47.245 25.3152C47.1086 25.142 46.7932 24.6928 46.2591 24.2445L43.6877 27.3085ZM45.4954 29.0429C46.4565 29.6203 47.533 29.9792 48.6487 30.0939L49.0577 26.1149C48.5264 26.0603 48.0134 25.8893 47.5552 25.614L45.4954 29.0429ZM48.5606 30.0829C49.7077 30.2525 50.4287 30.1694 50.9816 30.0838C51.4179 30.0163 51.3855 30.0239 51.4889 30.0488L52.4253 26.16C51.4655 25.9289 50.7736 26.0684 50.3699 26.1309C50.0828 26.1753 49.7834 26.2202 49.1458 26.1259L48.5606 30.0829ZM51.4961 30.0505C51.8707 30.1393 52.2673 30.4417 52.6431 30.9524C53.0011 31.4388 53.1865 31.9075 53.2041 31.9514L56.9177 30.4652C56.8577 30.3151 56.5232 29.4763 55.8647 28.5815C55.224 27.7109 54.1075 26.5584 52.4181 26.1582L51.4961 30.0505ZM53.1725 31.8671C53.4619 32.6966 53.4619 33.5997 53.1725 34.4293L56.9493 35.7469C57.5363 34.0641 57.5363 32.2322 56.9493 30.5495L53.1725 31.8671ZM53.2185 34.3099C52.9504 34.9446 52.5648 35.523 52.0819 36.0148L54.9361 38.8172C55.7717 37.9662 56.4391 36.9651 56.9033 35.8663L53.2185 34.3099ZM51.9826 36.1237C51.5373 36.6496 51.2313 36.923 50.9192 37.1954C50.575 37.496 50.1442 37.859 49.6394 38.4698L52.7227 41.018C52.994 40.6898 53.1918 40.5213 53.5497 40.2088C53.9399 39.8682 54.4098 39.4472 55.0354 38.7083L51.9826 36.1237ZM49.622 38.4912C48.7105 39.6257 48.0523 40.9421 47.6916 42.352L51.5668 43.3434C51.786 42.4864 52.1862 41.6861 52.7402 40.9966L49.622 38.4912ZM47.6292 42.8477V51.3833H51.6292V42.8477H47.6292Z" fill="#1B6B93" mask="url(#path-4-inside-1_3014_1984)"/>
<mask id="path-6-inside-2_3014_1984" fill="white">
<path d="M27.1264 32.7602C27.1306 32.4598 27.2025 32.1642 27.3368 31.8954C27.4712 31.6267 27.6645 31.3918 27.9024 31.2083C28.8569 30.5953 30.0518 31.6273 31.7822 31.2083C32.3488 31.0629 32.8779 30.7984 33.3341 30.4323C33.1252 29.5569 32.6301 28.7762 31.9273 28.2141C31.2246 27.6518 30.3543 27.3402 29.4543 27.3284"/>
</mask>
<path d="M25.1266 32.7326C25.1113 33.8371 25.9943 34.7448 27.0988 34.76C28.2033 34.7753 29.111 33.8923 29.1262 32.7878L25.1266 32.7326ZM27.3368 31.8954L25.5481 31.0008L25.5478 31.0013L27.3368 31.8954ZM27.9024 31.2083L26.8216 29.5255L26.7491 29.5721L26.6809 29.6246L27.9024 31.2083ZM31.7822 31.2083L32.2529 33.1522L32.2661 33.149L32.2793 33.1456L31.7822 31.2083ZM33.3341 30.4323L34.5857 31.9923L35.5734 31.1998L35.2795 29.9682L33.3341 30.4323ZM31.9273 28.2141L30.6778 29.7757L30.678 29.7759L31.9273 28.2141ZM29.4804 25.3286C28.3759 25.3142 27.4689 26.1978 27.4545 27.3023C27.4401 28.4068 28.3237 29.3138 29.4282 29.3283L29.4804 25.3286ZM29.1262 32.7878C29.1262 32.7883 29.1261 32.789 29.1258 32.7896L25.5478 31.0013C25.2788 31.5394 25.1349 32.1312 25.1266 32.7326L29.1262 32.7878ZM29.1255 32.7901C29.1253 32.7906 29.1248 32.7913 29.1239 32.792L26.6809 29.6246C26.2042 29.9924 25.8171 30.4628 25.5481 31.0008L29.1255 32.7901ZM28.9832 32.8911C28.6602 33.0986 28.331 32.9283 29.1528 33.0954C29.7678 33.2205 30.9051 33.4785 32.2529 33.1522L31.3116 29.2645C30.929 29.3571 30.6036 29.3086 29.9499 29.1757C29.503 29.0848 28.099 28.705 26.8216 29.5255L28.9832 32.8911ZM32.2793 33.1456C33.1214 32.9295 33.9077 32.5363 34.5857 31.9923L32.0825 28.8724C31.8481 29.0605 31.5762 29.1964 31.2851 29.2711L32.2793 33.1456ZM35.2795 29.9682C34.9672 28.6595 34.2271 27.4926 33.1766 26.6522L30.678 29.7759C31.0331 30.0599 31.2832 30.4543 31.3887 30.8965L35.2795 29.9682ZM33.1768 26.6524C32.1263 25.8119 30.8254 25.3462 29.4804 25.3286L29.4282 29.3283C29.8831 29.3342 30.3229 29.4917 30.6778 29.7757L33.1768 26.6524Z" fill="#1B6B93" mask="url(#path-6-inside-2_3014_1984)"/>
<mask id="path-8-inside-3_3014_1984" fill="white">
<path d="M34.8859 22.6728C35.9469 23.2336 36.7442 24.1898 37.1052 25.3343C37.2789 25.9877 37.2789 26.6752 37.1052 27.3285"/>
</mask>
<path d="M35.8206 20.9046C34.844 20.3884 33.6339 20.7616 33.1177 21.7382C32.6016 22.7147 32.9748 23.9248 33.9513 24.441L35.8206 20.9046ZM37.1052 25.3343L39.038 24.8204L39.0263 24.7762L39.0126 24.7327L37.1052 25.3343ZM35.1723 26.8145C34.8885 27.882 35.5237 28.9775 36.5912 29.2613C37.6587 29.5452 38.7542 28.9099 39.038 27.8425L35.1723 26.8145ZM33.9513 24.441C34.5472 24.7559 34.995 25.293 35.1978 25.9359L39.0126 24.7327C38.4934 23.0866 37.3466 21.7112 35.8206 20.9046L33.9513 24.441ZM35.1723 25.8483C35.2565 26.1648 35.2565 26.498 35.1723 26.8145L39.038 27.8425C39.3013 26.8523 39.3013 25.8105 39.038 24.8204L35.1723 25.8483Z" fill="#1B6B93" mask="url(#path-8-inside-3_3014_1984)"/>
<mask id="path-10-inside-4_3014_1984" fill="white">
<path d="M44.213 21.1208C44.2806 22.1712 44.1462 23.2248 43.8173 24.2246C43.7175 24.4985 43.5846 24.759 43.4215 25.0006"/>
</mask>
<path d="M46.2089 20.9924C46.138 19.8901 45.1869 19.054 44.0846 19.1249C42.9824 19.1958 42.1462 20.1469 42.2171 21.2492L46.2089 20.9924ZM43.8173 24.2246L45.6965 24.9091L45.7073 24.8795L45.7171 24.8496L43.8173 24.2246ZM41.7638 23.8817C41.1458 24.7972 41.3871 26.0403 42.3026 26.6583C43.2181 27.2763 44.4613 27.035 45.0792 26.1195L41.7638 23.8817ZM42.2171 21.2492C42.2683 22.0444 42.1665 22.8424 41.9174 23.5996L45.7171 24.8496C46.1258 23.6072 46.2929 22.2979 46.2089 20.9924L42.2171 21.2492ZM41.938 23.5401C41.8942 23.6603 41.8358 23.775 41.7638 23.8817L45.0792 26.1195C45.3334 25.743 45.5408 25.3366 45.6965 24.9091L41.938 23.5401Z" fill="#1B6B93" mask="url(#path-10-inside-4_3014_1984)"/>
<mask id="path-12-inside-5_3014_1984" fill="white">
<path d="M39.5418 31.9842L41.8697 31.2083L44.1976 30.4323C44.381 29.8807 44.6424 29.3582 44.9735 28.8804C45.3914 28.2724 45.9174 27.7463 46.5254 27.3284"/>
</mask>
<path d="M38.9094 30.0868C37.8615 30.4361 37.2952 31.5687 37.6444 32.6166C37.9937 33.6645 39.1263 34.2309 40.1742 33.8816L38.9094 30.0868ZM41.8697 31.2083L42.5021 33.1057L42.5022 33.1057L41.8697 31.2083ZM44.1976 30.4323L44.8301 32.3297L45.7796 32.0132L46.0955 31.0634L44.1976 30.4323ZM44.9735 28.8804L46.6172 30.0198L46.6218 30.0133L44.9735 28.8804ZM47.6582 28.9767C48.5685 28.351 48.7993 27.1059 48.1737 26.1956C47.548 25.2853 46.3029 25.0545 45.3926 25.6802L47.6582 28.9767ZM40.1742 33.8816L42.5021 33.1057L41.2373 29.3109L38.9094 30.0868L40.1742 33.8816ZM42.5022 33.1057L44.8301 32.3297L43.5651 28.535L41.2372 29.311L42.5022 33.1057ZM46.0955 31.0634C46.2187 30.6926 46.3944 30.3412 46.6172 30.0198L43.3298 27.741C42.8903 28.3751 42.5433 29.0688 42.2998 29.8013L46.0955 31.0634ZM46.6218 30.0133C46.9009 29.6071 47.2523 29.2557 47.6582 28.9767L45.3926 25.6802C44.5826 26.2369 43.8819 26.9378 43.3253 27.7476L46.6218 30.0133Z" fill="#1B6B93" mask="url(#path-12-inside-5_3014_1984)"/>
<mask id="path-14-inside-6_3014_1984" fill="white">
<path d="M44.9734 34.3122C44.7173 33.0163 44.4535 31.7282 44.1975 30.4323L44.9734 34.3122Z"/>
</mask>
<path d="M43.0114 34.7C43.2255 35.7836 44.2775 36.4884 45.3612 36.2743C46.4448 36.0601 47.1496 35.0081 46.9355 33.9245L43.0114 34.7ZM46.1596 30.0447C45.9455 28.9611 44.8935 28.2562 43.8099 28.4702C42.7263 28.6843 42.0214 29.7363 42.2354 30.8199L46.1596 30.0447ZM46.9355 33.9245C46.8066 33.2726 46.676 32.6232 46.5461 31.9778C46.4161 31.3313 46.2868 30.6887 46.1596 30.0447L42.2354 30.8199C42.3642 31.4719 42.4949 32.1213 42.6247 32.7667C42.7548 33.4133 42.8841 34.0559 43.0114 34.7L46.9355 33.9245Z" fill="#1B6B93" mask="url(#path-14-inside-6_3014_1984)"/>
<mask id="path-16-inside-7_3014_1984" fill="white">
<path d="M58.9407 29.6564C58.6317 30.3764 58.0495 30.9443 57.322 31.2353C56.5945 31.5263 55.7813 31.5166 55.0609 31.2083"/>
</mask>
<path d="M60.7786 30.4453C61.2142 29.4303 60.7446 28.2542 59.7296 27.8186C58.7145 27.3829 57.5385 27.8526 57.1029 28.8676L60.7786 30.4453ZM57.322 31.2353L58.0647 33.0923L58.0648 33.0923L57.322 31.2353ZM55.8477 29.3696C54.8322 28.9351 53.6567 29.406 53.2222 30.4216C52.7876 31.4371 53.2586 32.6126 54.2741 33.0471L55.8477 29.3696ZM57.1029 28.8676C57.0029 29.1006 56.8145 29.2843 56.5793 29.3783L58.0648 33.0923C59.2844 32.6044 60.2605 31.6523 60.7786 30.4453L57.1029 28.8676ZM56.5794 29.3783C56.3439 29.4725 56.0808 29.4693 55.8477 29.3696L54.2741 33.0471C55.4818 33.5638 56.8452 33.5801 58.0647 33.0923L56.5794 29.3783Z" fill="#1B6B93" mask="url(#path-16-inside-7_3014_1984)"/>
<mask id="path-18-inside-8_3014_1984" fill="white">
<path d="M57.3888 40.5198C57.1799 39.6445 56.6848 38.8637 55.982 38.3015C55.2793 37.7393 54.409 37.4277 53.509 37.416"/>
</mask>
<path d="M55.4435 40.984C55.6998 42.0584 56.7787 42.7216 57.8531 42.4652C58.9275 42.2088 59.5906 41.13 59.3342 40.0556L55.4435 40.984ZM55.982 38.3015L54.7325 39.8632L54.7327 39.8634L55.982 38.3015ZM53.5349 35.4162C52.4305 35.4019 51.5235 36.2856 51.5092 37.3901C51.4949 38.4946 52.3787 39.4015 53.4831 39.4158L53.5349 35.4162ZM59.3342 40.0556C59.022 38.7471 58.2819 37.5801 57.2313 36.7397L54.7327 39.8634C55.0878 40.1474 55.3379 40.5418 55.4435 40.984L59.3342 40.0556ZM57.2315 36.7399C56.181 35.8993 54.88 35.4336 53.5349 35.4162L53.4831 39.4158C53.9379 39.4217 54.3776 39.5792 54.7325 39.8632L57.2315 36.7399Z" fill="#1B6B93" mask="url(#path-18-inside-8_3014_1984)"/>
<mask id="path-20-inside-9_3014_1984" fill="white">
<path d="M50.4052 24.2247C49.9969 24.9425 49.7333 25.7334 49.6293 26.5526C49.5628 27.0678 49.5628 27.5894 49.6293 28.1045"/>
</mask>
<path d="M52.1436 25.2137C52.6898 24.2536 52.3542 23.0325 51.3942 22.4863C50.4341 21.9402 49.213 22.2757 48.6668 23.2358L52.1436 25.2137ZM49.6293 26.5526L51.6128 26.8089L51.6134 26.8045L49.6293 26.5526ZM47.6458 28.3608C47.7874 29.4563 48.7902 30.2296 49.8856 30.088C50.9811 29.9465 51.7544 28.9437 51.6128 27.8482L47.6458 28.3608ZM48.6668 23.2358C48.1292 24.1808 47.7822 25.2222 47.6453 26.3008L51.6134 26.8045C51.6845 26.2446 51.8646 25.7041 52.1436 25.2137L48.6668 23.2358ZM47.6458 26.2963C47.5573 26.9817 47.5573 27.6755 47.6458 28.3608L51.6128 27.8482C51.5683 27.5032 51.5683 27.1539 51.6128 26.8089L47.6458 26.2963Z" fill="#1B6B93" mask="url(#path-20-inside-9_3014_1984)"/>
</g>
<path d="M66.7147 51.9846C66.7147 52.6228 66.5541 53.2747 66.0904 53.7713C65.6352 54.2588 65.0224 54.4536 64.4056 54.4683C64.4479 54.4842 64.4939 54.4998 64.5437 54.5149C65.5863 54.8211 66.4659 55.7292 66.8185 56.7624C66.8787 56.2653 67.0559 55.7823 67.4183 55.3942C67.8924 54.8864 68.5376 54.6962 69.1802 54.6962C69.3381 54.6962 69.4604 54.6414 69.5285 54.5861C69.5299 54.585 69.5313 54.5838 69.5326 54.5828C69.5313 54.5817 69.5299 54.5805 69.5285 54.5794C69.4604 54.5241 69.3381 54.4693 69.1802 54.4693C68.5376 54.4693 67.8924 54.2791 67.4183 53.7713C66.9546 53.2747 66.794 52.6228 66.794 51.9846C66.794 51.8774 66.7779 51.783 66.7544 51.7043C66.7308 51.783 66.7147 51.8774 66.7147 51.9846ZM63.9736 54.1991C63.9735 54.1991 63.974 54.1999 63.9751 54.2016C63.9742 54.1999 63.9736 54.1991 63.9736 54.1991ZM69.5742 54.5372C69.5741 54.5371 69.5733 54.5384 69.5722 54.5412C69.5739 54.5386 69.5744 54.5372 69.5742 54.5372ZM69.5722 54.6243C69.5733 54.6271 69.5741 54.6284 69.5742 54.6283C69.5744 54.6283 69.5739 54.6269 69.5722 54.6243ZM66.6252 51.4669C66.6251 51.4671 66.627 51.4689 66.6309 51.4715C66.6272 51.468 66.6252 51.4667 66.6252 51.4669ZM66.8778 51.4715C66.8817 51.4689 66.8836 51.4671 66.8836 51.4669C66.8835 51.4667 66.8815 51.468 66.8778 51.4715Z" stroke="#1B6B93" stroke-width="2"/>
<path d="M71.98 44.4067C71.8763 44.7869 71.4961 45.098 71.1505 45.098C70.7703 45.098 70.4938 45.3399 70.4938 45.6164C70.4938 45.8929 70.8049 46.1348 71.1851 46.1348C71.6344 46.1348 71.8763 46.3768 71.8763 46.7915C71.8763 47.7938 72.5676 48.0703 72.8095 47.1717C72.9132 46.757 73.3971 46.2731 73.8464 46.1003C74.7796 45.7546 74.6068 45.098 73.5699 45.098C73.1552 45.098 72.9132 44.856 72.9132 44.4067C72.9132 44.0265 72.7404 43.7155 72.533 43.7155C72.3257 43.7155 72.0837 44.0265 71.98 44.4067Z" fill="#1B6B93"/>
</svg>
