<svg width="22" height="20" viewBox="0 0 22 20" fill="none" xmlns="http://www.w3.org/2000/svg">
<path d="M1.06291 7.70118C0.829517 5.99395 1.22963 4.28672 2.52998 2.90248C3.74143 1.62206 5.49746 0.641551 7.57581 1.12603C9.26516 1.51823 10.3544 2.75252 10.7989 3.38696C10.8989 3.52539 11.099 3.52539 11.199 3.38696C11.6547 2.76406 12.7328 1.52977 14.4221 1.12603C16.5005 0.641551 18.2565 1.62206 19.468 2.90248C22.7467 6.36308 20.2682 11.8424 16.6783 14.3686C15.2001 15.4068 12.9551 17.0563 11.9103 18.1176C11.6103 18.4175 11.3657 18.6943 11.1879 18.9135C11.0879 19.0288 10.9212 19.0288 10.8212 18.9135C10.6433 18.6943 10.3988 18.4175 10.0987 18.1176C9.054 17.0678 6.79782 15.4183 5.33075 14.3686C4.07485 13.4804 3.15238 12.5691 2.36327 11.1733" stroke="#023246" stroke-width="1.4" stroke-miterlimit="10" stroke-linecap="round" stroke-linejoin="round"/>
<path d="M1.52979 9.50058H4.47504L5.35305 8.02406L6.54227 11.3578L7.94266 3.96362L9.55421 13.5379L11.5659 7.678L12.7662 11.3808L13.8332 9.50058H16.5784" stroke="#023246" stroke-miterlimit="10" stroke-linecap="round" stroke-linejoin="round"/>
<path d="M16.9558 9.50066C16.9558 9.74562 16.7691 9.91194 16.578 9.91194C16.3868 9.91194 16.2002 9.74562 16.2002 9.50066C16.2002 9.25568 16.3868 9.08936 16.578 9.08936C16.7691 9.08936 16.9558 9.25568 16.9558 9.50066Z" fill="#1B6B93" stroke="#023246"/>
</svg>
