<svg width="70" height="70" viewBox="0 0 70 70" fill="none" xmlns="http://www.w3.org/2000/svg">
<path fill-rule="evenodd" clip-rule="evenodd" d="M38.2207 12.1829L43.5507 22.8309C44.0731 23.8762 45.0814 24.6011 46.2506 24.7688L58.1739 26.485C61.1198 26.9104 62.2921 30.4807 60.1601 32.5264L51.538 40.8112C50.6907 41.6259 50.305 42.797 50.5054 43.9472L52.5402 55.6436C53.0414 58.5369 49.9618 60.7444 47.3287 59.3756L36.6719 53.8494C35.6271 53.3073 34.3759 53.3073 33.3281 53.8494L22.6713 59.3756C20.0382 60.7444 16.9586 58.5369 17.4628 55.6436L19.4946 43.9472C19.695 42.797 19.3093 41.6259 18.462 40.8112L9.8399 32.5264C7.70792 30.4807 8.88021 26.9104 11.8261 26.485L23.7494 24.7688C24.9186 24.6011 25.93 23.8762 26.4523 22.8309L31.7793 12.1829C33.0973 9.55005 36.9027 9.55005 38.2207 12.1829Z" fill="#EDE522" stroke="#EDE522" stroke-width="1.5" stroke-linecap="round" stroke-linejoin="round"/>
</svg>
