<svg width="159" height="30" viewBox="0 0 159 30" fill="none" xmlns="http://www.w3.org/2000/svg">
<path fill-rule="evenodd" clip-rule="evenodd" d="M16.8803 5.22126L19.1646 9.78469C19.3885 10.2327 19.8206 10.5433 20.3217 10.6152L25.4317 11.3508C26.6942 11.533 27.1966 13.0632 26.2829 13.9399L22.5877 17.4906C22.2246 17.8397 22.0593 18.3416 22.1452 18.8345L23.0172 23.8473C23.232 25.0873 21.9122 26.0334 20.7837 25.4467L16.2165 23.0784C15.7688 22.846 15.2325 22.846 14.7835 23.0784L10.2163 25.4467C9.08779 26.0334 7.76799 25.0873 7.98405 23.8473L8.85481 18.8345C8.94071 18.3416 8.77541 17.8397 8.41227 17.4906L4.7171 13.9399C3.80339 13.0632 4.3058 11.533 5.56833 11.3508L10.6783 10.6152C11.1794 10.5433 11.6128 10.2327 11.8367 9.78469L14.1197 5.22126C14.6846 4.09291 16.3154 4.09291 16.8803 5.22126Z" fill="#EDE522" stroke="#EDE522" stroke-width="1.5" stroke-linecap="round" stroke-linejoin="round"/>
<path fill-rule="evenodd" clip-rule="evenodd" d="M48.8803 5.22126L51.1646 9.78469C51.3885 10.2327 51.8206 10.5433 52.3217 10.6152L57.4317 11.3508C58.6942 11.533 59.1966 13.0632 58.2829 13.9399L54.5877 17.4906C54.2246 17.8397 54.0593 18.3416 54.1452 18.8345L55.0172 23.8473C55.232 25.0873 53.9122 26.0334 52.7837 25.4467L48.2165 23.0784C47.7688 22.846 47.2325 22.846 46.7835 23.0784L42.2163 25.4467C41.0878 26.0334 39.768 25.0873 39.9841 23.8473L40.8548 18.8345C40.9407 18.3416 40.7754 17.8397 40.4123 17.4906L36.7171 13.9399C35.8034 13.0632 36.3058 11.533 37.5683 11.3508L42.6783 10.6152C43.1794 10.5433 43.6128 10.2327 43.8367 9.78469L46.1197 5.22126C46.6846 4.09291 48.3154 4.09291 48.8803 5.22126Z" fill="#EDE522" stroke="#EDE522" stroke-width="1.5" stroke-linecap="round" stroke-linejoin="round"/>
<path fill-rule="evenodd" clip-rule="evenodd" d="M80.8803 5.22126L83.1646 9.78469C83.3885 10.2327 83.8206 10.5433 84.3217 10.6152L89.4317 11.3508C90.6942 11.533 91.1966 13.0632 90.2829 13.9399L86.5877 17.4906C86.2246 17.8397 86.0593 18.3416 86.1452 18.8345L87.0172 23.8473C87.232 25.0873 85.9122 26.0334 84.7837 25.4467L80.2165 23.0784C79.7688 22.846 79.2325 22.846 78.7835 23.0784L74.2163 25.4467C73.0878 26.0334 71.768 25.0873 71.9841 23.8473L72.8548 18.8345C72.9407 18.3416 72.7754 17.8397 72.4123 17.4906L68.7171 13.9399C67.8034 13.0632 68.3058 11.533 69.5683 11.3508L74.6783 10.6152C75.1794 10.5433 75.6128 10.2327 75.8367 9.78469L78.1197 5.22126C78.6846 4.09291 80.3154 4.09291 80.8803 5.22126Z" fill="#EDE522" stroke="#EDE522" stroke-width="1.5" stroke-linecap="round" stroke-linejoin="round"/>
<path fill-rule="evenodd" clip-rule="evenodd" d="M112.88 5.22126L115.165 9.78469C115.388 10.2327 115.821 10.5433 116.322 10.6152L121.432 11.3508C122.694 11.533 123.197 13.0632 122.283 13.9399L118.588 17.4906C118.225 17.8397 118.059 18.3416 118.145 18.8345L119.017 23.8473C119.232 25.0873 117.912 26.0334 116.784 25.4467L112.217 23.0784C111.769 22.846 111.233 22.846 110.783 23.0784L106.216 25.4467C105.088 26.0334 103.768 25.0873 103.984 23.8473L104.855 18.8345C104.941 18.3416 104.775 17.8397 104.412 17.4906L100.717 13.9399C99.8034 13.0632 100.306 11.533 101.568 11.3508L106.678 10.6152C107.179 10.5433 107.613 10.2327 107.837 9.78469L110.12 5.22126C110.685 4.09291 112.315 4.09291 112.88 5.22126Z" fill="#EDE522" stroke="#EDE522" stroke-width="1.5" stroke-linecap="round" stroke-linejoin="round"/>
<path fill-rule="evenodd" clip-rule="evenodd" d="M144.88 5.22126L147.165 9.78469C147.388 10.2327 147.821 10.5433 148.322 10.6152L153.432 11.3508C154.694 11.533 155.197 13.0632 154.283 13.9399L150.588 17.4906C150.225 17.8397 150.059 18.3416 150.145 18.8345L151.017 23.8473C151.232 25.0873 149.912 26.0334 148.784 25.4467L144.217 23.0784C143.769 22.846 143.233 22.846 142.783 23.0784L138.216 25.4467C137.088 26.0334 135.768 25.0873 135.984 23.8473L136.855 18.8345C136.941 18.3416 136.775 17.8397 136.412 17.4906L132.717 13.9399C131.803 13.0632 132.306 11.533 133.568 11.3508L138.678 10.6152C139.179 10.5433 139.613 10.2327 139.837 9.78469L142.12 5.22126C142.685 4.09291 144.315 4.09291 144.88 5.22126Z" stroke="#EDE522" stroke-width="1.5" stroke-linecap="round" stroke-linejoin="round"/>
</svg>
