<svg width="33" height="32" viewBox="0 0 33 32" fill="none" xmlns="http://www.w3.org/2000/svg">
<g clip-path="url(#clip0_805_2728)">
<path d="M4.07503 0.0687504C2.33128 0.362499 0.83128 1.89375 0.56253 3.6625C0.51878 3.95625 0.50003 7.95625 0.51253 16.2812L0.53128 28.4688L0.70628 28.9688C1.20003 30.3625 2.13753 31.3 3.53128 31.7938L4.03128 31.9688H16.5H28.9688L29.4688 31.7938C30.9125 31.2812 31.9063 30.2437 32.3563 28.7812C32.4625 28.425 32.4688 27.8562 32.4688 15.9688V3.53125L32.2938 3.03125C31.8 1.6375 30.8625 0.699999 29.4688 0.206249L28.9688 0.03125L16.6875 0.0249996C9.75628 0.0187492 4.26253 0.0375004 4.07503 0.0687504ZM26.1 8.38125C26.3063 8.50625 26.5 8.83125 26.5 9.05C26.5 9.2125 23.3875 22.9812 23.3 23.2063C23.15 23.5938 22.575 23.875 22.1625 23.7562C22.0438 23.725 20.8625 22.9688 19.5438 22.0687C18.2188 21.1687 17.1188 20.4375 17.0938 20.4375C17.075 20.4375 16.5438 20.925 15.9188 21.5188C14.475 22.8875 14.4938 22.875 14.1188 22.875C13.8563 22.875 13.775 22.8438 13.5938 22.6687C13.4063 22.4875 13.3 22.2188 12.525 19.9375C12.0563 18.5437 11.6375 17.375 11.6 17.3313C11.5625 17.2937 10.475 16.975 9.18753 16.625C7.07503 16.0562 6.82503 15.975 6.67503 15.8062C6.56253 15.6938 6.50003 15.5562 6.50003 15.4375C6.50003 14.9937 6.25003 15.0938 14.25 12.2125C18.325 10.75 22.3188 9.3125 23.125 9.01875C23.9313 8.725 24.7938 8.41875 25.0313 8.3375C25.5188 8.175 25.7813 8.18125 26.1 8.38125Z" fill="white"/>
<path d="M17.6 13.9062C14.8125 15.5062 12.5188 16.8499 12.4875 16.8874C12.4625 16.9312 12.4375 17.0437 12.4375 17.1312C12.4375 17.3437 13.7812 21.2687 13.8625 21.2999C13.9438 21.3249 13.9625 21.2124 14.125 19.7812C14.2 19.1624 14.2688 18.5937 14.2875 18.5187C14.3062 18.4249 15.7625 17.1937 18.6125 14.8687C20.975 12.9374 22.925 11.3249 22.95 11.2874C23.0375 11.1624 22.9688 11.0312 22.8125 11.0187C22.7063 11.0062 21.075 11.9124 17.6 13.9062Z" fill="white"/>
</g>
<defs>
<clipPath id="clip0_805_2728">
<rect width="32" height="32" fill="white" transform="translate(0.5)"/>
</clipPath>
</defs>
</svg>
