<svg width="19" height="22" viewBox="0 0 19 22" fill="none" xmlns="http://www.w3.org/2000/svg">
<path fill-rule="evenodd" clip-rule="evenodd" d="M9.27138 7.20801C8.22597 7.20801 7.37555 8.05842 7.37555 9.10492C7.37555 10.1503 8.22597 10.9997 9.27138 10.9997C10.3168 10.9997 11.1672 10.1503 11.1672 9.10492C11.1672 8.05842 10.3168 7.20801 9.27138 7.20801ZM9.27138 12.6247C7.33005 12.6247 5.75055 11.0463 5.75055 9.10492C5.75055 7.16251 7.33005 5.58301 9.27138 5.58301C11.2127 5.58301 12.7922 7.16251 12.7922 9.10492C12.7922 11.0463 11.2127 12.6247 9.27138 12.6247Z" fill="#023246"/>
<mask id="mask0_1002_815" style="mask-type:luminance" maskUnits="userSpaceOnUse" x="0" y="0" width="19" height="22">
<path fill-rule="evenodd" clip-rule="evenodd" d="M0.333313 0.166504H18.2078V21.2915H0.333313V0.166504Z" fill="white"/>
</mask>
<g mask="url(#mask0_1002_815)">
<path fill-rule="evenodd" clip-rule="evenodd" d="M9.27026 1.7915C5.2381 1.7915 1.95776 5.10325 1.95776 9.17225C1.95776 14.3495 8.05043 19.3935 9.27026 19.6622C10.4901 19.3924 16.5828 14.3484 16.5828 9.17225C16.5828 5.10325 13.3024 1.7915 9.27026 1.7915ZM9.27026 21.2915C7.32676 21.2915 0.332764 15.2768 0.332764 9.17225C0.332764 4.20625 4.34218 0.166504 9.27026 0.166504C14.1983 0.166504 18.2078 4.20625 18.2078 9.17225C18.2078 15.2768 11.2138 21.2915 9.27026 21.2915Z" fill="#023246"/>
</g>
</svg>
