<svg width="63" height="80" viewBox="0 0 63 80" fill="none" xmlns="http://www.w3.org/2000/svg">
<path d="M26.3089 5.22876C25.1167 5.47974 23.5167 6.23268 22.5964 6.97517C20.9337 8.32419 19.8461 10.2065 19.3546 12.6013L19.1455 13.6471L18.3089 13.8144C16.8134 14.1281 15.7677 14.7242 14.701 15.8536C13.5298 17.1085 12.9232 18.5935 12.9128 20.2876C12.9023 23.017 14.2723 25.234 16.7298 26.4784C18.403 27.3255 20.85 27.3046 22.5755 26.4366L22.9625 26.2484V26.5098C22.9625 26.6562 22.8892 27.2314 22.8056 27.7961C22.6174 29.0824 22.2304 33.9451 22.2304 35.0954C22.2304 35.8484 22.1781 36.0889 21.8958 36.7791L21.5507 37.5948L21.5193 43.7647C21.4775 50.332 21.5298 51.2941 21.969 53.417C22.4709 55.8013 23.2553 57.8196 24.5415 60.0471C25.0121 60.8523 25.0435 61.1974 24.7821 62.7556C24.3638 65.2026 23.3494 67.3987 21.6866 69.417C20.8605 70.4209 20.7873 70.8392 21.3206 71.3725C21.9272 71.9791 22.3768 71.8536 23.2343 70.8288C24.0709 69.8248 25.0017 68.3922 25.5245 67.2941C25.9951 66.3007 26.7272 64.1673 26.7272 63.7699C26.7376 63.2052 26.8945 63.2471 27.6056 64.0209C27.9925 64.4392 28.7245 65.2026 29.216 65.7255C29.718 66.2379 31.1402 67.7229 32.3742 69.0196C33.6082 70.3163 34.7481 71.4562 34.9049 71.5712C35.6265 72.0418 36.6618 71.2052 36.4004 70.3686C36.3585 70.2327 35.867 69.6575 35.3232 69.0824C34.769 68.4967 33.3781 67.0327 32.2278 65.8301C31.0775 64.617 29.7076 63.1843 29.1847 62.6405C26.3716 59.6706 24.7193 56.5333 23.9245 52.6013L23.6422 51.1895V44.549V37.9085L23.9245 37.3856C24.4579 36.3712 25.3468 35.7752 26.4553 35.6915C27.7729 35.5765 28.9128 36.2039 29.5298 37.3752L29.8121 37.9085L29.8749 45.9608L29.9272 54.0131L30.2095 55.0588C30.5337 56.3033 30.8788 57.1817 31.454 58.1856C32.0605 59.2627 31.6945 58.8026 40.7193 69.9817C41.9742 71.5294 42.0788 71.6235 42.5389 71.7072C42.8422 71.749 42.9677 71.7072 43.2396 71.4667C43.6997 71.0484 43.7624 70.5464 43.4278 70.0549C43.2919 69.8562 41.42 67.5033 39.2657 64.8471C37.1115 62.1804 34.9468 59.4824 34.4343 58.8444C33.1062 57.1503 32.3638 55.519 32.0709 53.6471C31.9455 52.8627 31.9141 38.0654 32.0396 38.0654C32.0814 38.0654 32.5625 38.2118 33.1062 38.3791C34.4866 38.8183 35.7206 39.0065 37.5507 39.0693C39.3494 39.1216 39.3598 39.132 40.5834 40.2719C41.4513 41.0876 42.3402 42.2693 42.9049 43.3464C43.3337 44.1935 43.9089 45.8353 44.0134 46.5673C44.0762 46.9543 44.0553 46.9752 43.6892 47.132C42.9049 47.4458 42.2879 47.9373 41.6187 48.7739C40.5729 50.0601 40.3742 50.5412 40.3742 51.817C40.3742 52.685 40.416 52.9464 40.6147 53.3752C41.7964 55.9477 45.1742 56.6588 47.203 54.7556C47.4853 54.4941 47.799 54.1176 47.9036 53.9085L48.1023 53.5529L48.667 53.8667C50.4762 54.881 51.8984 56.4183 52.7559 58.2693C54.4605 61.898 53.7808 66.5621 51.135 69.4379C50.769 69.8353 50.4448 70.285 50.403 70.4209C50.1938 71.2575 51.135 71.9895 51.9089 71.5922C52.3062 71.383 53.2265 70.3268 53.8435 69.3752C54.7324 68.0052 55.2866 66.5307 55.5899 64.7529C56.4265 59.8902 54.4814 55.2157 50.4866 52.5072C50.1624 52.2876 49.6919 52.0052 49.4618 51.8902L49.0226 51.6706L48.9808 50.7399C48.9494 49.9451 48.8866 49.6941 48.6043 49.119C48.2174 48.3242 47.4853 47.6131 46.7115 47.2575L46.1991 47.0275L46.0736 46.2431C45.7912 44.4758 44.8814 42.2902 43.8147 40.8261C42.6958 39.2784 41.6291 38.2641 39.8932 37.1033C38.2618 36.0052 37.1638 35.1059 36.1808 34.0706C35.3755 33.2131 34.4866 32.0418 34.5808 31.9582C34.6017 31.9268 34.9572 31.9791 35.3546 32.0732C36.4317 32.3033 37.6448 32.2092 38.4187 31.8327C40.301 30.9124 42.016 28.1726 42.4134 25.4431L42.5389 24.6065L43.1768 24.3033C44.0866 23.8745 44.4526 23.383 44.4526 22.5987C44.4526 22.034 44.4108 21.9399 43.7415 20.9255C43.02 19.8065 42.6226 18.8026 42.6226 18.102C42.6226 17.8928 42.7167 17.0144 42.8317 16.1569C42.9468 15.2889 43.0409 14.2327 43.0304 13.8039C43.0304 9.84053 40.3847 6.42092 36.4945 5.32288C35.7102 5.10327 35.4383 5.09281 31.4853 5.06144C27.6474 5.03007 27.2187 5.04053 26.3089 5.22876ZM36.0866 7.39347C36.4945 7.51896 37.0592 7.74902 37.3415 7.90589C37.8644 8.1987 38.9625 8.98301 38.9625 9.06667C38.9625 9.08759 38.8683 9.28628 38.7638 9.50589C38.4187 10.1752 37.6657 10.8549 36.8291 11.2523C36.1598 11.5765 35.9193 11.6288 34.8736 11.702C33.0958 11.817 32.7507 12.068 32.1755 13.668C31.9977 14.1699 31.6945 14.8601 31.5062 15.1948C31.0879 15.9477 30.0526 17.3595 29.9272 17.3595C29.8749 17.3595 29.6134 17.2549 29.352 17.119C28.9755 16.9412 28.6932 16.8889 28.0343 16.8889C27.3023 16.8889 27.1245 16.9307 26.633 17.2026C25.9219 17.5895 25.3363 18.2588 25.033 19.0222C24.7193 19.8275 24.7193 21.1346 25.0435 21.9608L25.2736 22.5359L24.9285 22.8183C24.7402 22.9856 24.5311 23.1111 24.4683 23.1111C24.3951 23.1111 24.2278 22.9124 24.0814 22.6614C23.9455 22.4209 23.4853 21.6575 23.067 20.9673C21.6448 18.6562 21.237 17.3072 21.237 15.0065C21.237 11.5869 22.5755 9.12941 25.0958 7.89543C26.6121 7.15295 26.9259 7.12157 31.433 7.15295C35.0932 7.17386 35.4069 7.19478 36.0866 7.39347ZM40.6252 11.7856C40.9703 12.8418 41.0017 13.9817 40.7507 15.9791C40.4788 18.0706 40.4788 18.3425 40.7402 19.4301C40.9703 20.3817 41.1899 20.8732 41.8069 21.783C42.0265 22.1072 42.1938 22.4209 42.1625 22.4732C42.1311 22.5255 41.9742 22.5987 41.8174 22.6405C40.9808 22.8497 40.5625 23.4876 40.3742 24.8575C40.1441 26.4889 39.6422 27.6915 38.701 28.8941C37.6239 30.2536 37.1742 30.3373 34.152 29.6471C30.9102 28.915 30.8788 28.915 30.4919 29.0719C30.1363 29.2183 29.8644 29.6471 29.8644 30.0758C29.8644 30.3895 30.4709 31.0588 30.7742 31.0588C30.8788 31.0588 31.1402 31.1111 31.3598 31.1739C31.6945 31.268 31.7886 31.3621 32.0814 31.9268C32.7611 33.2758 33.6605 34.468 35.0723 35.8902C35.9507 36.7895 35.9716 36.8105 35.6579 36.8105C35.3128 36.8105 34.0474 36.4967 33.054 36.1621C32.1023 35.8484 30.6278 35.1268 29.8435 34.5935C28.7036 33.8092 28.1389 33.6314 26.7272 33.6314C25.8383 33.6314 25.3991 33.6732 25.054 33.8092C24.7925 33.9137 24.5415 34.0078 24.4892 34.0183C24.3115 34.0601 24.6043 30.0549 24.9494 27.5346C25.0644 26.7085 25.1585 25.8301 25.1585 25.5686C25.1585 25.119 25.169 25.098 25.6605 24.8471C25.9324 24.7111 26.2461 24.502 26.3507 24.3765C26.6121 24.0941 26.7167 24.0941 27.4487 24.4601C28.0553 24.7739 29.4043 25.0876 29.833 25.0144C30.2513 24.9516 30.5964 24.4915 30.5964 24C30.5964 23.3307 30.3141 23.0902 29.2683 22.8706C28.3167 22.6614 27.5742 22.1909 27.1559 21.5111C26.4971 20.434 27.0409 18.9281 28.0971 18.9281C28.2226 18.9281 28.5363 19.0431 28.7873 19.1895C29.7076 19.7333 30.5755 19.6392 31.4017 18.8967C32.2801 18.0915 33.5559 16.0523 34.0579 14.6405L34.3402 13.8562L35.2082 13.783C36.3899 13.6889 36.8709 13.5529 37.9062 13.051C38.5964 12.7268 38.9415 12.4654 39.5272 11.8693C39.935 11.451 40.301 11.1059 40.3324 11.0954C40.3638 11.085 40.4997 11.3987 40.6252 11.7856ZM19.0932 15.885C19.0932 15.9373 19.1873 16.5124 19.2919 17.1712C19.6056 18.949 20.0866 20.1203 21.4147 22.3163C21.8749 23.0693 22.2932 23.7281 22.3455 23.7804C22.5546 24 22.4082 24.1569 21.6553 24.5333C20.9755 24.868 20.7559 24.9203 19.8984 24.9726C18.3716 25.0458 17.4513 24.7111 16.3951 23.6967C15.7468 23.0693 15.4121 22.5464 15.1821 21.7621C14.9729 21.0301 14.9625 19.7542 15.1821 19.0327C15.6108 17.6 17.0226 16.2405 18.4343 15.9059C18.9781 15.7804 19.0932 15.7699 19.0932 15.885ZM45.5611 49.0667C46.7428 49.4641 47.2448 50.6876 46.6906 51.7961C46.1363 52.8732 45.7598 53.3438 45.2683 53.5634C43.9611 54.1386 42.4134 53.2183 42.4134 51.8588C42.4134 51.5869 42.4553 51.2523 42.5075 51.1163C42.6853 50.6458 43.8252 49.4118 44.2958 49.1712C44.8187 48.9098 45.0487 48.8889 45.5611 49.0667Z" fill="#1B6B93"/>
<path d="M7.33558 58.7667C6.26891 59.9667 4.93558 61.1 4.40224 61.3C3.73558 61.5 4.46891 62.5667 6.66891 64.8334C8.93558 67.1 10.0022 67.7667 10.2689 67.1C10.4022 66.5667 11.6022 65.2334 12.8689 64.0334L15.1356 61.9667L12.4022 59.2334C10.8689 57.7 9.60224 56.5 9.53558 56.5C9.40224 56.5 8.46891 57.5 7.33558 58.7667ZM11.0689 60.5667L12.4689 61.9667L11.0022 63.5L9.60224 65.0334L8.06891 63.5667L6.60224 62.1667L7.93558 60.6334C9.53558 58.8334 9.33558 58.8334 11.0689 60.5667Z" fill="#1B6B93"/>
<path d="M52.5317 32.3333C52.3317 33.0666 51.5984 33.6666 50.9317 33.6666C50.1984 33.6666 49.665 34.1333 49.665 34.6666C49.665 35.2 50.265 35.6666 50.9984 35.6666C51.865 35.6666 52.3317 36.1333 52.3317 36.9333C52.3317 38.8666 53.665 39.4 54.1317 37.6666C54.3317 36.8666 55.265 35.9333 56.1317 35.6C57.9317 34.9333 57.5984 33.6666 55.5984 33.6666C54.7984 33.6666 54.3317 33.2 54.3317 32.3333C54.3317 31.6 53.9984 31 53.5984 31C53.1984 31 52.7317 31.6 52.5317 32.3333Z" fill="#1B6B93"/>
</svg>
