<svg width="134" height="135" viewBox="0 0 134 135" fill="none" xmlns="http://www.w3.org/2000/svg">
<path d="M62.0945 32.2288C60.9023 32.4798 59.3023 33.2327 58.3821 33.9752C56.7193 35.3242 55.6318 37.2066 55.1403 39.6014L54.9311 40.6471L54.0945 40.8144C52.5991 41.1282 51.5533 41.7242 50.4867 42.8537C49.3154 44.1086 48.7089 45.5935 48.6984 47.2876C48.688 50.0171 50.0579 52.2341 52.5154 53.4785C54.1886 54.3256 56.6357 54.3046 58.3612 53.4367L58.7481 53.2484V53.5099C58.7481 53.6563 58.6749 54.2314 58.5912 54.7961C58.403 56.0824 58.0161 60.9452 58.0161 62.0955C58.0161 62.8484 57.9638 63.089 57.6814 63.7791L57.3363 64.5948L57.305 70.7648C57.2631 77.3321 57.3154 78.2942 57.7546 80.4171C58.2566 82.8014 59.0409 84.8197 60.3272 87.0471C60.7978 87.8523 60.8291 88.1974 60.5677 89.7556C60.1494 92.2027 59.135 94.3988 57.4723 96.4171C56.6461 97.421 56.5729 97.8393 57.1063 98.3726C57.7128 98.9791 58.1625 98.8537 59.02 97.8288C59.8566 96.8249 60.7873 95.3922 61.3102 94.2942C61.7808 93.3007 62.5128 91.1674 62.5128 90.77C62.5233 90.2053 62.6801 90.2471 63.3912 91.021C63.7782 91.4393 64.5102 92.2027 65.0017 92.7256C65.5037 93.238 66.9259 94.7229 68.1599 96.0197C69.3938 97.3164 70.5337 98.4563 70.6906 98.5713C71.4121 99.0419 72.4474 98.2053 72.186 97.3687C72.1442 97.2327 71.6527 96.6576 71.1089 96.0824C70.5546 95.4968 69.1638 94.0327 68.0135 92.8301C66.8631 91.6171 65.4932 90.1844 64.9703 89.6406C62.1572 86.6706 60.505 83.5334 59.7102 79.6014L59.4278 78.1896V71.5491V64.9086L59.7102 64.3857C60.2435 63.3713 61.1324 62.7752 62.2409 62.6916C63.5586 62.5765 64.6984 63.204 65.3154 64.3752L65.5978 64.9086L65.6605 72.9608L65.7128 81.0131L65.9952 82.0589C66.3193 83.3033 66.6644 84.1818 67.2396 85.1857C67.8461 86.2628 67.4801 85.8027 76.505 96.9818C77.7599 98.5295 77.8644 98.6236 78.3246 98.7072C78.6278 98.7491 78.7533 98.7072 79.0252 98.4667C79.4853 98.0484 79.5481 97.5465 79.2135 97.055C79.0775 96.8563 77.2056 94.5033 75.0514 91.8471C72.8971 89.1805 70.7324 86.4824 70.22 85.8445C68.8919 84.1504 68.1494 82.519 67.8566 80.6471C67.7311 79.8628 67.6997 65.0654 67.8252 65.0654C67.8671 65.0654 68.3481 65.2118 68.8919 65.3791C70.2723 65.8184 71.5063 66.0066 73.3363 66.0693C75.135 66.1216 75.1455 66.1321 76.369 67.272C77.237 68.0876 78.1259 69.2693 78.6906 70.3465C79.1193 71.1935 79.6945 72.8354 79.7991 73.5674C79.8618 73.9543 79.8409 73.9752 79.4749 74.1321C78.6906 74.4458 78.0736 74.9373 77.4043 75.7739C76.3586 77.0602 76.1599 77.5412 76.1599 78.8171C76.1599 79.685 76.2017 79.9465 76.4004 80.3752C77.5821 82.9478 80.9599 83.6589 82.9886 81.7556C83.271 81.4942 83.5847 81.1177 83.6893 80.9086L83.888 80.553L84.4527 80.8667C86.2618 81.8811 87.684 83.4184 88.5416 85.2693C90.2461 88.8981 89.5664 93.5622 86.9206 96.438C86.5546 96.8354 86.2304 97.285 86.1886 97.421C85.9795 98.2576 86.9206 98.9896 87.6945 98.5922C88.0919 98.3831 89.0121 97.3269 89.6291 96.3752C90.518 95.0053 91.0723 93.5308 91.3755 91.753C92.2121 86.8903 90.267 82.2157 86.2723 79.5072C85.9481 79.2876 85.4775 79.0053 85.2474 78.8903L84.8082 78.6706L84.7664 77.7399C84.735 76.9452 84.6723 76.6942 84.3899 76.119C84.003 75.3242 83.271 74.6131 82.4971 74.2576L81.9847 74.0275L81.8592 73.2432C81.5769 71.4759 80.667 69.2903 79.6004 67.8262C78.4814 66.2785 77.4148 65.2641 75.6788 64.1033C74.0474 63.0053 72.9494 62.1059 71.9664 61.0707C71.1612 60.2131 70.2723 59.0419 70.3664 58.9582C70.3873 58.9269 70.7429 58.9791 71.1403 59.0733C72.2174 59.3033 73.4304 59.2092 74.2043 58.8327C76.0867 57.9125 77.8017 55.1726 78.1991 52.4432L78.3246 51.6066L78.9625 51.3033C79.8723 50.8746 80.2383 50.3831 80.2383 49.5988C80.2383 49.034 80.1965 48.9399 79.5272 47.9256C78.8056 46.8066 78.4082 45.8027 78.4082 45.102C78.4082 44.8929 78.5023 44.0144 78.6174 43.1569C78.7324 42.289 78.8265 41.2327 78.8161 40.804C78.8161 36.8406 76.1703 33.421 72.2801 32.3229C71.4958 32.1033 71.2239 32.0929 67.271 32.0615C63.4331 32.0301 63.0043 32.0406 62.0945 32.2288ZM71.8723 34.3935C72.2801 34.519 72.8448 34.7491 73.1272 34.9059C73.6501 35.1988 74.7481 35.9831 74.7481 36.0667C74.7481 36.0876 74.654 36.2863 74.5494 36.5059C74.2043 37.1752 73.4514 37.855 72.6148 38.2524C71.9455 38.5765 71.705 38.6288 70.6592 38.702C68.8814 38.8171 68.5363 39.068 67.9612 40.668C67.7834 41.17 67.4801 41.8602 67.2919 42.1948C66.8736 42.9478 65.8383 44.3595 65.7128 44.3595C65.6605 44.3595 65.3991 44.255 65.1376 44.119C64.7612 43.9412 64.4788 43.889 63.82 43.889C63.088 43.889 62.9102 43.9308 62.4187 44.2027C61.7076 44.5896 61.122 45.2589 60.8187 46.0223C60.505 46.8275 60.505 48.1347 60.8291 48.9608L61.0592 49.536L60.7141 49.8184C60.5259 49.9857 60.3167 50.1112 60.254 50.1112C60.1808 50.1112 60.0135 49.9125 59.8671 49.6615C59.7311 49.421 59.271 48.6576 58.8527 47.9674C57.4304 45.6563 57.0226 44.3073 57.0226 42.0066C57.0226 38.587 58.3612 36.1295 60.8814 34.8955C62.3978 34.153 62.7115 34.1216 67.2187 34.153C70.8788 34.1739 71.1925 34.1948 71.8723 34.3935ZM76.4108 38.7857C76.7559 39.8419 76.7873 40.9818 76.5363 42.9791C76.2644 45.0707 76.2644 45.3425 76.5259 46.4301C76.7559 47.3818 76.9755 47.8733 77.5925 48.7831C77.8121 49.1073 77.9795 49.421 77.9481 49.4733C77.9167 49.5256 77.7599 49.5988 77.603 49.6406C76.7664 49.8497 76.3481 50.4876 76.1599 51.8576C75.9298 53.489 75.4278 54.6916 74.4867 55.8942C73.4095 57.2537 72.9599 57.3373 69.9376 56.6471C66.6958 55.9151 66.6644 55.9151 66.2775 56.072C65.922 56.2184 65.6501 56.6471 65.6501 57.0759C65.6501 57.3896 66.2566 58.0589 66.5599 58.0589C66.6644 58.0589 66.9259 58.1112 67.1455 58.1739C67.4801 58.268 67.5742 58.3622 67.8671 58.9269C68.5468 60.2759 69.4461 61.468 70.8579 62.8903C71.7363 63.7896 71.7572 63.8105 71.4435 63.8105C71.0984 63.8105 69.8331 63.4968 68.8396 63.1622C67.888 62.8484 66.4135 62.1269 65.6291 61.5935C64.4893 60.8092 63.9246 60.6314 62.5128 60.6314C61.6239 60.6314 61.1847 60.6733 60.8396 60.8092C60.5782 60.9138 60.3272 61.0079 60.2749 61.0184C60.0971 61.0602 60.3899 57.055 60.735 54.5347C60.8501 53.7086 60.9442 52.8301 60.9442 52.5687C60.9442 52.119 60.9546 52.0981 61.4461 51.8471C61.718 51.7112 62.0318 51.502 62.1363 51.3765C62.3978 51.0942 62.5023 51.0942 63.2344 51.4602C63.8409 51.7739 65.1899 52.0876 65.6187 52.0144C66.037 51.9517 66.3821 51.4916 66.3821 51.0001C66.3821 50.3308 66.0997 50.0903 65.054 49.8707C64.1023 49.6615 63.3599 49.1909 62.9416 48.5112C62.2827 47.4341 62.8265 45.9282 63.8827 45.9282C64.0082 45.9282 64.322 46.0432 64.5729 46.1896C65.4932 46.7334 66.3612 46.6393 67.1873 45.8968C68.0657 45.0916 69.3416 43.0524 69.8435 41.6406L70.1259 40.8563L70.9938 40.7831C72.1755 40.689 72.6566 40.553 73.6919 40.051C74.3821 39.7269 74.7272 39.4654 75.3128 38.8693C75.7206 38.451 76.0867 38.1059 76.118 38.0955C76.1494 38.085 76.2853 38.3988 76.4108 38.7857ZM54.8788 42.885C54.8788 42.9373 54.9729 43.5125 55.0775 44.1713C55.3912 45.9491 55.8723 47.1203 57.2004 49.3164C57.6605 50.0693 58.0788 50.7282 58.1311 50.7805C58.3403 51.0001 58.1938 51.1569 57.4409 51.5334C56.7612 51.868 56.5416 51.9203 55.684 51.9726C54.1572 52.0458 53.237 51.7112 52.1808 50.6968C51.5324 50.0693 51.1978 49.5465 50.9677 48.7622C50.7586 48.0301 50.7481 46.7543 50.9677 46.0327C51.3965 44.6001 52.8082 43.2406 54.22 42.9059C54.7638 42.7805 54.8788 42.77 54.8788 42.885ZM81.3468 76.0667C82.5285 76.4641 83.0304 77.6876 82.4762 78.7961C81.922 79.8733 81.5455 80.3439 81.054 80.5635C79.7468 81.1386 78.1991 80.2184 78.1991 78.8589C78.1991 78.587 78.2409 78.2523 78.2932 78.1164C78.471 77.6458 79.6108 76.4118 80.0814 76.1713C80.6043 75.9099 80.8344 75.889 81.3468 76.0667Z" fill="#1B6B93"/>
<path d="M43.1212 85.7666C42.0546 86.9666 40.7212 88.1 40.1879 88.3C39.5212 88.5 40.2546 89.5666 42.4546 91.8333C44.7212 94.1 45.7879 94.7666 46.0546 94.1C46.1879 93.5666 47.3879 92.2333 48.6546 91.0333L50.9212 88.9666L48.1879 86.2333C46.6546 84.7 45.3879 83.5 45.3212 83.5C45.1879 83.5 44.2546 84.5 43.1212 85.7666ZM46.8546 87.5666L48.2546 88.9666L46.7879 90.5L45.3879 92.0333L43.8546 90.5666L42.3879 89.1666L43.7212 87.6333C45.3212 85.8333 45.1212 85.8333 46.8546 87.5666Z" fill="#1B6B93"/>
<path d="M88.3174 59.3333C88.1174 60.0666 87.384 60.6666 86.7174 60.6666C85.984 60.6666 85.4507 61.1333 85.4507 61.6666C85.4507 62.2 86.0507 62.6666 86.784 62.6666C87.6507 62.6666 88.1174 63.1333 88.1174 63.9333C88.1174 65.8666 89.4507 66.4 89.9173 64.6666C90.1174 63.8666 91.0507 62.9333 91.9173 62.6C93.7174 61.9333 93.384 60.6666 91.384 60.6666C90.584 60.6666 90.1174 60.2 90.1174 59.3333C90.1174 58.6 89.784 58 89.384 58C88.984 58 88.5174 58.6 88.3174 59.3333Z" fill="#1B6B93"/>
</svg>
