<svg width="109" height="135" viewBox="0 0 109 135" fill="none" xmlns="http://www.w3.org/2000/svg">
<path d="M62.1224 31.2218C59.9195 31.6949 58.1749 32.6854 56.4452 34.4004C55.1293 35.7162 54.4493 36.7216 53.8283 38.2444C52.3794 41.8517 52.9412 46.6123 55.3659 51.1068C57.9679 55.9265 63.3643 61.5593 69.6328 66.0094L71.6731 67.4435L71.6287 82.1836L71.5992 96.9088L71.1408 97.4854C70.9043 97.7959 70.4312 98.1803 70.1059 98.3429C69.5441 98.6238 69.1893 98.6386 58.6628 98.683C52.6899 98.7125 47.4562 98.683 47.0423 98.6386C46.0665 98.5203 45.1942 97.9585 44.7507 97.1749C44.4846 96.7018 44.3959 96.2879 44.3515 95.2382L44.3072 93.9076L44.795 93.6858C45.6525 93.3014 45.8004 92.7544 45.8004 90.108V87.8016L47.4562 87.2398C54.5823 84.8743 59.3872 79.4485 60.5109 72.4998C60.8065 70.6665 60.7918 69.9125 60.4369 69.3359C60.156 68.848 59.4612 68.5524 58.6332 68.5524H58.2341L58.1897 62.2246C58.1454 56.0891 58.1306 55.8969 57.8201 55.3203C57.2139 54.1819 56.3269 53.6497 54.8484 53.5166C53.8727 53.4279 53.8579 53.4279 53.577 52.8513C53.1482 51.9495 52.1872 51.4025 51.0488 51.4025C48.4616 51.4025 45.9187 53.0583 46.1996 54.5368C46.4213 55.7047 48.9495 57.0205 51.0341 57.0353C52.1429 57.0501 53.1039 56.4883 53.5474 55.5864C53.8579 54.9803 53.8727 54.9655 54.6415 54.9507C55.0702 54.9507 55.6172 55.0542 55.8538 55.1725C56.7408 55.6308 56.7408 55.6604 56.7408 62.4908V68.7002H55.9129C55.2033 68.7002 55.0406 68.7593 54.6562 69.129C54.4049 69.3803 54.2275 69.7203 54.2275 69.9421C54.2275 70.637 53.9614 71.0066 52.8082 71.8936C47.8111 75.708 42.6957 76.8908 37.5507 75.4123C35.8061 74.9244 33.278 73.6382 31.7404 72.485L30.469 71.524L30.3655 70.6222C30.2176 69.3359 29.7445 68.8333 28.5914 68.7298L27.7486 68.6559L27.793 62.3133L27.8373 55.9561L28.3844 55.4534C28.8723 55.0246 29.0497 54.9507 29.6854 54.9507C30.3655 54.9507 30.4394 54.9951 30.5872 55.3499C31.1638 56.8727 32.864 57.4049 35.0078 56.7396C36.915 56.1335 38.1125 55.1725 38.1125 54.2115C38.1125 53.014 36.2792 51.8016 33.9285 51.432C32.4501 51.1955 31.1343 51.8164 30.6464 52.9548C30.469 53.3392 30.3507 53.3984 29.4045 53.561C28.0739 53.7828 27.4234 54.1967 26.8764 55.1577L26.4328 55.9117V62.2986V68.7002H25.6493C24.777 68.7002 24.3334 68.9368 23.9934 69.5873C23.5499 70.4448 24.23 74.4366 25.2501 76.876C25.8562 78.3248 26.9651 80.1729 27.8669 81.2374C29.6115 83.2776 33.2484 85.584 37.7725 87.506L38.7039 87.9051V90.3593C38.7039 93.0501 38.7778 93.3458 39.5762 93.6858C39.9901 93.8485 39.9901 93.8485 40.0788 95.5782C40.1823 98.0472 40.6702 99.2743 42.1339 100.871L42.74 101.522H35.7766C31.6074 101.522 28.6653 101.581 28.4435 101.669C27.9556 101.847 27.8965 102.616 28.34 102.852C28.5322 102.956 38.5117 103 59.5203 103C89.8135 103 90.4049 103 90.6562 102.719C90.8041 102.556 90.8928 102.305 90.8632 102.157C90.7449 101.551 90.4788 101.522 81.6673 101.522H73.2698L73.876 100.915C74.7187 100.117 75.3248 99.1265 75.6649 97.9881C75.9458 97.0862 75.9606 96.554 75.9606 82.4349V67.8131L78.0008 66.3199C81.2977 63.8657 82.9831 62.4168 85.5852 59.8296C87.8916 57.5232 89.8579 55.2316 91.0111 53.5019C91.4694 52.8218 91.5137 52.6887 91.3659 52.3635C91.2328 52.0826 91.085 51.9938 90.7597 51.9938C90.3753 51.9938 90.2275 52.1269 89.7396 52.8366C87.0784 56.7396 81.7265 61.9733 76.9955 65.285L76.1084 65.906V62.1507V58.3955L76.9659 58.0702C79.5679 57.124 81.6673 54.7881 82.377 52.0382C82.6727 50.885 82.6727 48.9039 82.3918 47.7803C81.5786 44.6756 79.287 42.3248 76.1823 41.4082C74.9996 41.0682 72.7819 41.0682 71.5992 41.4082C69.1597 42.1326 67.1491 43.7885 66.0994 45.947C65.7593 46.6271 65.4193 47.5437 65.3306 47.9725C65.094 49.0961 65.1236 51.0476 65.3897 52.0678C66.0994 54.7881 68.2135 57.124 70.8156 58.0702L71.6731 58.3955V61.9881C71.6731 63.9692 71.6139 65.5955 71.5548 65.5955C71.4957 65.5955 70.6825 65.0189 69.7511 64.324C61.1614 57.878 56.0312 51.3729 54.7302 45.2817C54.4197 43.8033 54.4197 41.3639 54.7302 40.1663C55.5285 37.0912 57.554 34.5926 60.3187 33.2916C62.0041 32.4932 63.0538 32.2862 64.9462 32.3602C68.2283 32.508 70.8304 33.8977 72.9593 36.6476C73.7872 37.7269 74.1569 37.786 74.7334 36.8694C75.3692 35.8641 76.685 34.5778 77.8086 33.883C81.002 31.9018 85.0825 31.8575 88.3794 33.7647C89.5918 34.4743 91.2476 36.1302 91.972 37.3721C93.5835 40.122 93.8053 43.6554 92.5782 47.2185C92.179 48.3717 92.1938 48.9335 92.6078 49.0961C93.0513 49.2735 93.5096 48.7856 93.8349 47.8246C94.5741 45.5478 94.648 45.0304 94.648 42.6797C94.6628 40.4768 94.6332 40.3437 94.1749 38.9836C92.4895 34.1343 88.1872 31 83.2049 31C80.041 31 77.025 32.2862 74.8074 34.5926L73.8907 35.5536L72.9741 34.5926C71.3183 32.8776 69.2041 31.7096 66.9125 31.2365C65.5523 30.9556 63.3643 30.9557 62.1224 31.2218ZM76.5815 42.9606C78.4148 43.6702 80.1445 45.4 80.8542 47.2333C81.3421 48.4899 81.416 50.6189 81.002 51.9495C80.2776 54.3446 78.4591 56.163 76.064 56.9023C75.2213 57.1536 74.7778 57.1979 73.5211 57.1388C72.161 57.0797 71.8948 57.0205 70.8747 56.5326C69.1302 55.7047 67.7552 54.2706 67.0899 52.5852C65.5523 48.6674 67.6074 44.2764 71.6731 42.8571C72.9593 42.4136 75.2953 42.4579 76.5815 42.9606ZM51.8029 52.8661C52.2168 53.1175 52.276 53.2505 52.3351 53.9454C52.3794 54.6698 52.3499 54.7733 51.9211 55.2021C51.655 55.483 51.3002 55.6899 51.0932 55.6899C50.0879 55.6899 47.6928 54.7437 47.5154 54.2706C47.3675 53.8862 48.4764 53.2209 49.94 52.807C50.8862 52.5261 51.2854 52.5409 51.8029 52.8661ZM35.4217 53.2505C35.9096 53.4723 36.4419 53.7828 36.5897 53.9454C36.841 54.2263 36.841 54.2559 36.4566 54.5811C35.8948 55.0542 34.4903 55.5717 33.5146 55.6604C32.8049 55.7195 32.6423 55.6752 32.2874 55.3795C31.6074 54.7881 31.6961 53.354 32.4501 52.8809C32.8936 52.6148 34.4312 52.807 35.4217 53.2505ZM74.7778 77.4674C74.7778 98.269 74.8222 97.2193 73.8316 98.8604C73.2254 99.8657 71.8061 100.989 70.7564 101.3C70.0911 101.492 68.3614 101.522 58.0419 101.522C46.5248 101.522 46.0517 101.507 45.2534 101.226C43.7454 100.694 42.3704 99.3483 41.7938 97.8255C41.5721 97.2341 41.4686 96.5244 41.4094 95.1938L41.3207 93.3901H42.1634H42.9914V94.9425C42.9914 96.14 43.0653 96.6723 43.287 97.2932C43.6566 98.269 44.5437 99.2152 45.4751 99.6439C46.17 99.9692 46.2439 99.9692 57.761 100.014C70.579 100.058 70.2981 100.073 71.54 99.1117C71.8801 98.8604 72.3679 98.269 72.6193 97.8255L73.0776 97.0123L73.1219 77.8222L73.1515 58.6468H73.9647H74.7778V77.4674ZM28.5026 70.1639C28.8427 70.2526 28.887 70.3708 28.9905 71.2875C29.5819 76.7725 33.5589 81.4296 38.6004 82.5828C40.3597 82.9967 41.5721 83.0854 43.0653 82.8932C49.6887 82.0949 54.7302 77.3343 55.3807 71.2875C55.4842 70.2969 55.4989 70.2526 55.9277 70.1639C56.179 70.1047 57.0217 70.0604 57.8349 70.0456L59.2838 70.0308L59.1803 71.0953C58.7811 75.3384 57.1252 78.8571 54.2127 81.7253C52.202 83.7064 50.0731 84.9483 46.6579 86.131C44.041 87.0181 44.3219 86.6041 44.3219 89.7088V92.3552L43.9671 92.1335C43.6714 91.9413 43.287 91.8969 42.0008 91.9413C41.1285 91.9708 40.2858 92.0448 40.138 92.1187C39.8866 92.237 39.8718 92.0891 39.8866 89.6201C39.9014 88.186 39.8571 86.9441 39.7831 86.885C39.724 86.8111 39.1326 86.545 38.4821 86.2936C36.4566 85.4953 33.7215 84.076 31.9178 82.8932C29.9072 81.5478 28.2217 79.892 27.379 78.3692C26.2554 76.3585 25.4127 73.5791 25.1762 71.0953L25.0727 70.0308L26.5955 70.0456C27.4382 70.0604 28.2957 70.1047 28.5026 70.1639ZM53.4291 73.6973C52.069 77.5265 48.0476 80.7199 43.6862 81.4148C42.3261 81.6366 40.064 81.5331 38.7778 81.193C35.6879 80.3799 32.7458 77.7926 31.3708 74.6879C31.1786 74.2148 31.0308 73.8156 31.0456 73.786C31.0751 73.7713 31.4595 73.9782 31.9031 74.2739C33.9877 75.6193 36.6636 76.6394 39.1474 77.0682C41.0989 77.3934 44.2924 77.2899 45.9482 76.8612C48.2694 76.2402 50.6053 75.161 52.4238 73.86C52.9708 73.4756 53.4587 73.1503 53.5178 73.1503C53.577 73.1355 53.5326 73.3869 53.4291 73.6973Z" fill="#1B6B93" stroke="#1B6B93"/>
<mask id="path-2-inside-1_3230_9555" fill="white">
<path d="M72.5601 45.1782C71.1999 45.6217 70.0615 46.5975 69.4701 47.8541C68.9379 48.963 68.9231 50.8258 69.4405 51.8755C69.9432 52.9252 70.8451 53.8418 71.7913 54.3149C72.5157 54.6697 72.8114 54.7289 73.8907 54.7289C75.3839 54.7289 76.1674 54.4332 77.2171 53.4574C78.2373 52.526 78.6512 51.5946 78.7399 50.1457C78.8139 48.6081 78.4442 47.5585 77.4685 46.5531C76.4779 45.533 75.5761 45.1486 74.1124 45.0895C73.4619 45.0747 72.767 45.1042 72.5601 45.1782ZM74.9847 46.5531C75.8126 46.8044 77.0693 48.0316 77.2763 48.8151C77.7494 50.5449 77.0249 52.2451 75.443 53.073C74.5264 53.5609 73.1366 53.5166 72.2348 52.9843C70.0615 51.7129 69.7658 48.8299 71.6582 47.248C72.634 46.4201 73.7428 46.1835 74.9847 46.5531Z"/>
</mask>
<path d="M72.5601 45.1782C71.1999 45.6217 70.0615 46.5975 69.4701 47.8541C68.9379 48.963 68.9231 50.8258 69.4405 51.8755C69.9432 52.9252 70.8451 53.8418 71.7913 54.3149C72.5157 54.6697 72.8114 54.7289 73.8907 54.7289C75.3839 54.7289 76.1674 54.4332 77.2171 53.4574C78.2373 52.526 78.6512 51.5946 78.7399 50.1457C78.8139 48.6081 78.4442 47.5585 77.4685 46.5531C76.4779 45.533 75.5761 45.1486 74.1124 45.0895C73.4619 45.0747 72.767 45.1042 72.5601 45.1782ZM74.9847 46.5531C75.8126 46.8044 77.0693 48.0316 77.2763 48.8151C77.7494 50.5449 77.0249 52.2451 75.443 53.073C74.5264 53.5609 73.1366 53.5166 72.2348 52.9843C70.0615 51.7129 69.7658 48.8299 71.6582 47.248C72.634 46.4201 73.7428 46.1835 74.9847 46.5531Z" fill="#1B6B93"/>
<path d="M72.5601 45.1782L73.2327 47.0616L73.2065 47.071L73.1801 47.0796L72.5601 45.1782ZM69.4701 47.8541L71.2798 48.7057L71.2765 48.7127L71.2732 48.7196L69.4701 47.8541ZM69.4405 51.8755L71.2344 50.9912L71.2395 51.0014L71.2444 51.0117L69.4405 51.8755ZM71.7913 54.3149L70.9115 56.111L70.9042 56.1074L70.8968 56.1038L71.7913 54.3149ZM77.2171 53.4574L75.8554 51.9926L75.862 51.9865L75.8686 51.9805L77.2171 53.4574ZM78.7399 50.1457L80.7376 50.2418L80.737 50.2549L80.7362 50.2679L78.7399 50.1457ZM77.4685 46.5531L78.9033 45.1598L78.9036 45.1602L77.4685 46.5531ZM74.1124 45.0895L74.1579 43.09L74.1755 43.0904L74.1932 43.0911L74.1124 45.0895ZM74.9847 46.5531L75.5552 44.6362L75.5657 44.6394L74.9847 46.5531ZM77.2763 48.8151L75.3471 49.3428L75.3448 49.3343L75.3426 49.3259L77.2763 48.8151ZM75.443 53.073L74.5033 51.3075L74.5156 51.301L75.443 53.073ZM72.2348 52.9843L73.2447 51.258L73.2513 51.2619L72.2348 52.9843ZM71.6582 47.248L72.9522 48.773L72.9466 48.7777L72.9409 48.7825L71.6582 47.248ZM73.1801 47.0796C72.3143 47.362 71.6232 47.9759 71.2798 48.7057L67.6605 47.0025C68.4998 45.219 70.0855 43.8814 71.94 43.2767L73.1801 47.0796ZM71.2732 48.7196C71.1712 48.932 71.0657 49.3624 71.0616 49.9021C71.0575 50.4498 71.1595 50.8393 71.2344 50.9912L67.6467 52.7598C67.2041 51.862 67.0548 50.7952 67.0618 49.8719C67.0688 48.9406 67.2368 47.8851 67.6671 46.9887L71.2732 48.7196ZM71.2444 51.0117C71.5639 51.6789 72.1548 52.2606 72.6857 52.5261L70.8968 56.1038C69.5353 55.423 68.3225 54.1715 67.6367 52.7393L71.2444 51.0117ZM72.671 52.5188C72.9779 52.6691 73.0498 52.6838 73.0955 52.6929C73.1844 52.7104 73.3541 52.7289 73.8907 52.7289V56.7289C73.3479 56.7289 72.8301 56.7178 72.3203 56.617C71.7672 56.5078 71.329 56.3155 70.9115 56.111L72.671 52.5188ZM73.8907 52.7289C74.5133 52.7289 74.8114 52.6651 75.0077 52.5903C75.196 52.5185 75.4383 52.3804 75.8554 51.9926L78.5788 54.9223C77.9463 55.5102 77.272 56.0078 76.4328 56.3278C75.6015 56.6448 74.7612 56.7289 73.8907 56.7289V52.7289ZM75.8686 51.9805C76.2259 51.6543 76.4014 51.3995 76.5084 51.1651C76.6193 50.9222 76.7093 50.585 76.7437 50.0235L80.7362 50.2679C80.6819 51.1553 80.5205 52.0082 80.1472 52.8261C79.77 53.6525 79.2286 54.3292 78.5657 54.9344L75.8686 51.9805ZM76.7422 50.0497C76.7705 49.4621 76.7082 49.088 76.6122 48.8164C76.5198 48.5551 76.3586 48.2812 76.0333 47.9461L78.9036 45.1602C79.5542 45.8304 80.0656 46.5839 80.3835 47.4832C80.6977 48.3722 80.7833 49.2918 80.7376 50.2418L76.7422 50.0497ZM76.0336 47.9464C75.6666 47.5684 75.4023 47.3957 75.1716 47.2956C74.935 47.1929 74.6057 47.111 74.0317 47.0878L74.1932 43.0911C75.0828 43.127 75.9363 43.2669 76.7641 43.6263C77.5979 43.9881 78.2798 44.5177 78.9033 45.1598L76.0336 47.9464ZM74.067 47.0889C73.7825 47.0825 73.4972 47.0861 73.275 47.0978C73.1628 47.1037 73.0864 47.1107 73.0444 47.1159C73.0236 47.1184 73.0255 47.1188 73.0441 47.1152C73.0537 47.1133 73.1276 47.0992 73.2327 47.0616L71.8874 43.2947C72.1594 43.1975 72.427 43.1618 72.5525 43.1462C72.7193 43.1256 72.8961 43.1122 73.0648 43.1033C73.4044 43.0854 73.7918 43.0817 74.1579 43.09L74.067 47.0889ZM75.5657 44.6394C76.4361 44.9036 77.2348 45.5365 77.7656 46.0585C78.2769 46.5612 78.965 47.377 79.21 48.3043L75.3426 49.3259C75.3749 49.4481 75.4002 49.4444 75.307 49.3107C75.2288 49.1986 75.1101 49.0571 74.9611 48.9106C74.8128 48.7648 74.6618 48.6408 74.5329 48.5525C74.3881 48.4534 74.3435 48.4486 74.4037 48.4669L75.5657 44.6394ZM79.2054 48.2875C79.9217 50.9063 78.8013 53.5728 76.3704 54.845L74.5156 51.301C75.2486 50.9174 75.5771 50.1835 75.3471 49.3428L79.2054 48.2875ZM76.3827 54.8385C75.5543 55.2794 74.6177 55.4348 73.7755 55.4104C72.9318 55.386 72.0143 55.1765 71.2183 54.7067L73.2513 51.2619C73.3572 51.3244 73.5855 51.4032 73.8912 51.4121C74.1986 51.421 74.4151 51.3545 74.5033 51.3075L76.3827 54.8385ZM71.2249 54.7106C67.9262 52.7808 67.3591 48.235 70.3755 45.7135L72.9409 48.7825C72.1726 49.4248 72.1968 50.6449 73.2447 51.258L71.2249 54.7106ZM70.3643 45.723C71.8558 44.4574 73.6661 44.074 75.5552 44.6362L74.4142 48.47C73.8196 48.293 73.4122 48.3827 72.9522 48.773L70.3643 45.723Z" fill="#1B6B93" mask="url(#path-2-inside-1_3230_9555)"/>
<path d="M25.5649 102.557C25.5649 102.557 25.5642 102.557 25.5626 102.556C25.5641 102.557 25.5649 102.557 25.5649 102.557ZM25.0874 101.522C24.5108 101.522 24.156 101.595 24.0081 101.758L26.2554 102.364C26.3293 101.714 26.0632 101.522 25.0874 101.522Z" fill="#1B6B93" stroke="#1B6B93" stroke-width="2"/>
<mask id="path-5-inside-2_3230_9555" fill="white">
<path d="M92.5486 101.699C92.4451 101.803 92.3712 102.01 92.3712 102.187C92.3712 102.734 92.6521 102.852 93.9975 102.852C95.3429 102.852 95.6238 102.734 95.6238 102.187C95.6238 102.01 95.5499 101.803 95.4464 101.699C95.2098 101.463 92.7852 101.463 92.5486 101.699Z"/>
</mask>
<path d="M92.5486 101.699C92.4451 101.803 92.3712 102.01 92.3712 102.187C92.3712 102.734 92.6521 102.852 93.9975 102.852C95.3429 102.852 95.6238 102.734 95.6238 102.187C95.6238 102.01 95.5499 101.803 95.4464 101.699C95.2098 101.463 92.7852 101.463 92.5486 101.699Z" fill="#1B6B93"/>
<path d="M93.9628 103.113C94.1841 102.892 94.2707 102.682 94.3019 102.596C94.3396 102.491 94.3712 102.357 94.3712 102.187H90.3712C90.3712 101.839 90.4398 101.513 90.5404 101.235C90.6344 100.975 90.8097 100.61 91.1344 100.285L93.9628 103.113ZM94.3712 102.187C94.3712 102.175 94.371 102.108 94.3524 102.008C94.333 101.903 94.2909 101.748 94.1974 101.574C93.9801 101.17 93.6509 100.961 93.4399 100.875C93.285 100.811 93.2135 100.82 93.3573 100.833C93.4812 100.845 93.6789 100.852 93.9975 100.852V104.852C93.6434 104.852 93.3015 104.845 92.9944 104.817C92.7071 104.791 92.3131 104.736 91.9198 104.575C91.4703 104.39 90.9869 104.049 90.6749 103.469C90.3986 102.956 90.3712 102.458 90.3712 102.187H94.3712ZM93.9975 100.852C94.3161 100.852 94.5138 100.845 94.6377 100.833C94.7815 100.82 94.71 100.811 94.5551 100.875C94.3441 100.961 94.0149 101.17 93.7976 101.574C93.7041 101.748 93.662 101.903 93.6426 102.008C93.624 102.108 93.6238 102.175 93.6238 102.187H97.6238C97.6238 102.458 97.5964 102.956 97.3201 103.469C97.0081 104.049 96.5247 104.39 96.0752 104.575C95.6819 104.736 95.2879 104.791 95.0006 104.817C94.6935 104.845 94.3516 104.852 93.9975 104.852V100.852ZM93.6238 102.187C93.6238 102.357 93.6554 102.491 93.6931 102.596C93.7243 102.682 93.8109 102.892 94.0322 103.113L96.8606 100.285C97.1853 100.61 97.3606 100.975 97.4546 101.235C97.5552 101.513 97.6238 101.839 97.6238 102.187H93.6238ZM94.0322 103.113C94.1032 103.184 94.1711 103.241 94.2295 103.285C94.2881 103.329 94.342 103.364 94.3877 103.392C94.4337 103.419 94.4752 103.442 94.5102 103.459C94.5454 103.476 94.5768 103.49 94.6032 103.502C94.6549 103.523 94.6965 103.537 94.7232 103.546C94.7507 103.555 94.771 103.56 94.7821 103.563C94.7936 103.565 94.7998 103.567 94.7998 103.567C94.8001 103.567 94.7964 103.566 94.7883 103.565C94.7715 103.562 94.744 103.558 94.7047 103.554C94.6659 103.549 94.6198 103.545 94.5668 103.541C94.5139 103.537 94.4562 103.533 94.3943 103.531C94.2701 103.525 94.1351 103.522 93.9975 103.522C93.8599 103.522 93.7249 103.525 93.6007 103.531C93.5388 103.533 93.4811 103.537 93.4282 103.541C93.3752 103.545 93.3291 103.549 93.2903 103.554C93.251 103.558 93.2235 103.562 93.2067 103.565C93.1986 103.566 93.1949 103.567 93.1951 103.567C93.1952 103.567 93.2014 103.565 93.2129 103.563C93.224 103.56 93.2443 103.555 93.2718 103.546C93.2985 103.537 93.3401 103.523 93.3918 103.502C93.4182 103.49 93.4496 103.476 93.4848 103.459C93.5198 103.442 93.5613 103.419 93.6073 103.392C93.653 103.364 93.7069 103.329 93.7655 103.285C93.8239 103.241 93.8918 103.184 93.9628 103.113L91.1344 100.285C91.4169 100.002 91.7156 99.867 91.8433 99.8134C92.0011 99.7472 92.1458 99.7061 92.2498 99.6803C92.4591 99.6284 92.6706 99.598 92.8455 99.5784C93.2054 99.5381 93.6162 99.5216 93.9975 99.5216C94.3788 99.5216 94.7896 99.5381 95.1495 99.5784C95.3244 99.598 95.5359 99.6284 95.7452 99.6803C95.8492 99.7061 95.9939 99.7472 96.1517 99.8134C96.2794 99.867 96.5781 100.002 96.8606 100.285L94.0322 103.113Z" fill="#1B6B93" mask="url(#path-5-inside-2_3230_9555)"/>
<path d="M29.7943 18.7757C29.2712 19.8303 28.1726 21.1329 27.2833 21.7532C25.2954 23.0558 25.2954 24.0483 27.231 25.2889C28.068 25.7852 29.2712 27.1498 29.8989 28.3905C30.5267 29.569 31.2067 30.5615 31.3637 30.5615C31.5729 30.4995 32.2007 29.6311 32.7761 28.5145C33.3515 27.46 34.607 25.9713 35.4963 25.2889C36.438 24.6066 37.1703 23.8622 37.2227 23.6141C37.2227 23.428 36.3857 22.6216 35.3917 21.8773C34.3455 21.1329 33.1946 19.7062 32.7761 18.7137C31.7298 16.4186 30.8928 16.4186 29.7943 18.7757ZM32.933 21.8152L34.4501 23.6141L32.933 25.475L31.3637 27.2739L29.8466 25.413L28.2772 23.5521L29.6897 21.8152C30.4743 20.8227 31.2067 20.0163 31.259 20.0163C31.3113 20.0163 32.096 20.8227 32.933 21.8152Z" fill="#1B6B93"/>
<path d="M11.6947 63.0123C11.4128 62.7105 11.2505 62.3498 11.1702 61.9746C11.0899 62.3498 10.9277 62.7105 10.6458 63.0123C10.3261 63.3548 9.92595 63.5435 9.5071 63.6242C10.2383 63.9343 10.8527 64.5568 11.192 65.2808C11.2784 64.9394 11.4363 64.6132 11.6947 64.3365C12.1454 63.8537 12.7559 63.6766 13.3535 63.6766C13.3695 63.6766 13.385 63.6758 13.3999 63.6744C13.385 63.673 13.3695 63.6723 13.3535 63.6723C12.7559 63.6723 12.1454 63.4951 11.6947 63.0123ZM11.6358 66.3647C11.6358 66.3647 11.6354 66.3643 11.6346 66.3636L11.6358 66.3647ZM13.6238 63.5808C13.6237 63.5808 13.6231 63.5816 13.622 63.5832C13.6233 63.5816 13.6239 63.5808 13.6238 63.5808ZM13.622 63.7657C13.6231 63.7673 13.6237 63.768 13.6238 63.768C13.6239 63.768 13.6233 63.7672 13.622 63.7657ZM10.9888 60.9453C10.9887 60.9454 10.9899 60.9467 10.9922 60.9487C10.9899 60.9462 10.9888 60.9452 10.9888 60.9453ZM11.3483 60.9487C11.3506 60.9467 11.3517 60.9454 11.3517 60.9453C11.3517 60.9452 11.3505 60.9462 11.3483 60.9487Z" stroke="#1B6B93" stroke-width="2"/>
</svg>
