<svg width="124" height="135" viewBox="0 0 124 135" fill="none" xmlns="http://www.w3.org/2000/svg">
<path d="M111.404 74.9363C111.241 75.5778 110.645 76.1027 110.102 76.1027C109.505 76.1027 109.072 76.511 109.072 76.9776C109.072 77.4442 109.56 77.8525 110.156 77.8525C110.862 77.8525 111.241 78.2607 111.241 78.9606C111.241 80.652 112.326 81.1186 112.706 79.6022C112.868 78.9023 113.628 78.0858 114.333 77.7942C115.797 77.2109 115.526 76.1027 113.899 76.1027C113.248 76.1027 112.868 75.6945 112.868 74.9363C112.868 74.2947 112.597 73.7698 112.272 73.7698C111.946 73.7698 111.567 74.2947 111.404 74.9363Z" fill="#1B6B93"/>
<path d="M89.8535 35.5257C89.3304 36.5803 88.2318 37.8829 87.3425 38.5032C85.3546 39.8058 85.3546 40.7983 87.2902 42.0389C88.1272 42.5352 89.3304 43.8998 89.9581 45.1405C90.5859 46.319 91.2659 47.3115 91.4229 47.3115C91.6321 47.2495 92.2599 46.3811 92.8353 45.2645C93.4107 44.21 94.6662 42.7213 95.5555 42.0389C96.4972 41.3566 97.2295 40.6122 97.2819 40.3641C97.2819 40.178 96.4449 39.3716 95.4509 38.6273C94.4047 37.8829 93.2538 36.4562 92.8353 35.4637C91.789 33.1686 90.952 33.1686 89.8535 35.5257ZM92.9922 38.5652L94.5093 40.3641L92.9922 42.225L91.4229 44.0239L89.9058 42.163L88.3364 40.3021L89.7489 38.5652C90.5335 37.5727 91.2659 36.7663 91.3182 36.7663C91.3705 36.7663 92.1552 37.5727 92.9922 38.5652Z" fill="#1B6B93"/>
<path d="M49.6774 41.6667C46.0679 42.9693 42.8245 46.257 40.9935 50.413C39.3195 54.1969 39.6857 60.2138 41.9875 67.0372C43.7138 72.1857 43.9754 73.6124 44.4462 81.3042C44.7077 85.9565 45.3355 91.3531 45.8063 93.214C47.428 99.7272 52.2407 103.325 54.8564 99.9753C55.3795 99.293 56.635 95.8193 57.5243 92.4076C60.3492 81.8004 62.1801 78.885 64.9527 80.1256C66.8359 80.994 68.1437 83.8474 70.2886 92.0354C71.2825 95.9434 72.5903 99.6652 73.1134 100.223C74.4212 101.588 76.2522 101.526 78.2924 100.037C81.5357 97.7422 82.8436 92.5937 83.6282 79.5673C83.9944 72.868 84.3083 71.1932 85.7731 67.1612C87.9179 61.2063 88.441 55.3754 87.0809 51.2194C85.7207 46.9393 82.3204 43.2795 78.6586 41.9769C75.1013 40.7983 72.6426 41.0464 68.2484 43.2795C64.2203 45.2024 63.6449 45.2024 58.9367 42.9693C55.0656 41.1084 52.2931 40.7363 49.6774 41.6667ZM57.472 44.7682C58.8844 45.4506 61.9709 47.1254 64.3249 48.4901C66.679 49.9168 68.8238 50.8472 69.0854 50.6611C69.9747 50.0408 69.5562 49.1724 67.9345 47.9938L66.3128 46.8152L68.8238 45.4506C70.2362 44.6442 72.7996 43.8998 74.5259 43.7757C77.2984 43.5897 77.9785 43.7757 80.3849 45.3885C82.2681 46.6912 83.5759 48.2419 84.5699 50.2269C86.7147 54.569 86.5577 58.9112 84.0467 66.4169C82.2681 71.6274 82.0589 72.9921 81.5881 80.994C81.0649 90.4226 80.6464 92.9659 78.9724 96.1915C77.7692 98.5486 75.5721 99.7892 74.4736 98.7347C74.1074 98.3625 72.7996 94.4546 71.5964 89.9884C68.9807 80.3117 67.3591 77.7064 63.9064 77.7064C60.7154 77.7064 58.6229 80.932 56.5304 89.058C54.5425 96.6877 53.5486 99.4171 52.8162 99.4171C51.1422 99.4171 49.2066 97.3701 48.265 94.6407C46.9572 90.9809 46.6433 88.8099 46.0679 79.2572C45.7017 72.9301 45.3355 71.0071 43.7138 66.1067C42.4583 62.1988 41.8305 59.3454 41.8305 57.2364C41.8305 47.1874 49.5205 41.1084 57.472 44.7682Z" fill="#1B6B93"/>
<path d="M49.5731 50.1649C47.6898 51.3435 46.5389 54.0728 46.5389 57.1743C46.5389 60.0898 47.4806 62.8191 48.4745 62.8191C49.3115 62.8191 49.3115 62.0127 48.5791 58.8491C48.1606 57.1123 48.2129 55.9957 48.6838 54.6311C49.3115 52.8322 51.5086 51.0333 53.078 51.0333C53.4965 51.0333 53.8627 50.5991 53.8627 50.1028C53.8627 48.8622 51.4563 48.9243 49.5731 50.1649Z" fill="#1B6B93"/>
<path d="M29.7988 63.5014C28.2817 64.1837 26.66 66.9751 26.66 69.0221C26.66 70.945 28.1771 73.7364 29.6418 74.5428C31.839 75.7214 33.4607 75.3492 35.3439 73.1161C37.3318 70.759 37.5933 68.6499 36.2332 65.9206C34.8731 63.1292 32.5713 62.2608 29.7988 63.5014ZM34.7162 65.9206C36.0763 67.4713 36.024 70.6349 34.6115 72.2477C32.2575 75.0391 28.0725 73.0541 28.0725 69.0841C28.0725 64.742 31.9959 62.8811 34.7162 65.9206Z" fill="#1B6B93"/>
<path d="M34.6116 76.2177C33.2514 77.3342 33.0422 80.2497 34.2977 81.6764C35.5009 83.1651 37.9596 82.917 38.9012 81.3042C39.9997 79.4433 39.9474 77.9545 38.6919 76.4658C37.4364 74.9771 36.1809 74.915 34.6116 76.2177ZM37.8549 77.8305C39.2674 80.2497 36.9133 82.7929 35.1347 80.6839C34.2454 79.6293 34.35 77.8925 35.4486 77.1481C36.7041 76.2177 36.9656 76.2797 37.8549 77.8305Z" fill="#1B6B93"/>
</svg>
