<svg width="134" height="135" viewBox="0 0 134 135" fill="none" xmlns="http://www.w3.org/2000/svg">
<path d="M56.6862 34.9646C55.7505 36.092 55.6921 36.9689 56.0429 43.2322C56.2769 47.1155 56.6277 50.9988 56.8032 51.813C57.0371 52.7525 56.9201 53.1909 56.5108 52.8778C56.2184 52.6899 55.3412 50.0593 54.581 47.1155C53.1775 41.4158 52.2418 39.7247 50.1365 39.0358C48.4406 38.5347 45.8676 41.1027 45.8676 43.2948C45.8676 44.1091 46.9202 49.245 48.2067 54.6941C50.6629 64.9034 51.7155 71.9183 50.7798 71.9183C50.4874 71.9183 49.4933 70.603 48.5576 69.0372C45.6921 64.2144 38.4992 60.8322 36.5109 63.4628C34.815 65.655 35.2828 67.2835 39.1425 71.9183C40.6044 73.6721 42.4173 76.4906 43.236 78.2443C44.0547 79.9354 46.3939 83.3176 48.4991 85.6977C51.657 89.4557 52.3003 90.5831 52.8851 93.5895C53.2944 95.5312 53.4699 97.9112 53.3529 98.9134C53.119 100.667 54.1131 101.795 55.2827 100.98C55.926 100.542 55.926 96.7838 55.2827 93.7774C54.8149 91.5226 54.8149 91.46 56.6277 91.5853C58.6745 91.6479 59.2593 89.9568 57.271 89.5183C53.8792 88.8294 48.2067 82.8792 45.1658 76.7411C44.1717 74.7995 42.0664 71.6052 40.546 69.6635C38.967 67.7845 37.6805 65.9682 37.6805 65.5924C37.6805 64.5902 40.7214 65.0287 42.7682 66.344C43.8793 67.0956 45.8091 69.2251 47.0956 71.0415C48.7915 73.5468 49.7857 74.4237 50.8968 74.4237C54.1716 74.4237 54.0546 69.8514 50.4874 54.381C48.1483 44.4222 47.8559 42.1674 48.733 41.6037C50.0781 40.7269 51.0722 42.2301 52.0079 46.4265C52.5927 48.9319 53.7623 52.6272 54.6979 54.6941C55.5751 56.761 56.1014 58.5148 55.7505 58.64C55.4581 58.7653 55.2242 59.2664 55.2242 59.7674C55.2242 60.7696 56.7447 60.9575 57.271 60.018C57.4464 59.6422 58.2651 59.3916 59.0254 59.3916C60.7213 59.3916 61.423 58.3895 60.2534 57.7005C59.6102 57.3247 59.2008 54.6315 58.6745 47.0529C58.2651 41.4158 58.1482 36.6557 58.3821 36.4052C58.616 36.1546 59.2593 36.2799 59.7856 36.5931C60.5458 37.1568 60.9552 39.2237 61.7154 46.3013C62.768 56.5731 63.1774 58.5148 64.2885 59.0158C66.1014 59.7048 66.6277 57.45 66.9201 47.7418C67.0955 41.2906 67.4464 37.9084 67.9727 37.3447C69.5516 35.6536 70.1364 37.9084 70.4873 47.366L70.8382 56.5731L69.0253 58.139C63.2944 63.1497 60.9552 67.7219 60.6043 74.7368C60.4289 78.808 60.6043 80.4365 61.6569 83.3176C63.1774 87.7646 67.3294 92.7753 71.0721 94.7796C73.7621 96.2828 73.8206 96.408 73.2943 98.3497C72.9434 99.7902 73.0019 100.479 73.5282 100.855C74.3469 101.419 75.6919 99.7902 75.6919 98.287C75.6919 97.4728 76.5691 97.2849 80.8381 97.2849C85.1656 97.2849 86.4521 96.9717 89.4345 95.5312C93.645 93.4016 97.4462 89.6436 99.5514 85.3845C100.955 82.6287 101.13 81.5639 101.13 75.9895C101.13 70.5404 100.955 69.3504 99.6684 66.6571C96.8029 60.5817 90.2532 55.3831 84.5223 54.5689L82.3001 54.2557L82.534 48.8066C82.8264 43.0443 82.417 41.729 80.0194 40.9774C77.7387 40.2258 76.2767 42.2927 75.6335 47.1781C74.9317 52.8151 74.3469 55.1952 73.5282 55.4457C73.1189 55.6336 72.8265 52.6899 72.7095 46.3013C72.4171 35.8415 72.0662 34.7767 68.6744 34.7767C65.6335 34.7767 65.1072 35.9667 64.6979 43.4827L64.347 50.3098L63.6452 43.1069C63.002 37.0315 62.7096 35.7788 61.6569 34.8393C59.961 33.3361 57.9728 33.3988 56.6862 34.9646ZM80.2533 46.9276C80.3703 48.8066 80.3118 51.2493 80.0779 52.3141C79.7855 54.0052 79.4346 54.381 78.2065 54.381C76.9785 54.381 76.803 54.1304 77.037 52.9404C77.2709 52.1888 77.5633 50.3098 77.7387 48.744C78.382 43.9212 78.6159 42.9817 79.3761 43.2948C79.7855 43.4201 80.1364 44.9859 80.2533 46.9276ZM87.7971 58.2016C91.5983 59.7674 95.8088 63.9013 97.6216 67.8472C99.3175 71.5425 99.259 80.6244 97.5047 84.1319C91.5983 96.0322 76.5106 98.5376 67.7973 89.0799C66.5692 87.7646 64.9318 85.134 64.1715 83.3176C62.2417 78.9333 62.4172 71.8557 64.4639 67.534C68.9084 58.3895 78.5574 54.5689 87.7971 58.2016Z" fill="#1B6B93"/>
<path d="M76.2765 66.5945C75.1654 68.0351 75.8087 69.7262 77.4461 69.7262C78.4987 69.7262 78.9665 69.3504 79.0835 68.3483C79.3174 66.5319 77.3291 65.2792 76.2765 66.5945ZM78.0309 68.1604C78.0309 68.4735 77.7969 68.7867 77.4461 68.7867C77.1537 68.7867 76.8613 68.4735 76.8613 68.1604C76.8613 67.7846 77.1537 67.534 77.4461 67.534C77.7969 67.534 78.0309 67.7846 78.0309 68.1604Z" fill="#1B6B93"/>
<path d="M67.5048 75.9895C65.9843 77.9311 68.5574 80.4365 70.2533 78.6201C71.3644 77.4301 70.7212 75.05 69.3177 75.05C68.7329 75.05 67.9142 75.4884 67.5048 75.9895ZM69.844 76.8037C69.844 77.618 69.1422 78.1817 68.5574 77.8059C67.9726 77.4301 68.499 76.3027 69.3177 76.3027C69.6101 76.3027 69.844 76.5532 69.844 76.8037Z" fill="#1B6B93"/>
<path d="M74.5221 83.5056C73.0017 85.4473 75.5748 87.9526 77.2707 86.1362C78.3818 84.9462 77.7385 82.5661 76.335 82.5661C75.7502 82.5661 74.9315 83.0046 74.5221 83.5056ZM76.8613 84.3199C76.8613 85.1341 76.1596 85.6978 75.5748 85.322C74.99 84.9462 75.5163 83.8188 76.335 83.8188C76.6274 83.8188 76.8613 84.0693 76.8613 84.3199Z" fill="#1B6B93"/>
<path d="M37.2491 54.1163C37.0345 53.8863 36.8919 53.6219 36.8032 53.3443C36.7145 53.6219 36.5719 53.8863 36.3572 54.1163C36.093 54.3993 35.7728 54.5733 35.4346 54.6668C36.0135 54.9587 36.5017 55.454 36.808 56.0295C36.897 55.7573 37.0383 55.4982 37.2491 55.2724C37.5419 54.9588 37.9033 54.779 38.2819 54.6943C37.9033 54.6096 37.5419 54.4298 37.2491 54.1163ZM39.0551 54.5671C39.0551 54.5671 39.0549 54.5673 39.0545 54.5677L39.0551 54.5671ZM39.0545 54.8209C39.0549 54.8213 39.0551 54.8215 39.0551 54.8215L39.0545 54.8209Z" stroke="#1B6B93" stroke-width="2"/>
</svg>
