<svg width="134" height="135" viewBox="0 0 134 135" fill="none" xmlns="http://www.w3.org/2000/svg">
<path d="M65.0944 46.745C64.8231 47.0162 64.6294 48.0237 64.6294 49.0312C64.6294 50.2711 64.4356 50.9299 64.0481 51.0849C63.7382 51.2011 63.4669 51.6661 63.4669 52.0923C63.4669 52.8673 63.2732 52.8673 52.191 52.8673C45.1775 52.8673 40.6438 53.0223 40.1789 53.2548C39.5976 53.6035 39.4426 54.1073 39.4426 55.7735C39.4426 58.4859 39.7914 58.6796 45.0225 58.6796H49.1298V60.0358C49.1298 61.0821 48.8973 61.4696 48.0836 61.9345C46.4174 62.787 43.8987 65.6157 42.6975 67.9794C41.6513 69.9168 41.5738 70.4593 41.5738 74.1792C41.5738 77.8991 41.6513 78.4416 42.6588 80.3402C45.1387 85.0289 49.5173 88.09 54.2834 88.4388L56.4921 88.5938V86.6563V84.7189L58.0033 84.4476C61.1032 83.9439 64.4744 80.9602 65.6368 77.7828C66.5281 75.2641 66.3343 71.893 65.1719 69.5681C64.2031 67.6306 64.1644 67.5144 64.8619 67.0106C65.7918 66.3132 68.8918 66.3132 69.8217 67.0106C70.5192 67.5144 70.4805 67.6306 69.5117 69.5681C66.5281 75.6129 70.2092 83.2464 76.7578 84.4476C78.1915 84.7189 78.1915 84.7189 78.1915 86.6563V88.5938L80.4389 88.4388C84.9725 88.09 89.3899 85.1064 91.7923 80.689C93.071 78.3641 93.1098 78.0541 93.1098 74.1792C93.1098 70.4593 93.0323 69.9168 91.9861 67.9794C90.7848 65.6157 88.2662 62.787 86.6387 61.9345C85.7862 61.4696 85.5538 61.0821 85.5538 60.0358V58.6796H89.6611C94.8535 58.6796 95.241 58.4859 95.241 55.851C95.241 54.7273 95.0472 53.6035 94.776 53.3323C94.4272 52.9836 91.2111 52.8673 82.7638 52.8673C71.4104 52.8673 71.2167 52.8673 71.2167 52.0923C71.2167 51.6661 70.9454 51.2011 70.6354 51.0849C70.248 50.9299 70.0542 50.2711 70.0542 49.0312C70.0542 46.745 69.5892 46.28 67.3418 46.28C66.3731 46.28 65.3656 46.4738 65.0944 46.745ZM68.4268 49.4574C68.543 50.8524 68.5043 50.9299 67.3805 50.9299C66.2956 50.9299 66.1793 50.8136 66.1793 49.6512C66.1793 48.1012 66.4506 47.7525 67.5355 47.9075C68.1168 47.985 68.3493 48.3724 68.4268 49.4574ZM69.2792 55.7735V58.6796H67.3418H65.4044V55.7735V52.8673H67.3418H69.2792V55.7735ZM49.1298 55.7735V56.7422H45.0612H40.9926V55.7735V54.8048H45.0612H49.1298V55.7735ZM59.592 58.2534C59.592 60.1133 59.3983 62.167 59.2045 62.787C58.817 63.9107 58.7783 63.9107 56.2596 63.7945C44.635 63.1745 40.8376 79.0228 51.4548 83.8276C52.4235 84.2539 53.586 84.6414 54.0897 84.6414C54.7484 84.6414 54.9422 84.8739 54.9422 85.6101C54.9422 86.4626 54.7872 86.5788 53.6635 86.5788C51.9585 86.5788 48.5486 84.8351 46.7662 83.0527C42.9688 79.2553 42.0775 73.5592 44.48 68.5218C45.4099 66.6619 47.9286 63.9495 49.5561 63.097L50.6798 62.5158V58.6796V54.8048H55.1359H59.592V58.2534ZM63.4669 55.7735C63.4669 56.5485 63.2732 56.7422 62.4982 56.7422C61.7232 56.7422 61.5295 56.5485 61.5295 55.7735C61.5295 54.9985 61.7232 54.8048 62.4982 54.8048C63.2732 54.8048 63.4669 54.9985 63.4669 55.7735ZM73.1541 55.7735C73.1541 56.5485 72.9604 56.7422 72.1854 56.7422C71.4104 56.7422 71.2167 56.5485 71.2167 55.7735C71.2167 54.9985 71.4104 54.8048 72.1854 54.8048C72.9604 54.8048 73.1541 54.9985 73.1541 55.7735ZM84.0038 58.6021V62.3995L86.2512 63.9882C92.6448 68.5218 93.4198 77.5503 87.8399 83.1302C86.0187 84.9514 82.8026 86.5788 81.0201 86.5788C79.8964 86.5788 79.7414 86.4626 79.7414 85.6101C79.7414 84.8739 79.9352 84.6414 80.6326 84.6414C81.9114 84.6026 84.43 83.3627 86.135 81.8902C90.5911 77.9766 90.5524 70.4205 86.0575 66.3907C83.8488 64.4145 81.5626 63.6007 78.424 63.7945C75.9053 63.9107 75.8665 63.9107 75.4791 62.787C75.2853 62.167 75.0916 60.1133 75.0916 58.2534V54.8048H79.5477H84.0038V58.6021ZM93.691 55.7735V56.7422H89.6224H85.5538V55.7735V54.8048H89.6224H93.691V55.7735ZM63.4669 59.4546C63.4669 59.8809 63.7382 60.3458 64.0481 60.4621C64.9781 60.8496 64.8231 64.5695 63.8157 65.4607C63.0794 66.1582 62.9632 66.1582 61.9945 65.5382C60.8707 64.8795 60.9095 64.957 61.3745 60.8883C61.607 58.8734 61.7232 58.6796 62.5369 58.6796C63.1957 58.6796 63.4669 58.9121 63.4669 59.4546ZM73.3091 60.8883C73.7741 64.957 73.8129 64.8795 72.6891 65.5382C71.7204 66.1582 71.6042 66.1582 70.8679 65.4607C69.8605 64.5695 69.7055 60.8496 70.6354 60.4621C70.9454 60.3458 71.2167 59.8809 71.2167 59.4546C71.2167 58.9121 71.4879 58.6796 72.1467 58.6796C72.9604 58.6796 73.0766 58.8734 73.3091 60.8883ZM68.5043 62.5545C68.5043 64.4532 68.4655 64.492 67.3418 64.492C66.2181 64.492 66.1793 64.4532 66.1793 62.5545C66.1793 60.6558 66.2181 60.6171 67.3418 60.6171C68.4655 60.6171 68.5043 60.6558 68.5043 62.5545ZM57.8483 65.6932C64.9781 67.6694 66.7218 76.9691 60.7932 81.2315C58.6621 82.7814 56.4921 83.2077 53.8959 82.7039C52.0748 82.3164 51.3773 81.8902 49.6723 80.224C47.9674 78.519 47.5799 77.8216 47.1924 76.0004C46.0687 70.5755 50.0211 65.6544 55.7171 65.3057C56.0271 65.3057 56.9959 65.4607 57.8483 65.6932ZM83.3063 66.7006C90.2036 70.4593 88.5374 80.9602 80.7489 82.7039C74.7428 84.0214 69.0855 78.4028 70.4417 72.4355C71.7592 66.4682 77.8815 63.7557 83.3063 66.7006Z" fill="#1B6B93"/>
<path d="M53.3922 67.863C49.3624 69.3742 47.8512 74.8378 50.4861 78.2477C53.3922 82.0838 59.6308 81.3864 61.7232 77.0465C63.1957 73.9078 61.762 69.6842 58.7008 68.2118C57.3834 67.6305 54.5935 67.4368 53.3922 67.863ZM58.4296 70.2267C58.9721 70.6142 59.7083 71.5829 60.0958 72.3579C61.9557 76.1165 57.6159 80.4176 53.896 78.5577C49.9048 76.5815 49.8661 71.8542 53.8185 69.8005C55.3297 69.0255 56.9571 69.1805 58.4296 70.2267Z" fill="#1B6B93"/>
<path d="M75.9439 68.2119C75.2464 68.5993 74.2002 69.4906 73.619 70.2268C72.7277 71.3893 72.5728 71.9705 72.5728 74.2179C72.5728 77.0466 73.1152 78.2091 75.2464 79.759C76.7576 80.9215 81.175 80.9215 82.6862 79.759C84.5074 78.4028 85.2824 77.0466 85.4761 74.8379C85.6699 72.2417 84.8561 70.3043 82.9574 68.8706C81.2137 67.5531 77.8813 67.2431 75.9439 68.2119ZM81.6787 70.2268C82.2212 70.6143 82.9574 71.583 83.3837 72.3967C84.0037 73.6367 84.0424 74.1017 83.6549 75.3416C82.7637 78.2866 79.6638 79.8365 77.1451 78.5578C73.154 76.5816 73.1152 71.8542 77.0676 69.8006C78.5788 69.0256 80.2063 69.1806 81.6787 70.2268Z" fill="#1B6B93"/>
<path d="M96.5966 63.097C95.9766 63.7945 95.2016 64.4532 94.8917 64.5695C94.5042 64.6857 94.9304 65.3057 96.2091 66.6232C97.5266 67.9406 98.1466 68.3281 98.3016 67.9406C98.3791 67.6307 99.0765 66.8557 99.8128 66.1582L101.13 64.957L99.5415 63.3683C98.6503 62.4771 97.9141 61.7796 97.8753 61.7796C97.7978 61.7796 97.2553 62.3608 96.5966 63.097ZM98.7665 64.1433L99.5803 64.957L98.7278 65.8482L97.9141 66.7394L97.0228 65.887L96.1704 65.0732L96.9453 64.182C97.8753 63.1358 97.7591 63.1358 98.7665 64.1433Z" fill="#1B6B93"/>
<path d="M35.2964 81.9289C35.1802 82.3552 34.754 82.7039 34.3665 82.7039C33.9402 82.7039 33.6302 82.9751 33.6302 83.2851C33.6302 83.5951 33.979 83.8664 34.4052 83.8664C34.909 83.8664 35.1802 84.1376 35.1802 84.6026C35.1802 85.7263 35.9552 86.0363 36.2264 85.0288C36.3427 84.5638 36.8852 84.0214 37.3889 83.8276C38.4351 83.4401 38.2414 82.7039 37.0789 82.7039C36.6139 82.7039 36.3427 82.4327 36.3427 81.9289C36.3427 81.5027 36.1489 81.1539 35.9164 81.1539C35.6839 81.1539 35.4127 81.5027 35.2964 81.9289Z" fill="#1B6B93"/>
<path d="M39.8102 21.7757C39.2477 22.8303 38.0665 24.1329 37.1102 24.7532C34.9727 26.0558 34.9727 27.0483 37.054 28.2889C37.954 28.7852 39.2477 30.1498 39.9227 31.3905C40.5977 32.569 41.329 33.5615 41.4977 33.5615C41.7227 33.4995 42.3977 32.6311 43.0165 31.5145C43.6352 30.46 44.9852 28.9713 45.9415 28.2889C46.954 27.6066 47.7415 26.8622 47.7977 26.6141C47.7977 26.428 46.8977 25.6216 45.829 24.8773C44.704 24.1329 43.4665 22.7062 43.0165 21.7137C41.8915 19.4186 40.9915 19.4186 39.8102 21.7757ZM43.1852 24.8152L44.8165 26.6141L43.1852 28.475L41.4977 30.2739L39.8665 28.413L38.179 26.5521L39.6977 24.8152C40.5415 23.8227 41.329 23.0163 41.3852 23.0163C41.4415 23.0163 42.2852 23.8227 43.1852 24.8152Z" fill="#1B6B93"/>
</svg>
