<svg width="136" height="135" viewBox="0 0 136 135" fill="none" xmlns="http://www.w3.org/2000/svg">
<path d="M81.732 31.578L81.7342 31.5777C82.7399 31.436 84.4542 31.4931 85.5441 31.7082L85.5488 31.7091C90.0916 32.56 93.7455 35.7893 95.2504 40.2894L95.2513 40.2921C95.4837 40.9745 95.5883 41.3147 95.645 41.7586C95.704 42.2204 95.7122 42.8 95.7197 43.9588C95.7197 46.0604 95.674 46.421 95.3968 47.3362C94.0681 51.5655 91.0501 54.8101 85.3995 57.9246L85.3994 57.9247C84.9596 58.1674 84.5306 58.4141 84.1895 58.618C83.8655 58.8117 83.581 58.9899 83.4636 59.0859L83.4545 59.0934L83.4457 59.1013C83.3763 59.1637 83.3176 59.2481 83.2841 59.2972C83.2404 59.3611 83.1905 59.4402 83.1365 59.5295C83.028 59.7088 82.8925 59.9467 82.7399 60.2244C82.4344 60.7804 82.0527 61.5098 81.668 62.2793M81.732 31.578L81.6674 62.2804C81.6676 62.28 81.6678 62.2797 81.668 62.2793M81.732 31.578C80.1679 31.7913 78.1542 32.5989 76.6784 33.597C76.1272 33.974 75.4317 34.6018 74.778 35.2996C74.1235 35.9982 73.5395 36.7365 73.1981 37.3217L73.1982 37.3217L73.194 37.3287C72.8739 37.8575 72.4232 38.885 72.1745 39.6009L72.1585 39.6492C71.9621 40.2456 71.8272 40.655 71.6216 40.9463C71.3945 41.2681 71.0935 41.4324 70.7412 41.6249C70.7262 41.6331 70.7111 41.6413 70.6959 41.6496C70.2888 41.8744 69.746 42.2676 69.5185 42.4952L69.5185 42.4952L69.5131 42.5004L69.003 42.9956L68.7119 43.2781L68.3754 43.0515L67.6421 42.5576C67.6418 42.5575 67.6416 42.5573 67.6413 42.5571C66.7883 41.9887 65.7882 41.7805 64.9874 41.9682L64.9875 41.9682L64.9802 41.9698C64.5239 42.0696 64.225 42.1726 63.9726 42.3147C63.7211 42.4563 63.4872 42.6526 63.1829 42.9782L63.1829 42.9783L63.1779 42.9835C62.8186 43.3569 62.6055 43.65 62.4574 43.9862C62.3064 44.3292 62.2087 44.7493 62.1284 45.3991L62.1285 45.3991L62.1271 45.4085C62.1211 45.4507 62.1151 45.4927 62.1092 45.5342C62.0713 45.8002 62.0359 46.0483 62.0061 46.2385C61.989 46.3476 61.9726 46.4454 61.9577 46.5194C61.9505 46.5547 61.9414 46.5961 61.9303 46.6341C61.9252 46.6515 61.9153 46.6838 61.8992 46.7195C61.8914 46.7369 61.876 46.7689 61.8512 46.8047C61.8385 46.8231 61.8057 46.8692 61.7484 46.9146C61.6439 46.998 61.5365 47.016 61.5053 47.021C61.4528 47.0293 61.4085 47.0282 61.3842 47.027C61.3334 47.0244 61.286 47.016 61.2532 47.0094C61.1832 46.9953 61.1006 46.9729 61.0169 46.948C60.8458 46.8971 60.6251 46.8221 60.3947 46.7375L60.3946 46.7377L60.3835 46.7333C59.9545 46.5643 59.2753 46.4348 58.5522 46.3803C57.8301 46.3259 57.1268 46.351 56.6538 46.4561L56.6538 46.4561L56.6487 46.4572C54.6956 46.8698 52.8264 48.4153 51.7094 50.5906C51.709 50.5914 51.7086 50.5921 51.7082 50.5929L51.0504 51.9087L50.9122 52.1851H50.6032H49.9129C46.8717 52.1851 45.3329 55.8314 47.4811 58.0597C48.1225 58.721 49.11 59.2425 50.1674 59.5201C51.2284 59.7987 52.2873 59.813 53.0639 59.5412L53.0648 59.5409C53.0997 59.5287 53.1341 59.5168 53.1679 59.505C53.3009 59.4587 53.4239 59.4159 53.5205 59.3827C53.5809 59.362 53.6332 59.3442 53.6722 59.3314C53.6912 59.3251 53.7102 59.319 53.7267 59.314C53.7344 59.3117 53.746 59.3083 53.7588 59.305C53.7649 59.3034 53.776 59.3006 53.7897 59.2979C53.7932 59.2972 53.8357 59.288 53.8893 59.288H54.383L54.3893 59.7816L54.3893 59.7817L54.3893 59.7818L54.3893 59.7825L54.3894 59.785L54.3895 59.7951L54.39 59.8348L54.3919 59.9867L54.3987 60.5436C54.4043 61.0126 54.4118 61.6581 54.4193 62.3636L54.4194 62.3665C54.4268 63.8601 54.487 64.8592 54.6627 65.7287C54.8366 66.5895 55.1282 67.345 55.627 68.3426L55.6282 68.345C56.7021 70.5214 58.1627 71.9412 60.4175 72.9896L60.4175 72.9896L60.4219 72.9917C61.975 73.7326 63.3266 74.0102 65.7762 74.0987M81.732 31.578L65.7762 74.0987M81.668 62.2793C79.8342 65.917 78.527 67.8755 76.6742 69.7282C74.3346 72.0678 72.1987 73.2606 69.2877 73.8689L69.2864 73.8692C68.0647 74.1279 67.5083 74.1579 65.7762 74.0987M81.668 62.2793L65.7762 74.0987M86.6183 33.4123L86.6168 33.4118C85.7148 33.127 84.8905 32.9855 83.7863 32.9389L83.7857 32.9389C81.8736 32.8605 80.6216 33.1172 78.8968 33.9482C75.9842 35.3494 73.9343 37.9192 73.2097 41.0524C73.0478 41.7383 72.9466 42.0114 72.819 42.1723C72.7106 42.309 72.5453 42.411 72.0358 42.5833C68.6483 43.7243 68.0513 48.0134 70.9034 50.1777L70.9043 50.1784C71.28 50.4621 71.4357 50.6021 71.5141 50.707C71.5638 50.7735 71.5894 50.8307 71.6076 51.0209C71.6203 51.2036 71.6079 51.2807 71.5916 51.3282C71.5771 51.3705 71.5443 51.4341 71.4251 51.5538C71.2335 51.7389 71.1236 51.7667 71.0321 51.7648C70.9019 51.7621 70.6849 51.6954 70.2894 51.4438C68.4396 50.2561 67.4139 48.1424 67.622 45.8941L67.6223 45.8909C67.6589 45.4668 67.6781 45.1452 67.6345 44.8782C67.5839 44.5687 67.4555 44.3611 67.2991 44.1524L67.2906 44.1412L67.2905 44.1413C66.6996 43.3979 65.7319 43.102 64.8474 43.4801C64.4274 43.6478 64.1039 43.9174 63.8767 44.3289C63.661 44.7196 63.5465 45.2126 63.4765 45.8042C63.2511 47.6745 63.9031 50.2641 65.0518 52.0586C66.1826 53.8419 68.276 55.429 70.335 56.0784L70.3393 56.0797L70.3393 56.0797C70.9232 56.2581 72.0569 56.4583 72.91 56.5203L72.9134 56.5206C73.6156 56.5669 73.9302 56.5991 74.114 56.651C74.1888 56.6722 74.224 56.6923 74.2499 56.7111C74.2828 56.7351 74.3225 56.7725 74.3986 56.8588C74.601 57.0979 74.6148 57.171 74.6171 57.1931C74.6198 57.2209 74.6169 57.3021 74.4671 57.5942L74.4648 57.5987L74.4648 57.5987C74.3513 57.8257 74.3113 57.84 74.2526 57.8609L74.2508 57.8615C74.1065 57.913 73.8334 57.9375 73.1714 57.9375C71.0128 57.9375 68.6239 57.1616 66.8167 55.8564L66.814 55.8545L65.7186 55.0742L65.0124 54.5712L64.9308 55.4344L64.8257 56.5448L64.8251 56.5517L64.8251 56.5517C64.736 57.6577 64.5832 58.3837 64.3832 58.82C64.2855 59.0331 64.1896 59.1476 64.1118 59.208C64.0424 59.2618 63.9686 59.288 63.868 59.288C63.5847 59.288 63.4687 59.2542 63.4091 59.2221C63.3631 59.1973 63.2988 59.1462 63.2019 58.9585L63.1973 58.9496L63.1972 58.9497C63.1349 58.8347 63.1165 58.7762 63.1187 58.6387C63.1217 58.4534 63.1648 58.1719 63.2643 57.6126C63.4457 56.6566 63.502 55.447 63.4541 54.3216C63.4066 53.207 63.2544 52.1116 62.9857 51.4046C62.5792 50.3055 61.9964 49.431 61.2178 48.8106C60.4362 48.1878 59.4887 47.8466 58.3982 47.7652L58.3942 47.7649C57.0413 47.6747 55.8332 48.0296 54.8144 48.8312C53.8052 49.6254 53.014 50.8319 52.4305 52.3956L52.4281 52.4022L52.4281 52.4022C52.3216 52.7006 52.1984 52.9884 52.0874 53.2068C52.0316 53.3168 51.9831 53.4008 51.9454 53.457C51.939 53.4667 51.9334 53.4747 51.9286 53.4812C51.9215 53.4834 51.9128 53.486 51.9022 53.4888C51.8416 53.5049 51.7513 53.522 51.629 53.5373C51.3859 53.5677 51.0553 53.586 50.6632 53.586C49.913 53.586 49.3108 53.6407 48.8572 53.8738C48.3502 54.1344 48.1089 54.5692 47.9613 55.0901L47.9608 55.092C47.8545 55.4726 47.8247 55.8435 47.9493 56.2173C48.0704 56.5806 48.3165 56.882 48.6285 57.1694C49.0558 57.5645 49.4606 57.8458 49.9468 58.0222C50.4268 58.1964 50.949 58.2545 51.5874 58.2623L51.5935 58.2623V58.2623C52.0726 58.2623 52.4267 58.2486 52.7303 58.1809C53.0558 58.1083 53.297 57.98 53.5635 57.8052L53.5684 57.8019L53.5684 57.8019C54.0141 57.5018 54.4401 57.0128 54.8256 56.4227C55.2155 55.826 55.583 55.0964 55.9007 54.2828L55.9012 54.2815C56.1765 53.5702 56.3442 53.238 56.4877 53.0726C56.5463 53.0051 56.5891 52.9806 56.6257 52.9666C56.6701 52.9497 56.7411 52.9354 56.8754 52.9354C57.1167 52.9354 57.2468 52.981 57.3223 53.0303C57.3919 53.0757 57.4659 53.1572 57.5294 53.337L57.5326 53.3462L57.5327 53.3462C57.5585 53.4151 57.5806 53.4958 57.531 53.7471C57.4765 54.0227 57.349 54.4378 57.1071 55.1561C56.1025 58.1091 55.805 59.7703 55.8202 62.4154C55.8203 63.6975 55.8687 64.6125 56.0366 65.4362C56.2063 66.2684 56.493 66.9836 56.9384 67.8745C57.6769 69.3515 59.2259 70.886 60.6752 71.5953C62.3601 72.4375 63.6013 72.6523 66.281 72.6675L66.2839 72.6675C68.2743 72.6675 68.8448 72.6233 69.9213 72.3021C74.4094 70.999 77.2556 68.0281 80.5511 61.4372C80.9309 60.6776 81.325 59.9303 81.6547 59.3395C81.8196 59.0439 81.9668 58.7904 82.0869 58.5954C82.2144 58.3885 82.2923 58.2791 82.3222 58.2457C82.4025 58.156 82.645 57.9621 83.0175 57.7125C83.3735 57.474 83.8056 57.2125 84.2256 56.988C84.2257 56.988 84.2259 56.9879 84.226 56.9878L83.9903 56.5468C89.1672 53.7858 92.1533 50.8448 93.3987 47.3035L86.6183 33.4123ZM86.6183 33.4123C90.3572 34.6062 93.3222 37.8359 94.1717 41.6271L94.1721 41.6289C94.3643 42.5018 94.4248 43.5725 94.3726 44.6071C94.3205 45.6392 94.1543 46.6739 93.87 47.4705L86.6183 33.4123Z" fill="#1B6B93" stroke="#1B6B93"/>
<path d="M34.8487 55.2228L34.845 55.2239C34.078 55.461 33.6988 55.6823 33.2691 56.086L33.2691 56.086L33.264 56.0907L33.26 56.0943C33.027 56.3072 32.9307 56.3953 32.8562 56.5211C32.7868 56.6385 32.7184 56.8259 32.6693 57.2463C32.5713 58.0865 32.5714 59.6154 32.5714 62.785L32.5714 63.0442V69.0638L35.367 75.5868C35.367 75.5868 35.367 75.5869 35.367 75.5869C38.5059 82.9058 38.655 83.2127 39.2672 84.0198L39.2677 84.0203C40.1051 85.1274 40.5846 85.5497 44.8791 88.91L44.8803 88.9109L49.1869 92.3022L49.3775 92.4523V92.695V97.4817V102.055L49.5989 102.268L49.6054 102.274L49.6116 102.281C49.7661 102.44 49.9324 102.5 50.078 102.5C50.2235 102.5 50.3899 102.44 50.5443 102.281L50.5506 102.274L50.557 102.268L50.7784 102.055V97.0466C50.7784 94.8148 50.7708 93.5056 50.7394 92.7206C50.7237 92.3264 50.7025 92.0836 50.6773 91.93C50.6639 91.8477 50.6513 91.8052 50.645 91.7872C50.6345 91.7767 50.6131 91.7554 50.5755 91.7206C50.5076 91.6578 50.4113 91.5726 50.2878 91.4663C50.0414 91.2542 49.698 90.9679 49.2811 90.6267C48.448 89.9448 47.3293 89.0506 46.1235 88.1069L46.1227 88.1063C41.8721 84.7655 41.0058 84.0254 40.1896 82.8897C40.1355 82.8153 40.0723 82.6968 40.0141 82.5835C39.9475 82.4537 39.8643 82.2838 39.7673 82.0804C39.5732 81.6731 39.3188 81.1209 39.0228 80.4649C38.4304 79.1522 37.6675 77.4161 36.8788 75.5757L36.8787 75.5755L34.0127 68.8831L33.9723 68.7888V68.6863V63.0292V57.3722V57.0425L34.2753 56.9126L34.8005 56.6875L34.8044 56.6859C35.558 56.3704 36.3908 56.3522 37.0718 56.7024L37.073 56.703C37.854 57.1073 38.4009 57.8153 38.7966 58.8652C39.1878 59.9031 39.4478 61.3175 39.6365 63.2045L39.6367 63.2069C39.681 63.6715 39.7361 64.1157 39.7888 64.4573C39.8153 64.6287 39.8403 64.7694 39.8622 64.8718C39.8732 64.9234 39.8823 64.96 39.889 64.9835C39.8894 64.9849 39.8898 64.9862 39.8902 64.9874C39.9273 65.0467 40.025 65.1317 40.194 65.1802C40.3706 65.2308 40.5371 65.2149 40.641 65.1629L40.6409 65.1628L40.6536 65.1569C40.8337 65.073 40.9146 65.0057 40.964 64.9373C41.0139 64.8684 41.0696 64.7455 41.0946 64.4824C41.1477 63.9255 41.0482 62.9798 40.7903 61.2274C40.5106 59.3882 40.0457 57.9943 39.4377 57.0408C38.4067 55.4268 36.5022 54.6978 34.8487 55.2228ZM39.8946 65.0014C39.8947 65.0015 39.8944 65.0007 39.8938 64.9991C39.8943 65.0006 39.8946 65.0014 39.8946 65.0014Z" fill="#1B6B93" stroke="#1B6B93"/>
<path d="M98.9253 55.2766L98.9226 55.2775C97.654 55.7268 96.6924 56.7353 96.0247 58.4109C95.7256 59.1767 95.4279 60.6442 95.2469 62.0376C95.1573 62.7278 95.0987 63.3818 95.0823 63.9006C95.074 64.1606 95.0767 64.3782 95.0895 64.5454C95.0959 64.6288 95.1044 64.6935 95.1136 64.741C95.1207 64.7779 95.1265 64.7954 95.1278 64.7993C95.311 65.1661 95.6707 65.2908 95.968 65.1782C96.0493 65.1418 96.1396 65.0884 96.2124 65.0338C96.2442 65.01 96.2673 64.9898 96.2823 64.9752C96.2888 64.9517 96.297 64.9176 96.3068 64.8718C96.3287 64.7694 96.3538 64.6287 96.3802 64.4573C96.4329 64.1157 96.488 63.6715 96.5323 63.2069L96.5325 63.2045C96.7212 61.3175 96.9812 59.9031 97.3725 58.8652C97.7679 57.8161 98.3142 57.1084 99.0943 56.704C99.7976 56.3336 100.655 56.3707 101.4 56.7251C101.401 56.7253 101.401 56.7255 101.402 56.7257L101.91 56.9648L102.197 57.0999V57.4172V63.0442V68.6863V68.7888L102.156 68.8831L99.2903 75.5755L99.2903 75.5757C98.5011 77.417 97.7229 79.1727 97.1076 80.5162C96.8001 81.1876 96.5324 81.7582 96.3238 82.1858C96.1258 82.5915 95.9587 82.9168 95.8602 83.0535L95.8581 83.0565C95.0719 84.1315 94.2068 84.8706 89.7307 88.3768C88.6142 89.2536 87.5701 90.0844 86.791 90.7177C86.401 91.0347 86.0797 91.3005 85.8496 91.497C85.7341 91.5956 85.6448 91.6742 85.5823 91.7317C85.5571 91.7549 85.5384 91.7728 85.5252 91.7858C85.5189 91.8047 85.5059 91.8495 85.492 91.9365C85.4666 92.0958 85.4454 92.345 85.4296 92.7429C85.3982 93.5356 85.3906 94.845 85.3906 97.0466V102.055L85.612 102.268L85.6185 102.274L85.6247 102.281C85.7792 102.44 85.9455 102.5 86.0911 102.5C86.2366 102.5 86.403 102.44 86.5574 102.281L86.5636 102.274L86.5701 102.268L86.7915 102.055V97.4817V92.695V92.4518L86.9828 92.3017L91.3044 88.9104L91.3051 88.9098C95.5776 85.5701 96.0491 85.1281 96.9028 84.0184C97.5142 83.2123 97.6649 82.9019 100.802 75.5869C100.802 75.5869 100.802 75.5868 100.802 75.5868L103.598 69.0638V63.0442C103.598 60.552 103.586 59.0109 103.555 58.0526C103.539 57.5725 103.518 57.2502 103.493 57.0326C103.468 56.816 103.443 56.7477 103.441 56.741C103.12 56.129 102.424 55.6056 101.551 55.3142C100.681 55.0237 99.7149 54.9918 98.9253 55.2766ZM96.2978 64.9586C96.2978 64.9586 96.2972 64.9594 96.296 64.9608C96.2973 64.9594 96.2979 64.9586 96.2978 64.9586ZM96.2744 65.0014C96.2744 65.0014 96.2747 65.0007 96.2752 64.9992C96.2746 65.0007 96.2744 65.0015 96.2744 65.0014ZM85.5066 91.8051C85.5066 91.8051 85.5073 91.8044 85.5085 91.803C85.5071 91.8044 85.5065 91.8052 85.5066 91.8051Z" fill="#1B6B93" stroke="#1B6B93"/>
<path d="M51.2935 74.7484C49.5078 72.9928 47.7222 71.3272 47.317 71.0421L51.2935 74.7484ZM51.2935 74.7484C54.4296 77.8396 54.5647 77.9596 55.405 78.1697M51.2935 74.7484L55.405 78.1697M55.405 78.1697C55.8851 78.3047 56.7255 78.6349 57.2807 78.935C59.9666 80.3455 61.8273 82.5963 62.8477 85.6724C63.191 86.7024 63.1928 86.8563 63.2814 94.4502L63.2828 94.5707M55.405 78.1697L63.2828 94.5707M63.2828 94.5707L63.3579 102.434L63.718 102.719M63.2828 94.5707L63.718 102.719M63.718 102.719C64.2132 103.124 64.8734 103.079 65.3236 102.629L65.6987 102.253L65.6537 94.3306L65.5937 86.4227L65.1885 85.1022C63.823 80.6906 60.7919 77.4944 56.5304 75.9939M63.718 102.719L56.5304 75.9939M56.5304 75.9939C55.6151 75.6638 55.375 75.4687 52.3289 72.4676L56.5304 75.9939ZM42.4399 68.4081L42.4372 68.409C41.6915 68.6645 40.9194 69.123 40.3386 69.6111C40.0486 69.8547 39.8199 70.0945 39.6682 70.306C39.5471 70.4746 39.4985 70.5926 39.4817 70.6606C39.5045 70.699 39.5433 70.7571 39.6065 70.84C39.7603 71.0416 40.0193 71.3406 40.4317 71.7838C41.2536 72.667 42.6427 74.0787 44.9096 76.3456C46.4382 77.8742 47.8685 79.2745 48.94 80.2992C49.4761 80.812 49.9203 81.2287 50.2412 81.5198C50.4022 81.6658 50.5285 81.777 50.6183 81.8518C50.6395 81.8695 50.6575 81.8842 50.6726 81.8963C50.9702 81.916 51.3514 81.6401 51.3775 81.1933C51.369 81.1743 51.3473 81.1315 51.2965 81.0577C51.1884 80.9008 50.9915 80.6626 50.6421 80.2824C49.9475 79.5266 48.7143 78.2784 46.5583 76.1224L46.5578 76.1219C46.2951 75.8584 46.0455 75.6083 45.8085 75.3709C44.8329 74.3934 44.0718 73.6308 43.492 73.0341C42.7793 72.3007 42.3117 71.7894 42.055 71.4226C41.9298 71.2437 41.8169 71.0479 41.7769 70.8427C41.728 70.592 41.7929 70.3493 41.9734 70.1649C42.1141 70.021 42.2984 69.9435 42.4223 69.8961C42.5025 69.8654 42.6053 69.8309 42.704 69.7979C42.7591 69.7794 42.8129 69.7614 42.8608 69.7447L42.861 69.7446C44.3856 69.2136 46.0206 69.5609 47.5973 70.628L47.5973 70.6279L47.6048 70.6332C47.8423 70.8003 48.4196 71.3172 49.1285 71.9781C49.8524 72.653 50.7485 73.5114 51.644 74.3919L51.6445 74.3923C53.2217 75.947 54.02 76.7298 54.5304 77.1555C54.7801 77.3637 54.9399 77.4682 55.071 77.5332C55.2002 77.5971 55.3225 77.6337 55.5262 77.6846L55.5333 77.6864L55.5403 77.6884C56.0543 77.8329 56.9273 78.176 57.5158 78.4937C60.323 79.9688 62.2644 82.326 63.3221 85.5146C63.5108 86.0807 63.604 86.4229 63.6603 87.5935C63.7146 88.7218 63.7373 90.6651 63.7811 94.4201L63.7828 94.5648L63.7828 94.5659L63.8556 102.19L64.0283 102.327L64.0284 102.327L64.0346 102.332C64.3243 102.569 64.6953 102.55 64.97 102.275L65.1975 102.048L65.1537 94.3344L65.1537 94.3334L65.0942 86.4995L64.7109 85.2501C64.7108 85.2498 64.7107 85.2495 64.7107 85.2493C63.3904 80.9846 60.4719 77.9118 56.3643 76.4655L56.3643 76.4655L56.3608 76.4642C55.8546 76.2817 55.5129 76.1228 54.9076 75.6156C54.333 75.1343 53.4941 74.3176 51.9779 72.8238L51.9777 72.8235C48.6119 69.5028 47.7853 68.909 46.2136 68.3803C45.0569 67.9947 43.6249 67.9947 42.4399 68.4081ZM39.4588 70.6169C39.4587 70.6169 39.4592 70.6184 39.4607 70.6218C39.4596 70.6186 39.4588 70.6169 39.4588 70.6169Z" fill="#1B6B93" stroke="#1B6B93"/>
<path d="M84.2515 72.7785C82.7231 74.292 81.9077 75.0967 81.3349 75.5721C80.726 76.0774 80.3636 76.2323 79.7741 76.4602L79.773 76.4607C78.1306 77.0912 77.3632 77.5045 76.0853 78.4775L76.0828 78.4793C73.8783 80.1363 72.3455 82.3703 71.4585 85.2492C71.4585 85.2493 71.4585 85.2494 71.4585 85.2494L71.0749 86.4995L71.0155 94.3334L71.0155 94.3344L70.9716 102.048L71.1991 102.275C71.4739 102.55 71.8449 102.569 72.1346 102.332L72.1345 102.332L72.1408 102.327L72.3136 102.19L72.3864 94.5659L72.3864 94.5648L72.3881 94.4202C72.4319 90.6652 72.4546 88.7219 72.5088 87.5935C72.5651 86.4231 72.6583 86.0808 72.847 85.5148C74.2137 81.399 77.316 78.4274 81.2296 77.5375C81.2361 77.5341 81.2475 77.528 81.2642 77.518C81.3092 77.4909 81.3734 77.447 81.4602 77.381C81.6334 77.2491 81.8701 77.0492 82.1812 76.7686C82.8021 76.2087 83.6916 75.353 84.9134 74.1387L84.9143 74.1378C86.9422 72.1323 88.1382 70.9902 89.0705 70.3581C89.5493 70.0336 89.9748 69.8312 90.4225 69.7135C90.8648 69.5972 91.3034 69.5706 91.7892 69.5667H91.7932C92.245 69.5667 92.6 69.5853 92.9198 69.6497C93.2488 69.716 93.5203 69.8264 93.8139 69.9855L94.4707 70.3289L95.0798 70.6473L94.5894 71.1288L89.6086 76.0196C89.6084 76.0197 89.6083 76.0198 89.6082 76.02C87.262 78.3361 86.0288 79.5585 85.3812 80.265C85.054 80.6221 84.9043 80.818 84.8346 80.9384C84.7879 81.0191 84.7888 81.0418 84.79 81.0735C84.7901 81.0758 84.7902 81.0782 84.7903 81.0806L84.7905 81.0882V81.0958C84.7905 81.5105 84.9581 81.7328 85.1186 81.8248C85.2758 81.9149 85.5357 81.943 85.8637 81.7417C85.8642 81.7412 85.8665 81.7393 85.8709 81.7357C85.8865 81.7228 85.9281 81.6884 86.0056 81.6193C86.1027 81.5328 86.2336 81.4125 86.3954 81.2611C86.7185 80.9586 87.1574 80.5389 87.6807 80.0315C88.7268 79.0172 90.1051 77.6576 91.5588 76.1965L91.5592 76.1961C94.0551 73.6926 95.3642 72.372 96.0517 71.6125C96.3987 71.2291 96.5613 71.0165 96.6391 70.8837C96.6954 70.7877 96.6953 70.7574 96.6952 70.7178C96.6952 70.7159 96.6952 70.7139 96.6952 70.712C96.6952 70.5383 96.6758 70.4815 96.6264 70.4046C96.5494 70.2848 96.3938 70.1211 96.0335 69.7915C95.6004 69.4005 94.8155 68.8588 94.3187 68.6098C93.8751 68.3955 93.6328 68.2953 93.3514 68.2357C93.0583 68.1735 92.7013 68.1508 92.0222 68.1358L92.0159 68.1356C91.3707 68.113 90.9933 68.1149 90.6857 68.1527C90.3912 68.189 90.1445 68.2602 89.766 68.403C88.2865 68.9755 87.5133 69.5618 84.2515 72.7785ZM84.2515 72.7785C84.2517 72.7783 84.252 72.7781 84.2522 72.7779L83.9003 72.4226L84.2514 72.7786C84.2515 72.7786 84.2515 72.7785 84.2515 72.7785Z" fill="#1B6B93" stroke="#1B6B93"/>
<path d="M20.0799 32.7757C19.5568 33.8303 18.4582 35.1329 17.5689 35.7532C15.581 37.0558 15.581 38.0483 17.5166 39.2889C18.3536 39.7852 19.5568 41.1498 20.1845 42.3905C20.8123 43.569 21.4924 44.5615 21.6493 44.5615C21.8585 44.4995 22.4863 43.6311 23.0617 42.5145C23.6372 41.46 24.8927 39.9713 25.782 39.2889C26.7236 38.6066 27.456 37.8622 27.5083 37.6141C27.5083 37.428 26.6713 36.6216 25.6774 35.8773C24.6311 35.1329 23.4802 33.7062 23.0617 32.7137C22.0155 30.4186 21.1785 30.4186 20.0799 32.7757ZM23.2187 35.8152L24.7357 37.6141L23.2187 39.475L21.6493 41.2739L20.1322 39.413L18.5629 37.5521L19.9753 35.8152C20.76 34.8227 21.4924 34.0163 21.5447 34.0163C21.597 34.0163 22.3817 34.8227 23.2187 35.8152Z" fill="#1B6B93"/>
<path d="M101.98 102.012C101.698 101.71 101.536 101.35 101.456 100.975C101.376 101.35 101.213 101.71 100.931 102.012C100.612 102.355 100.212 102.543 99.7927 102.624C100.524 102.934 101.138 103.557 101.478 104.281C101.564 103.939 101.722 103.613 101.98 103.337C102.431 102.854 103.042 102.677 103.639 102.677C103.655 102.677 103.671 102.676 103.686 102.674C103.671 102.673 103.655 102.672 103.639 102.672C103.042 102.672 102.431 102.495 101.98 102.012ZM101.921 105.365C101.921 105.365 101.921 105.364 101.92 105.364L101.921 105.365ZM103.909 102.581C103.909 102.581 103.909 102.582 103.908 102.583C103.909 102.582 103.91 102.581 103.909 102.581ZM103.908 102.766C103.909 102.767 103.909 102.768 103.909 102.768C103.91 102.768 103.909 102.767 103.908 102.766ZM101.274 99.9453C101.274 99.9454 101.276 99.9467 101.278 99.9487C101.276 99.9462 101.274 99.9452 101.274 99.9453ZM101.634 99.9487C101.636 99.9467 101.637 99.9454 101.637 99.9453C101.637 99.9452 101.636 99.9462 101.634 99.9487Z" stroke="#1B6B93" stroke-width="2"/>
</svg>
