<svg width="80" height="80" viewBox="0 0 80 80" fill="none" xmlns="http://www.w3.org/2000/svg">
<mask id="mask0_1402_12343" style="mask-type:luminance" maskUnits="userSpaceOnUse" x="10" y="8" width="60" height="64">
<path d="M69.7777 8.39502H10.2226V71.6049H69.7777V8.39502Z" fill="white"/>
</mask>
<g mask="url(#mask0_1402_12343)">
<path d="M61.5078 68.3196L36.9074 69.7253C36.8028 68.0468 36.3447 65.3034 34.3661 63.1434C33.6395 62.2585 32.6638 61.6118 31.5651 61.2876L31.5495 61.283L31.5337 61.2789C29.8057 60.8296 28.2585 61.536 27.3465 61.9524C27.2231 62.0087 27.1114 62.0597 27.0123 62.1019C25.2055 62.8633 22.9111 63.0517 20.9578 62.7646C19.9855 62.6217 19.1455 62.3677 18.5208 62.0448C17.8824 61.7149 17.5769 61.3716 17.4699 61.1058C17.4196 60.9736 17.3687 60.7167 17.3436 60.3239C17.3195 59.9456 17.3229 59.51 17.3429 59.0655C17.3827 58.1776 17.4851 57.3224 17.5316 56.9347L61.5078 68.3196ZM61.5078 68.3196C60.0001 65.2236 58.8996 61.9429 58.2354 58.5595L58.2348 58.556C57.6519 55.53 57.6884 53.6262 58.2657 51.8501L58.2703 51.836L58.2753 51.822C58.9619 49.9052 60.1033 48.1841 61.6014 46.8061C64.3901 43.5571 66.4261 39.7313 67.563 35.6028C68.4999 32.0806 67.8032 28.5303 66.7232 25.6591C65.646 22.7952 64.2225 20.7009 63.8308 20.1444L63.8293 20.1423C57.5273 11.1406 44.7048 8.42876 34.6537 11.2208L34.6529 11.221C34.5109 11.2603 34.3554 11.3025 34.1877 11.348C32.5378 11.7958 29.702 12.5653 26.8337 14.0933C23.6807 15.773 20.5859 18.3199 19.0234 22.2578C17.9681 25.0513 17.7161 28.0846 18.2958 31.0141L18.2971 31.0207L18.2971 31.0207C18.4675 31.9137 18.4675 32.8307 18.2971 33.7236L18.2941 33.7392L18.2906 33.7546C17.9991 35.0563 17.3946 36.2672 16.5294 37.2823C15.7949 38.1743 14.9762 38.9936 14.0843 39.7285C13.6432 40.1187 13.2887 40.4189 13.0044 40.6578C12.9611 40.6943 12.9199 40.7289 12.8806 40.7619C12.6532 40.9529 12.4915 41.0886 12.3629 41.205C12.1397 41.407 12.1019 41.472 12.074 41.555C11.9945 41.9326 12.0017 42.3232 12.0953 42.6976C12.1921 43.0848 12.3785 43.4437 12.6394 43.7454L12.6471 43.7543L12.6545 43.7633C13.0373 44.2274 13.4686 44.4148 14.0532 44.6688L14.0956 44.6872L14.1114 44.6941C14.6751 44.9391 15.5623 45.3247 15.9326 46.4026L15.9422 46.4303L15.95 46.4586C16.1409 47.1421 16.1409 47.8648 15.9501 48.5483L15.9476 48.5571L15.945 48.5659C15.7715 49.146 15.4934 49.5214 15.3223 49.7524L15.3097 49.7695C15.2893 49.7971 15.2721 49.8209 15.2577 49.8412C15.259 49.8428 15.2603 49.8443 15.2617 49.8459C15.3765 49.9757 15.6433 50.2002 16.2166 50.4921L18.0408 51.4209L16.1869 52.2889C16.166 52.2987 16.146 52.3084 16.1271 52.3181C16.1598 52.3519 16.1981 52.3908 16.243 52.4357C16.2616 52.4542 16.281 52.4735 16.3012 52.4936C16.6293 52.8198 17.1567 53.3442 17.4664 54.1136L17.4666 54.114C17.8102 54.9685 17.7015 55.7266 17.5921 56.4894C17.5708 56.6374 17.5496 56.7855 17.5316 56.9346L61.5078 68.3196ZM15.1999 49.7618C15.1999 49.7618 15.2004 49.7627 15.201 49.7645C15.2002 49.7627 15.1998 49.7618 15.1999 49.7618Z" stroke="#1B6B93" stroke-width="2" stroke-miterlimit="10"/>
<path d="M25.989 24.8219L25.6206 25.0621C24.3767 25.8731 23.4258 27.0618 22.9077 28.4532L22.9072 28.4547C22.4825 29.5898 22.3834 30.8208 22.6211 32.0091L22.6211 32.0092C22.8564 33.1858 23.4126 34.2741 24.2278 35.1541C25.3032 36.1377 26.6746 36.7373 28.1277 36.8583L28.1277 36.8583C29.5927 36.9804 31.0563 36.6091 32.2859 35.8034L32.9569 35.3637L33.5317 35.9235C34.2841 36.6562 35.2593 37.1171 36.303 37.233C37.3468 37.349 38.3994 37.1135 39.2943 36.5638L39.5783 36.3893L39.9103 36.4202C40.4556 36.4709 41.4099 36.6011 42.4131 36.9854C43.4156 37.3695 44.5313 38.0325 45.3045 39.1875L45.3191 39.2093L45.3325 39.2318C45.9827 40.3229 46.3014 41.5791 46.2503 42.8474C46.3341 44.7594 46.3854 47.2956 46.2868 50.3832H51.4012C51.6893 49.138 52.2229 47.9597 52.9739 46.9184L52.9752 46.9166C53.8787 45.6699 54.7886 45.1361 55.5881 44.6763L55.617 44.6596C56.3579 44.2335 56.9772 43.8773 57.6511 43.01L57.6518 43.0092C58.2381 42.2562 58.3404 41.8091 58.4957 41.1298L58.5077 41.0772C58.6954 40.2581 58.9411 39.262 59.9158 37.6697L59.9167 37.6683C60.4233 36.8439 60.8852 36.2599 61.2306 35.8233C61.3337 35.6929 61.4264 35.5757 61.5069 35.4691C61.8396 35.0282 62.0165 34.715 62.1098 34.1492L62.1104 34.1455C62.1806 33.7299 62.1517 33.4954 62.0313 33.0683C61.9959 32.9431 61.9488 32.7914 61.893 32.6118C61.7505 32.153 61.5514 31.5122 61.3482 30.6655L61.3479 30.6644C60.9094 28.8281 60.7943 27.4986 60.7096 26.5197C60.6946 26.3456 60.6805 26.1827 60.6657 26.0299C60.5708 25.0501 60.4568 24.6106 60.0303 24.1232C59.3741 23.4345 58.4969 22.9981 57.5515 22.8902L56.7515 22.7989L56.6699 21.9979C56.6056 21.3661 56.4029 20.7563 56.0762 20.2116C55.7528 19.6727 55.3159 19.2108 54.7959 18.8581C54.1407 18.4593 53.3883 18.2483 52.621 18.2483C51.8471 18.2483 51.0883 18.463 50.4291 18.8685L49.6418 19.3528L49.0972 18.6059C48.7182 18.0861 48.2386 17.6477 47.687 17.3167C47.1398 16.9884 46.5326 16.7724 45.9011 16.6813C45.2074 16.6075 44.5059 16.6834 43.8439 16.904L25.989 24.8219ZM25.989 24.8219L26.0609 24.388M25.989 24.8219L26.0609 24.388M26.0609 24.388C26.1955 23.5762 26.5012 22.8022 26.9577 22.1175C27.4113 21.4371 28.0036 20.8602 28.6957 20.4247C29.8859 19.7341 31.2877 19.5023 32.6372 19.7732L33.2273 19.8916M26.0609 24.388L33.2273 19.8916M41.5106 18.4789L40.8677 18.1058C39.6983 17.4272 38.3254 17.1873 36.995 17.4291L41.5106 18.4789ZM41.5106 18.4789L42.0532 17.9707M41.5106 18.4789L42.0532 17.9707M42.0532 17.9707C42.5662 17.4902 43.177 17.1264 43.8438 16.904L42.0532 17.9707ZM33.2273 19.8916L33.6082 19.4257M33.2273 19.8916L33.6082 19.4257M33.6082 19.4257C34.464 18.3789 35.6646 17.6711 36.995 17.4292L33.6082 19.4257Z" stroke="#1B6B93" stroke-width="2" stroke-miterlimit="10"/>
<mask id="path-4-inside-1_1402_12343" fill="white">
<path d="M32.834 30.4322C33.3026 29.8684 33.8221 29.3489 34.3859 28.8803C35.1226 28.3063 35.9006 27.7876 36.7138 27.3284C39.0417 25.823 38.6847 25.3884 39.8176 25.0005C40.5984 24.7423 41.4302 24.678 42.2414 24.8132C43.0526 24.9484 43.8186 25.279 44.4734 25.7764C45.1485 26.3429 45.1485 26.7618 46.0253 27.3284C46.7349 27.7546 47.5297 28.0196 48.3532 28.1043C50.1379 28.3682 50.394 27.8483 51.4571 28.1043C53.5211 28.5932 54.4833 31.0142 54.5609 31.2082C54.9991 32.4643 54.9991 33.8318 54.5609 35.088C54.1948 35.9547 53.6683 36.7445 53.009 37.4159C51.9382 38.6807 51.4571 38.8048 50.6811 39.7438C49.9484 40.6558 49.4192 41.7141 49.1292 42.8476V51.3832"/>
</mask>
<path d="M31.296 29.1537C30.5899 30.0031 30.7061 31.2641 31.5555 31.9702C32.4049 32.6763 33.6659 32.5601 34.372 31.7107L31.296 29.1537ZM34.3859 28.8803L33.1567 27.3025L33.1317 27.322L33.1074 27.3423L34.3859 28.8803ZM36.7138 27.3284L37.6973 29.0698L37.7495 29.0403L37.7998 29.0078L36.7138 27.3284ZM39.8176 25.0005L39.1897 23.1016L39.1797 23.1049L39.1696 23.1083L39.8176 25.0005ZM44.4734 25.7764L45.7591 24.2444L45.7218 24.2131L45.6831 24.1837L44.4734 25.7764ZM46.0253 27.3284L44.9399 29.0082L44.9674 29.026L44.9954 29.0428L46.0253 27.3284ZM48.3532 28.1043L48.6458 26.1258L48.6018 26.1193L48.5577 26.1148L48.3532 28.1043ZM51.4571 28.1043L50.9889 30.0487L50.9961 30.0504L51.4571 28.1043ZM54.5609 31.2082L56.4493 30.5494L56.4344 30.5069L56.4177 30.4651L54.5609 31.2082ZM54.5609 35.088L56.4033 35.8662L56.4282 35.8072L56.4493 35.7467L54.5609 35.088ZM53.009 37.4159L51.5819 36.0146L51.5302 36.0673L51.4826 36.1236L53.009 37.4159ZM50.6811 39.7438L49.1394 38.4697L49.1306 38.4803L49.122 38.4911L50.6811 39.7438ZM49.1292 42.8476L47.1916 42.3519L47.1292 42.5958V42.8476H49.1292ZM47.1292 51.3832C47.1292 52.4878 48.0246 53.3832 49.1292 53.3832C50.2338 53.3832 51.1292 52.4878 51.1292 51.3832H47.1292ZM34.372 31.7107C34.7623 31.2412 35.1949 30.8085 35.6644 30.4183L33.1074 27.3423C32.4494 27.8893 31.843 28.4956 31.296 29.1537L34.372 31.7107ZM35.615 30.458C36.274 29.9446 36.97 29.4806 37.6973 29.0698L35.7302 25.5869C34.8313 26.0946 33.9711 26.6681 33.1567 27.3025L35.615 30.458ZM37.7998 29.0078C39.1081 28.1618 39.7106 27.5794 40.132 27.1556C40.2297 27.0574 40.2771 27.0094 40.322 26.9672C40.3589 26.9325 40.3688 26.9261 40.3639 26.9297C40.3328 26.9524 40.334 26.9376 40.4656 26.8926L39.1696 23.1083C38.7348 23.2573 38.3558 23.4423 38.0002 23.7027C37.6852 23.9335 37.4322 24.1978 37.2956 24.3352C37.0304 24.6019 36.6474 24.9896 35.6277 25.6489L37.7998 29.0078ZM40.4454 26.8994C40.9182 26.7431 41.4217 26.7042 41.9126 26.786L42.5702 22.8404C41.4388 22.6518 40.2787 22.7415 39.1897 23.1016L40.4454 26.8994ZM41.9126 26.786C42.4036 26.8678 42.8673 27.0679 43.2637 27.369L45.6831 24.1837C44.7699 23.49 43.7015 23.029 42.5702 22.8404L41.9126 26.786ZM43.1877 27.3084C43.3286 27.4266 43.3508 27.4701 43.6023 27.7896C43.8906 28.1558 44.2665 28.5732 44.9399 29.0082L47.1107 25.6485C46.9072 25.517 46.8447 25.4417 46.745 25.3151C46.6086 25.1419 46.2932 24.6927 45.7591 24.2444L43.1877 27.3084ZM44.9954 29.0428C45.9565 29.6201 47.033 29.9791 48.1487 30.0938L48.5577 26.1148C48.0264 26.0601 47.5134 25.8891 47.0552 25.6139L44.9954 29.0428ZM48.0606 30.0828C49.2077 30.2524 49.9287 30.1693 50.4816 30.0837C50.9179 30.0162 50.8855 30.0238 50.9889 30.0487L51.9253 26.1599C50.9655 25.9287 50.2736 26.0683 49.8699 26.1308C49.5828 26.1752 49.2834 26.2201 48.6458 26.1258L48.0606 30.0828ZM50.9961 30.0504C51.3707 30.1391 51.7673 30.4416 52.1431 30.9523C52.5011 31.4387 52.6865 31.9074 52.7041 31.9513L56.4177 30.4651C56.3577 30.315 56.0232 29.4762 55.3647 28.5814C54.724 27.7108 53.6075 26.5583 51.9181 26.1581L50.9961 30.0504ZM52.6725 31.867C52.9619 32.6965 52.9619 33.5996 52.6725 34.4292L56.4493 35.7467C57.0363 34.064 57.0363 32.2321 56.4493 30.5494L52.6725 31.867ZM52.7185 34.3097C52.4504 34.9445 52.0648 35.5228 51.5819 36.0146L54.4361 38.8171C55.2717 37.9661 55.9391 36.965 56.4033 35.8662L52.7185 34.3097ZM51.4826 36.1236C51.0373 36.6495 50.7313 36.9229 50.4192 37.1953C50.075 37.4958 49.6442 37.8589 49.1394 38.4697L52.2227 41.0179C52.494 40.6897 52.6918 40.5212 53.0497 40.2087C53.4399 39.8681 53.9098 39.4471 54.5354 38.7082L51.4826 36.1236ZM49.122 38.4911C48.2105 39.6256 47.5523 40.942 47.1916 42.3519L51.0668 43.3433C51.286 42.4863 51.6862 41.686 52.2402 40.9964L49.122 38.4911ZM47.1292 42.8476V51.3832H51.1292V42.8476H47.1292Z" fill="#1B6B93" mask="url(#path-4-inside-1_1402_12343)"/>
<mask id="path-6-inside-2_1402_12343" fill="white">
<path d="M26.6264 32.7601C26.6306 32.4596 26.7025 32.164 26.8368 31.8953C26.9712 31.6265 27.1645 31.3917 27.4024 31.2081C28.3569 30.5951 29.5518 31.6271 31.2822 31.2081C31.8488 31.0628 32.3779 30.7982 32.8341 30.4321C32.6252 29.5567 32.1301 28.776 31.4273 28.2139C30.7246 27.6516 29.8543 27.34 28.9543 27.3282"/>
</mask>
<path d="M24.6266 32.7324C24.6113 33.8369 25.4943 34.7446 26.5988 34.7599C27.7033 34.7751 28.611 33.8921 28.6262 32.7877L24.6266 32.7324ZM26.8368 31.8953L25.0481 31.0006L25.0478 31.0011L26.8368 31.8953ZM27.4024 31.2081L26.3216 29.5254L26.2491 29.5719L26.1809 29.6245L27.4024 31.2081ZM31.2822 31.2081L31.7529 33.152L31.7661 33.1488L31.7793 33.1454L31.2822 31.2081ZM32.8341 30.4321L34.0857 31.9921L35.0734 31.1997L34.7795 29.968L32.8341 30.4321ZM31.4273 28.2139L30.1778 29.7755L30.178 29.7757L31.4273 28.2139ZM28.9804 25.3284C27.8759 25.314 26.9689 26.1977 26.9545 27.3021C26.9401 28.4066 27.8237 29.3137 28.9282 29.3281L28.9804 25.3284ZM28.6262 32.7877C28.6262 32.7882 28.6261 32.7888 28.6258 32.7894L25.0478 31.0011C24.7788 31.5392 24.6349 32.1311 24.6266 32.7324L28.6262 32.7877ZM28.6255 32.79C28.6253 32.7904 28.6248 32.7911 28.6239 32.7918L26.1809 29.6245C25.7042 29.9922 25.3171 30.4627 25.0481 31.0006L28.6255 32.79ZM28.4832 32.8909C28.1602 33.0984 27.831 32.9281 28.6528 33.0953C29.2678 33.2203 30.4051 33.4783 31.7529 33.152L30.8116 29.2643C30.429 29.357 30.1036 29.3084 29.4499 29.1755C29.003 29.0846 27.599 28.7049 26.3216 29.5254L28.4832 32.8909ZM31.7793 33.1454C32.6214 32.9293 33.4077 32.5361 34.0857 31.9921L31.5825 28.8722C31.3481 29.0603 31.0762 29.1962 30.7851 29.2709L31.7793 33.1454ZM34.7795 29.968C34.4672 28.6593 33.7271 27.4924 32.6766 26.6521L30.178 29.7757C30.5331 30.0597 30.7832 30.4541 30.8887 30.8963L34.7795 29.968ZM32.6768 26.6522C31.6263 25.8117 30.3254 25.346 28.9804 25.3284L28.9282 29.3281C29.3831 29.334 29.8229 29.4915 30.1778 29.7755L32.6768 26.6522Z" fill="#1B6B93" mask="url(#path-6-inside-2_1402_12343)"/>
<mask id="path-8-inside-3_1402_12343" fill="white">
<path d="M34.3859 22.6727C35.4469 23.2335 36.2442 24.1898 36.6052 25.3343C36.7789 25.9876 36.7789 26.6751 36.6052 27.3284"/>
</mask>
<path d="M35.3206 20.9045C34.344 20.3884 33.1339 20.7616 32.6177 21.7381C32.1016 22.7146 32.4748 23.9247 33.4513 24.4409L35.3206 20.9045ZM36.6052 25.3343L38.538 24.8203L38.5263 24.7762L38.5126 24.7327L36.6052 25.3343ZM34.6723 26.8145C34.3885 27.8819 35.0237 28.9774 36.0912 29.2613C37.1587 29.5451 38.2542 28.9099 38.538 27.8424L34.6723 26.8145ZM33.4513 24.4409C34.0472 24.7559 34.495 25.293 34.6978 25.9359L38.5126 24.7327C37.9934 23.0865 36.8466 21.7112 35.3206 20.9045L33.4513 24.4409ZM34.6723 25.8482C34.7565 26.1648 34.7565 26.4979 34.6723 26.8145L38.538 27.8424C38.8013 26.8523 38.8013 25.8104 38.538 24.8203L34.6723 25.8482Z" fill="#1B6B93" mask="url(#path-8-inside-3_1402_12343)"/>
<mask id="path-10-inside-4_1402_12343" fill="white">
<path d="M43.713 21.1207C43.7806 22.1711 43.6462 23.2247 43.3173 24.2245C43.2175 24.4984 43.0846 24.759 42.9215 25.0005"/>
</mask>
<path d="M45.7089 20.9924C45.638 19.8901 44.6869 19.054 43.5846 19.1249C42.4824 19.1957 41.6462 20.1468 41.7171 21.2491L45.7089 20.9924ZM43.3173 24.2245L45.1965 24.909L45.2073 24.8794L45.2171 24.8495L43.3173 24.2245ZM41.2638 23.8816C40.6458 24.7971 40.8871 26.0403 41.8026 26.6582C42.7181 27.2762 43.9613 27.035 44.5792 26.1195L41.2638 23.8816ZM41.7171 21.2491C41.7683 22.0444 41.6665 22.8423 41.4174 23.5996L45.2171 24.8495C45.6258 23.6071 45.7929 22.2978 45.7089 20.9924L41.7171 21.2491ZM41.438 23.5401C41.3942 23.6603 41.3358 23.775 41.2638 23.8816L44.5792 26.1195C44.8334 25.7429 45.0408 25.3365 45.1965 24.909L41.438 23.5401Z" fill="#1B6B93" mask="url(#path-10-inside-4_1402_12343)"/>
<mask id="path-12-inside-5_1402_12343" fill="white">
<path d="M39.0418 31.984L41.3697 31.2081L43.6976 30.4321C43.881 29.8805 44.1424 29.358 44.4735 28.8802C44.8914 28.2722 45.4174 27.7461 46.0254 27.3282"/>
</mask>
<path d="M38.4094 30.0867C37.3615 30.4359 36.7952 31.5686 37.1444 32.6165C37.4937 33.6644 38.6263 34.2307 39.6742 33.8814L38.4094 30.0867ZM41.3697 31.2081L42.0021 33.1055L42.0022 33.1055L41.3697 31.2081ZM43.6976 30.4321L44.3301 32.3295L45.2796 32.013L45.5955 31.0632L43.6976 30.4321ZM44.4735 28.8802L46.1172 30.0197L46.1218 30.0131L44.4735 28.8802ZM47.1582 28.9765C48.0685 28.3508 48.2993 27.1057 47.6737 26.1954C47.048 25.2851 45.8029 25.0544 44.8926 25.68L47.1582 28.9765ZM39.6742 33.8814L42.0021 33.1055L40.7373 29.3108L38.4094 30.0867L39.6742 33.8814ZM42.0022 33.1055L44.3301 32.3295L43.0651 28.5348L40.7372 29.3108L42.0022 33.1055ZM45.5955 31.0632C45.7187 30.6925 45.8944 30.3411 46.1172 30.0197L42.8298 27.7408C42.3903 28.3749 42.0433 29.0686 41.7998 29.8011L45.5955 31.0632ZM46.1218 30.0131C46.4009 29.6069 46.7523 29.2555 47.1582 28.9765L44.8926 25.68C44.0826 26.2367 43.3819 26.9376 42.8253 27.7474L46.1218 30.0131Z" fill="#1B6B93" mask="url(#path-12-inside-5_1402_12343)"/>
<mask id="path-14-inside-6_1402_12343" fill="white">
<path d="M44.4734 34.3122C44.2173 33.0163 43.9535 31.7282 43.6975 30.4323L44.4734 34.3122Z"/>
</mask>
<path d="M42.5114 34.6999C42.7255 35.7835 43.7775 36.4884 44.8612 36.2742C45.9448 36.0601 46.6496 35.008 46.4355 33.9244L42.5114 34.6999ZM45.6596 30.0446C45.4455 28.961 44.3935 28.2561 43.3099 28.4702C42.2263 28.6842 41.5214 29.7362 41.7354 30.8199L45.6596 30.0446ZM46.4355 33.9244C46.3066 33.2725 46.176 32.6232 46.0461 31.9777C45.9161 31.3312 45.7868 30.6886 45.6596 30.0446L41.7354 30.8199C41.8642 31.4718 41.9949 32.1212 42.1247 32.7667C42.2548 33.4133 42.3841 34.0559 42.5114 34.6999L46.4355 33.9244Z" fill="#1B6B93" mask="url(#path-14-inside-6_1402_12343)"/>
<mask id="path-16-inside-7_1402_12343" fill="white">
<path d="M58.4407 29.6562C58.1317 30.3762 57.5495 30.9442 56.822 31.2351C56.0945 31.5261 55.2813 31.5164 54.5609 31.2082"/>
</mask>
<path d="M60.2786 30.4451C60.7142 29.4301 60.2446 28.2541 59.2296 27.8184C58.2145 27.3827 57.0385 27.8524 56.6029 28.8674L60.2786 30.4451ZM56.822 31.2351L57.5647 33.0921L57.5648 33.0921L56.822 31.2351ZM55.3477 29.3694C54.3322 28.9349 53.1567 29.4059 52.7222 30.4214C52.2876 31.4369 52.7586 32.6124 53.7741 33.0469L55.3477 29.3694ZM56.6029 28.8674C56.5029 29.1004 56.3145 29.2841 56.0793 29.3782L57.5648 33.0921C58.7844 32.6042 59.7605 31.6521 60.2786 30.4451L56.6029 28.8674ZM56.0794 29.3781C55.8439 29.4723 55.5808 29.4691 55.3477 29.3694L53.7741 33.0469C54.9818 33.5636 56.3452 33.5799 57.5647 33.0921L56.0794 29.3781Z" fill="#1B6B93" mask="url(#path-16-inside-7_1402_12343)"/>
<mask id="path-18-inside-8_1402_12343" fill="white">
<path d="M56.8888 40.5197C56.6799 39.6443 56.1848 38.8636 55.482 38.3014C54.7793 37.7392 53.909 37.4275 53.009 37.4159"/>
</mask>
<path d="M54.9435 40.9839C55.1998 42.0583 56.2787 42.7215 57.3531 42.4651C58.4275 42.2087 59.0906 41.1299 58.8342 40.0555L54.9435 40.9839ZM55.482 38.3014L54.2325 39.8631L54.2327 39.8632L55.482 38.3014ZM53.0349 35.4161C51.9305 35.4018 51.0235 36.2855 51.0092 37.39C50.9949 38.4945 51.8787 39.4014 52.9831 39.4157L53.0349 35.4161ZM58.8342 40.0555C58.522 38.747 57.7819 37.58 56.7313 36.7396L54.2327 39.8632C54.5878 40.1472 54.8379 40.5417 54.9435 40.9839L58.8342 40.0555ZM56.7315 36.7398C55.681 35.8992 54.38 35.4335 53.0349 35.4161L52.9831 39.4157C53.4379 39.4216 53.8776 39.5791 54.2325 39.8631L56.7315 36.7398Z" fill="#1B6B93" mask="url(#path-18-inside-8_1402_12343)"/>
<mask id="path-20-inside-9_1402_12343" fill="white">
<path d="M49.9052 24.2246C49.4969 24.9423 49.2333 25.7333 49.1293 26.5525C49.0628 27.0677 49.0628 27.5893 49.1293 28.1044"/>
</mask>
<path d="M51.6436 25.2135C52.1898 24.2534 51.8542 23.0324 50.8942 22.4862C49.9341 21.94 48.713 22.2756 48.1668 23.2357L51.6436 25.2135ZM49.1293 26.5525L51.1128 26.8088L51.1134 26.8044L49.1293 26.5525ZM47.1458 28.3607C47.2874 29.4562 48.2902 30.2295 49.3856 30.0879C50.4811 29.9464 51.2544 28.9436 51.1128 27.8481L47.1458 28.3607ZM48.1668 23.2357C47.6292 24.1807 47.2822 25.2221 47.1453 26.3006L51.1134 26.8044C51.1845 26.2444 51.3646 25.7039 51.6436 25.2135L48.1668 23.2357ZM47.1458 26.2962C47.0573 26.9815 47.0573 27.6754 47.1458 28.3607L51.1128 27.8481C51.0683 27.5031 51.0683 27.1538 51.1128 26.8088L47.1458 26.2962Z" fill="#1B6B93" mask="url(#path-20-inside-9_1402_12343)"/>
</g>
<path d="M66.2147 51.9846C66.2147 52.6227 66.0541 53.2747 65.5904 53.7712C65.1352 54.2588 64.5224 54.4535 63.9056 54.4683C63.9479 54.4842 63.9939 54.4998 64.0437 54.5148C65.0863 54.821 65.9659 55.7292 66.3185 56.7623C66.3787 56.2652 66.5559 55.7822 66.9183 55.3942C67.3924 54.8863 68.0376 54.6962 68.6802 54.6962C68.8381 54.6962 68.9604 54.6414 69.0285 54.586C69.0299 54.5849 69.0313 54.5838 69.0326 54.5827C69.0313 54.5816 69.0299 54.5805 69.0285 54.5794C68.9604 54.524 68.8381 54.4692 68.6802 54.4692C68.0376 54.4692 67.3924 54.2791 66.9183 53.7712C66.4546 53.2747 66.294 52.6227 66.294 51.9846C66.294 51.8774 66.2779 51.7829 66.2544 51.7043C66.2308 51.7829 66.2147 51.8774 66.2147 51.9846ZM63.4736 54.199C63.4735 54.199 63.474 54.1998 63.4751 54.2015C63.4742 54.1998 63.4736 54.199 63.4736 54.199ZM69.0742 54.5371C69.0741 54.5371 69.0733 54.5384 69.0722 54.5411C69.0739 54.5385 69.0744 54.5371 69.0742 54.5371ZM69.0722 54.6242C69.0733 54.627 69.0741 54.6283 69.0742 54.6283C69.0744 54.6282 69.0739 54.6269 69.0722 54.6242ZM66.1252 51.4668C66.1251 51.4671 66.127 51.4688 66.1309 51.4715C66.1272 51.4679 66.1252 51.4666 66.1252 51.4668ZM66.3778 51.4715C66.3817 51.4688 66.3836 51.4671 66.3836 51.4668C66.3835 51.4666 66.3815 51.4679 66.3778 51.4715Z" stroke="#1B6B93" stroke-width="2"/>
<path d="M71.48 44.4067C71.3763 44.7869 70.9961 45.098 70.6505 45.098C70.2703 45.098 69.9938 45.3399 69.9938 45.6164C69.9938 45.8929 70.3049 46.1348 70.6851 46.1348C71.1344 46.1348 71.3763 46.3768 71.3763 46.7915C71.3763 47.7938 72.0676 48.0703 72.3095 47.1717C72.4132 46.757 72.8971 46.2731 73.3464 46.1003C74.2796 45.7546 74.1068 45.098 73.0699 45.098C72.6552 45.098 72.4132 44.856 72.4132 44.4067C72.4132 44.0265 72.2404 43.7155 72.033 43.7155C71.8257 43.7155 71.5837 44.0265 71.48 44.4067Z" fill="#1B6B93"/>
</svg>
