<svg width="81" height="80" viewBox="0 0 81 80" fill="none" xmlns="http://www.w3.org/2000/svg">
<mask id="mask0_3230_9615" style="mask-type:luminance" maskUnits="userSpaceOnUse" x="10" y="13" width="61" height="64">
<path d="M70.2777 13.395H10.7226V76.6049H70.2777V13.395Z" fill="white"/>
</mask>
<g mask="url(#mask0_3230_9615)">
<path d="M62.0078 73.3196L37.4074 74.7253C37.3028 73.0468 36.8447 70.3035 34.8661 68.1435C34.1395 67.2586 33.1638 66.6119 32.0651 66.2877L32.0495 66.283L32.0337 66.2789C30.3057 65.8297 28.7585 66.5361 27.8465 66.9524C27.7231 67.0088 27.6114 67.0598 27.5123 67.1019C25.7055 67.8634 23.4111 68.0517 21.4578 67.7647C20.4855 67.6218 19.6455 67.3678 19.0208 67.0449C18.3824 66.7149 18.0769 66.3716 17.9699 66.1059C17.9196 65.9737 17.8687 65.7168 17.8436 65.3239C17.8195 64.9457 17.8229 64.5101 17.8429 64.0655C17.8827 63.1777 17.9851 62.3224 18.0316 61.9348L62.0078 73.3196ZM62.0078 73.3196C60.5001 70.2236 59.3996 66.943 58.7354 63.5596L58.7348 63.5561C58.1519 60.53 58.1884 58.6263 58.7657 56.8502L58.7703 56.836L58.7753 56.8221C59.4619 54.9052 60.6033 53.1842 62.1014 51.8061C64.8901 48.5572 66.9261 44.7314 68.063 40.6028C68.9999 37.0806 68.3032 33.5304 67.2232 30.6591C66.146 27.7952 64.7225 25.701 64.3308 25.1445L64.3293 25.1424C58.0273 16.1407 45.2048 13.4288 35.1537 16.2209L35.1529 16.2211C35.0109 16.2604 34.8554 16.3026 34.6877 16.3481C33.0378 16.7958 30.202 17.5654 27.3337 19.0934C24.1807 20.773 21.0859 23.32 19.5234 27.2578C18.4681 30.0514 18.2161 33.0846 18.7958 36.0141L18.7971 36.0208L18.7971 36.0208C18.9675 36.9137 18.9675 37.8308 18.7971 38.7236L18.7941 38.7392L18.7906 38.7547C18.4991 40.0564 17.8946 41.2672 17.0294 42.2824C16.2949 43.1744 15.4762 43.9936 14.5843 44.7286C14.1432 45.1187 13.7887 45.4189 13.5044 45.6579C13.4611 45.6944 13.4199 45.729 13.3806 45.7619C13.1532 45.9529 12.9915 46.0887 12.8629 46.2051C12.6397 46.407 12.6019 46.472 12.574 46.5551C12.4945 46.9326 12.5017 47.3233 12.5953 47.6976C12.6921 48.0849 12.8785 48.4438 13.1394 48.7455L13.1471 48.7543L13.1545 48.7634C13.5373 49.2274 13.9686 49.4148 14.5532 49.6688L14.5956 49.6872L14.6114 49.6941C15.1751 49.9391 16.0623 50.3248 16.4326 51.4026L16.4422 51.4304L16.45 51.4586C16.6409 52.1421 16.6409 52.8648 16.4501 53.5484L16.4476 53.5572L16.445 53.566C16.2715 54.1461 15.9934 54.5215 15.8223 54.7525L15.8097 54.7696C15.7893 54.7971 15.7721 54.8209 15.7577 54.8413C15.759 54.8428 15.7603 54.8444 15.7617 54.8459C15.8765 54.9758 16.1433 55.2002 16.7166 55.4921L18.5408 56.421L16.6869 57.2889C16.666 57.2987 16.646 57.3085 16.6271 57.3181C16.6598 57.352 16.6981 57.3909 16.743 57.4357C16.7616 57.4543 16.781 57.4736 16.8012 57.4937C17.1293 57.8199 17.6567 58.3442 17.9664 59.1137L17.9666 59.114C18.3102 59.9685 18.2015 60.7267 18.0921 61.4895C18.0708 61.6375 18.0496 61.7856 18.0316 61.9347L62.0078 73.3196ZM15.6999 54.7619C15.6999 54.7619 15.7004 54.7628 15.701 54.7645C15.7002 54.7627 15.6998 54.7619 15.6999 54.7619Z" stroke="#1B6B93" stroke-width="2" stroke-miterlimit="10"/>
<path d="M26.489 29.822L26.1206 30.0622C24.8767 30.8733 23.9258 32.0619 23.4077 33.4533L23.4072 33.4548C22.9825 34.5899 22.8834 35.821 23.1211 37.0093L23.1211 37.0093C23.3564 38.1859 23.9126 39.2742 24.7278 40.1542C25.8032 41.1378 27.1746 41.7374 28.6277 41.8584L28.6277 41.8584C30.0927 41.9806 31.5563 41.6093 32.7859 40.8036L33.4569 40.3638L34.0317 40.9236C34.7841 41.6563 35.7593 42.1172 36.803 42.2332C37.8468 42.3491 38.8994 42.1136 39.7943 41.5639L40.0783 41.3894L40.4103 41.4203C40.9556 41.471 41.9099 41.6013 42.9131 41.9855C43.9156 42.3696 45.0313 43.0326 45.8045 44.1876L45.8191 44.2094L45.8325 44.2319C46.4827 45.323 46.8014 46.5792 46.7503 47.8475C46.8341 49.7595 46.8854 52.2958 46.7868 55.3833H51.9012C52.1893 54.1382 52.7229 52.9598 53.4739 51.9185L53.4752 51.9167C54.3787 50.67 55.2886 50.1362 56.0881 49.6764L56.117 49.6598C56.8579 49.2336 57.4772 48.8774 58.1511 48.0101L58.1518 48.0093C58.7381 47.2563 58.8404 46.8092 58.9957 46.13L59.0077 46.0773C59.1954 45.2582 59.4411 44.2621 60.4158 42.6699L60.4167 42.6684C60.9233 41.844 61.3852 41.26 61.7306 40.8235C61.8337 40.6931 61.9264 40.5758 62.0069 40.4693C62.3396 40.0283 62.5165 39.7152 62.6098 39.1493L62.6104 39.1456C62.6806 38.73 62.6517 38.4955 62.5313 38.0685C62.4959 37.9432 62.4488 37.7915 62.393 37.6119C62.2505 37.1531 62.0514 36.5123 61.8482 35.6657L61.8479 35.6646C61.4094 33.8282 61.2943 32.4987 61.2096 31.5198C61.1946 31.3458 61.1805 31.1828 61.1657 31.03C61.0708 30.0502 60.9568 29.6107 60.5303 29.1233C59.8741 28.4347 58.9969 27.9982 58.0515 27.8903L57.2515 27.7991L57.1699 26.998C57.1056 26.3662 56.9029 25.7564 56.5762 25.2117C56.2528 24.6729 55.8159 24.211 55.2959 23.8582C54.6407 23.4595 53.8883 23.2485 53.121 23.2485C52.3471 23.2485 51.5883 23.4631 50.9291 23.8686L50.1418 24.3529L49.5972 23.606C49.2182 23.0863 48.7386 22.6478 48.187 22.3168C47.6398 21.9885 47.0326 21.7725 46.4011 21.6814C45.7074 21.6076 45.0059 21.6835 44.3439 21.9041L26.489 29.822ZM26.489 29.822L26.5609 29.3882M26.489 29.822L26.5609 29.3882M26.5609 29.3882C26.6955 28.5763 27.0012 27.8023 27.4577 27.1176C27.9113 26.4372 28.5036 25.8603 29.1957 25.4248C30.3859 24.7342 31.7877 24.5024 33.1372 24.7733L33.7273 24.8918M26.5609 29.3882L33.7273 24.8918M42.0106 23.479L41.3677 23.1059C40.1983 22.4273 38.8254 22.1874 37.495 22.4293L42.0106 23.479ZM42.0106 23.479L42.5532 22.9708M42.0106 23.479L42.5532 22.9708M42.5532 22.9708C43.0662 22.4904 43.677 22.1265 44.3438 21.9041L42.5532 22.9708ZM33.7273 24.8918L34.1082 24.4258M33.7273 24.8918L34.1082 24.4258M34.1082 24.4258C34.964 23.379 36.1646 22.6712 37.495 22.4293L34.1082 24.4258Z" stroke="#1B6B93" stroke-width="2" stroke-miterlimit="10"/>
<mask id="path-4-inside-1_3230_9615" fill="white">
<path d="M33.334 35.4322C33.8026 34.8685 34.3221 34.349 34.8859 33.8803C35.6226 33.3064 36.4006 32.7877 37.2138 32.3284C39.5417 30.823 39.1847 30.3885 40.3176 30.0005C41.0984 29.7424 41.9302 29.6781 42.7414 29.8133C43.5526 29.9485 44.3186 30.279 44.9734 30.7764C45.6485 31.3429 45.6485 31.7619 46.5253 32.3284C47.2349 32.7547 48.0297 33.0197 48.8532 33.1043C50.6379 33.3682 50.894 32.8483 51.9571 33.1043C54.0211 33.5932 54.9833 36.0143 55.0609 36.2082C55.4991 37.4643 55.4991 38.8318 55.0609 40.088C54.6948 40.9548 54.1683 41.7445 53.509 42.4159C52.4382 43.6807 51.9571 43.8049 51.1811 44.7438C50.4484 45.6558 49.9192 46.7142 49.6292 47.8476V56.3832"/>
</mask>
<path d="M31.796 34.1537C31.0899 35.0031 31.2061 36.2641 32.0555 36.9702C32.9049 37.6763 34.1659 37.5602 34.872 36.7107L31.796 34.1537ZM34.8859 33.8803L33.6567 32.3026L33.6317 32.3221L33.6074 32.3423L34.8859 33.8803ZM37.2138 32.3284L38.1973 34.0699L38.2495 34.0404L38.2998 34.0079L37.2138 32.3284ZM40.3176 30.0005L39.6897 28.1016L39.6797 28.105L39.6696 28.1084L40.3176 30.0005ZM44.9734 30.7764L46.2591 29.2444L46.2218 29.2132L46.1831 29.1838L44.9734 30.7764ZM46.5253 32.3284L45.4399 34.0083L45.4674 34.0261L45.4954 34.0429L46.5253 32.3284ZM48.8532 33.1043L49.1458 31.1258L49.1018 31.1194L49.0577 31.1148L48.8532 33.1043ZM51.9571 33.1043L51.4889 35.0488L51.4961 35.0505L51.9571 33.1043ZM55.0609 36.2082L56.9493 35.5494L56.9344 35.5069L56.9177 35.4651L55.0609 36.2082ZM55.0609 40.088L56.9033 40.8663L56.9282 40.8073L56.9493 40.7468L55.0609 40.088ZM53.509 42.4159L52.0819 41.0147L52.0302 41.0673L51.9826 41.1236L53.509 42.4159ZM51.1811 44.7438L49.6394 43.4697L49.6306 43.4804L49.622 43.4912L51.1811 44.7438ZM49.6292 47.8476L47.6916 47.3519L47.6292 47.5959V47.8476H49.6292ZM47.6292 56.3832C47.6292 57.4878 48.5246 58.3832 49.6292 58.3832C50.7338 58.3832 51.6292 57.4878 51.6292 56.3832H47.6292ZM34.872 36.7107C35.2623 36.2413 35.6949 35.8086 36.1644 35.4183L33.6074 32.3423C32.9494 32.8893 32.343 33.4957 31.796 34.1537L34.872 36.7107ZM36.115 35.4581C36.774 34.9447 37.47 34.4807 38.1973 34.0699L36.2302 30.587C35.3313 31.0947 34.4711 31.6681 33.6567 32.3026L36.115 35.4581ZM38.2998 34.0079C39.6081 33.1618 40.2106 32.5795 40.632 32.1556C40.7297 32.0575 40.7771 32.0095 40.822 31.9673C40.8589 31.9325 40.8688 31.9261 40.8639 31.9297C40.8328 31.9525 40.834 31.9377 40.9656 31.8927L39.6696 28.1084C39.2348 28.2573 38.8558 28.4423 38.5002 28.7028C38.1852 28.9335 37.9322 29.1979 37.7956 29.3352C37.5304 29.602 37.1474 29.9896 36.1277 30.649L38.2998 34.0079ZM40.9454 31.8994C41.4182 31.7431 41.9217 31.7042 42.4126 31.7861L43.0702 27.8405C41.9388 27.6519 40.7787 27.7416 39.6897 28.1016L40.9454 31.8994ZM42.4126 31.7861C42.9036 31.8679 43.3673 32.068 43.7637 32.3691L46.1831 29.1838C45.2699 28.4901 44.2015 28.0291 43.0702 27.8405L42.4126 31.7861ZM43.6877 32.3084C43.8286 32.4267 43.8508 32.4702 44.1023 32.7897C44.3906 33.1559 44.7665 33.5732 45.4399 34.0083L47.6107 30.6485C47.4072 30.5171 47.3447 30.4417 47.245 30.3152C47.1086 30.1419 46.7932 29.6927 46.2591 29.2444L43.6877 32.3084ZM45.4954 34.0429C46.4565 34.6202 47.533 34.9792 48.6487 35.0939L49.0577 31.1148C48.5264 31.0602 48.0134 30.8892 47.5552 30.614L45.4954 34.0429ZM48.5606 35.0828C49.7077 35.2524 50.4287 35.1693 50.9816 35.0838C51.4179 35.0163 51.3855 35.0239 51.4889 35.0488L52.4253 31.1599C51.4655 30.9288 50.7736 31.0684 50.3699 31.1308C50.0828 31.1752 49.7834 31.2201 49.1458 31.1258L48.5606 35.0828ZM51.4961 35.0505C51.8707 35.1392 52.2673 35.4417 52.6431 35.9523C53.0011 36.4388 53.1865 36.9074 53.2041 36.9513L56.9177 35.4651C56.8577 35.3151 56.5232 34.4762 55.8647 33.5814C55.224 32.7108 54.1075 31.5583 52.4181 31.1582L51.4961 35.0505ZM53.1725 36.867C53.4619 37.6965 53.4619 38.5996 53.1725 39.4293L56.9493 40.7468C57.5363 39.064 57.5363 37.2321 56.9493 35.5494L53.1725 36.867ZM53.2185 39.3098C52.9504 39.9445 52.5648 40.5229 52.0819 41.0147L54.9361 43.8172C55.7717 42.9662 56.4391 41.9651 56.9033 40.8663L53.2185 39.3098ZM51.9826 41.1236C51.5373 41.6495 51.2313 41.923 50.9192 42.1954C50.575 42.4959 50.1442 42.8589 49.6394 43.4697L52.7227 46.0179C52.994 45.6898 53.1918 45.5213 53.5497 45.2088C53.9399 44.8682 54.4098 44.4471 55.0354 43.7083L51.9826 41.1236ZM49.622 43.4912C48.7105 44.6256 48.0523 45.9421 47.6916 47.3519L51.5668 48.3434C51.786 47.4863 52.1862 46.6861 52.7402 45.9965L49.622 43.4912ZM47.6292 47.8476V56.3832H51.6292V47.8476H47.6292Z" fill="#1B6B93" mask="url(#path-4-inside-1_3230_9615)"/>
<mask id="path-6-inside-2_3230_9615" fill="white">
<path d="M27.1264 37.7602C27.1306 37.4597 27.2025 37.1641 27.3368 36.8954C27.4712 36.6266 27.6645 36.3918 27.9024 36.2083C28.8569 35.5952 30.0518 36.6272 31.7822 36.2083C32.3488 36.0629 32.8779 35.7983 33.3341 35.4323C33.1252 34.5568 32.6301 33.7762 31.9273 33.214C31.2246 32.6517 30.3543 32.3401 29.4543 32.3284"/>
</mask>
<path d="M25.1266 37.7326C25.1113 38.837 25.9943 39.7447 27.0988 39.76C28.2033 39.7752 29.111 38.8922 29.1262 37.7878L25.1266 37.7326ZM27.3368 36.8954L25.5481 36.0007L25.5478 36.0012L27.3368 36.8954ZM27.9024 36.2083L26.8216 34.5255L26.7491 34.572L26.6809 34.6246L27.9024 36.2083ZM31.7822 36.2083L32.2529 38.1521L32.2661 38.1489L32.2793 38.1455L31.7822 36.2083ZM33.3341 35.4323L34.5857 36.9922L35.5734 36.1998L35.2795 34.9681L33.3341 35.4323ZM31.9273 33.214L30.6778 34.7756L30.678 34.7758L31.9273 33.214ZM29.4804 30.3285C28.3759 30.3141 27.4689 31.1978 27.4545 32.3023C27.4401 33.4067 28.3237 34.3138 29.4282 34.3282L29.4804 30.3285ZM29.1262 37.7878C29.1262 37.7883 29.1261 37.7889 29.1258 37.7895L25.5478 36.0012C25.2788 36.5393 25.1349 37.1312 25.1266 37.7326L29.1262 37.7878ZM29.1255 37.7901C29.1253 37.7905 29.1248 37.7913 29.1239 37.792L26.6809 34.6246C26.2042 34.9923 25.8171 35.4628 25.5481 36.0007L29.1255 37.7901ZM28.9832 37.8911C28.6602 38.0985 28.331 37.9283 29.1528 38.0954C29.7678 38.2204 30.9051 38.4784 32.2529 38.1521L31.3116 34.2644C30.929 34.3571 30.6036 34.3085 29.9499 34.1756C29.503 34.0847 28.099 33.705 26.8216 34.5255L28.9832 37.8911ZM32.2793 38.1455C33.1214 37.9294 33.9077 37.5362 34.5857 36.9922L32.0825 33.8723C31.8481 34.0604 31.5762 34.1963 31.2851 34.271L32.2793 38.1455ZM35.2795 34.9681C34.9672 33.6594 34.2271 32.4925 33.1766 31.6522L30.678 34.7758C31.0331 35.0598 31.2832 35.4542 31.3887 35.8965L35.2795 34.9681ZM33.1768 31.6524C32.1263 30.8118 30.8254 30.3461 29.4804 30.3285L29.4282 34.3282C29.8831 34.3341 30.3229 34.4917 30.6778 34.7756L33.1768 31.6524Z" fill="#1B6B93" mask="url(#path-6-inside-2_3230_9615)"/>
<mask id="path-8-inside-3_3230_9615" fill="white">
<path d="M34.8859 27.6727C35.9469 28.2335 36.7442 29.1898 37.1052 30.3343C37.2789 30.9876 37.2789 31.6751 37.1052 32.3284"/>
</mask>
<path d="M35.8206 25.9045C34.844 25.3884 33.6339 25.7616 33.1177 26.7381C32.6016 27.7146 32.9748 28.9247 33.9513 29.4409L35.8206 25.9045ZM37.1052 30.3343L39.038 29.8203L39.0263 29.7762L39.0126 29.7327L37.1052 30.3343ZM35.1723 31.8145C34.8885 32.8819 35.5237 33.9774 36.5912 34.2613C37.6587 34.5451 38.7542 33.9099 39.038 32.8424L35.1723 31.8145ZM33.9513 29.4409C34.5472 29.7559 34.995 30.293 35.1978 30.9359L39.0126 29.7327C38.4934 28.0865 37.3466 26.7112 35.8206 25.9045L33.9513 29.4409ZM35.1723 30.8482C35.2565 31.1648 35.2565 31.4979 35.1723 31.8145L39.038 32.8424C39.3013 31.8523 39.3013 30.8104 39.038 29.8203L35.1723 30.8482Z" fill="#1B6B93" mask="url(#path-8-inside-3_3230_9615)"/>
<mask id="path-10-inside-4_3230_9615" fill="white">
<path d="M44.213 26.1207C44.2806 27.1711 44.1462 28.2247 43.8173 29.2245C43.7175 29.4984 43.5846 29.759 43.4215 30.0005"/>
</mask>
<path d="M46.2089 25.9924C46.138 24.8901 45.1869 24.054 44.0846 24.1249C42.9824 24.1957 42.1462 25.1468 42.2171 26.2491L46.2089 25.9924ZM43.8173 29.2245L45.6965 29.909L45.7073 29.8794L45.7171 29.8495L43.8173 29.2245ZM41.7638 28.8816C41.1458 29.7971 41.3871 31.0403 42.3026 31.6582C43.2181 32.2762 44.4613 32.035 45.0792 31.1195L41.7638 28.8816ZM42.2171 26.2491C42.2683 27.0444 42.1665 27.8423 41.9174 28.5996L45.7171 29.8495C46.1258 28.6071 46.2929 27.2978 46.2089 25.9924L42.2171 26.2491ZM41.938 28.5401C41.8942 28.6603 41.8358 28.775 41.7638 28.8816L45.0792 31.1195C45.3334 30.7429 45.5408 30.3365 45.6965 29.909L41.938 28.5401Z" fill="#1B6B93" mask="url(#path-10-inside-4_3230_9615)"/>
<mask id="path-12-inside-5_3230_9615" fill="white">
<path d="M39.5418 36.9842L41.8697 36.2083L44.1976 35.4323C44.381 34.8807 44.6424 34.3581 44.9735 33.8804C45.3914 33.2724 45.9174 32.7462 46.5254 32.3284"/>
</mask>
<path d="M38.9094 35.0868C37.8615 35.4361 37.2952 36.5687 37.6444 37.6166C37.9937 38.6645 39.1263 39.2308 40.1742 38.8816L38.9094 35.0868ZM41.8697 36.2083L42.5021 38.1057L42.5022 38.1056L41.8697 36.2083ZM44.1976 35.4323L44.8301 37.3296L45.7796 37.0131L46.0955 36.0633L44.1976 35.4323ZM44.9735 33.8804L46.6172 35.0198L46.6218 35.0132L44.9735 33.8804ZM47.6582 33.9766C48.5685 33.351 48.7993 32.1058 48.1737 31.1955C47.548 30.2852 46.3029 30.0545 45.3926 30.6801L47.6582 33.9766ZM40.1742 38.8816L42.5021 38.1057L41.2373 34.3109L38.9094 35.0868L40.1742 38.8816ZM42.5022 38.1056L44.8301 37.3296L43.5651 33.5349L41.2372 34.3109L42.5022 38.1056ZM46.0955 36.0633C46.2187 35.6926 46.3944 35.3412 46.6172 35.0198L43.3298 32.741C42.8903 33.375 42.5433 34.0688 42.2998 34.8012L46.0955 36.0633ZM46.6218 35.0132C46.9009 34.607 47.2523 34.2556 47.6582 33.9766L45.3926 30.6801C44.5826 31.2369 43.8819 31.9377 43.3253 32.7475L46.6218 35.0132Z" fill="#1B6B93" mask="url(#path-12-inside-5_3230_9615)"/>
<mask id="path-14-inside-6_3230_9615" fill="white">
<path d="M44.9734 39.3122C44.7173 38.0163 44.4535 36.7282 44.1975 35.4323L44.9734 39.3122Z"/>
</mask>
<path d="M43.0114 39.6999C43.2255 40.7835 44.2775 41.4884 45.3612 41.2742C46.4448 41.0601 47.1496 40.008 46.9355 38.9244L43.0114 39.6999ZM46.1596 35.0446C45.9455 33.961 44.8935 33.2561 43.8099 33.4702C42.7263 33.6842 42.0214 34.7362 42.2354 35.8199L46.1596 35.0446ZM46.9355 38.9244C46.8066 38.2725 46.676 37.6232 46.5461 36.9777C46.4161 36.3312 46.2868 35.6886 46.1596 35.0446L42.2354 35.8199C42.3642 36.4718 42.4949 37.1212 42.6247 37.7667C42.7548 38.4133 42.8841 39.0559 43.0114 39.6999L46.9355 38.9244Z" fill="#1B6B93" mask="url(#path-14-inside-6_3230_9615)"/>
<mask id="path-16-inside-7_3230_9615" fill="white">
<path d="M58.9407 34.6564C58.6317 35.3764 58.0495 35.9443 57.322 36.2352C56.5945 36.5262 55.7813 36.5165 55.0609 36.2083"/>
</mask>
<path d="M60.7786 35.4452C61.2142 34.4302 60.7446 33.2542 59.7296 32.8185C58.7145 32.3828 57.5385 32.8525 57.1029 33.8675L60.7786 35.4452ZM57.322 36.2352L58.0647 38.0922L58.0648 38.0922L57.322 36.2352ZM55.8477 34.3695C54.8322 33.935 53.6567 34.406 53.2222 35.4215C52.7876 36.437 53.2586 37.6125 54.2741 38.047L55.8477 34.3695ZM57.1029 33.8675C57.0029 34.1005 56.8145 34.2842 56.5793 34.3783L58.0648 38.0922C59.2844 37.6044 60.2605 36.6523 60.7786 35.4452L57.1029 33.8675ZM56.5794 34.3782C56.3439 34.4724 56.0808 34.4693 55.8477 34.3695L54.2741 38.047C55.4818 38.5638 56.8452 38.58 58.0647 38.0922L56.5794 34.3782Z" fill="#1B6B93" mask="url(#path-16-inside-7_3230_9615)"/>
<mask id="path-18-inside-8_3230_9615" fill="white">
<path d="M57.3888 45.5198C57.1799 44.6444 56.6848 43.8637 55.982 43.3015C55.2793 42.7392 54.409 42.4276 53.509 42.416"/>
</mask>
<path d="M55.4435 45.984C55.6998 47.0584 56.7787 47.7215 57.8531 47.4651C58.9275 47.2087 59.5906 46.1299 59.3342 45.0555L55.4435 45.984ZM55.982 43.3015L54.7325 44.8631L54.7327 44.8633L55.982 43.3015ZM53.5349 40.4161C52.4305 40.4018 51.5235 41.2856 51.5092 42.3901C51.4949 43.4945 52.3787 44.4015 53.4831 44.4158L53.5349 40.4161ZM59.3342 45.0555C59.022 43.747 58.2819 42.58 57.2313 41.7397L54.7327 44.8633C55.0878 45.1473 55.3379 45.5418 55.4435 45.984L59.3342 45.0555ZM57.2315 41.7399C56.181 40.8993 54.88 40.4335 53.5349 40.4161L53.4831 44.4158C53.9379 44.4217 54.3776 44.5791 54.7325 44.8631L57.2315 41.7399Z" fill="#1B6B93" mask="url(#path-18-inside-8_3230_9615)"/>
<mask id="path-20-inside-9_3230_9615" fill="white">
<path d="M50.4052 29.2247C49.9969 29.9424 49.7333 30.7333 49.6293 31.5526C49.5628 32.0677 49.5628 32.5893 49.6293 33.1045"/>
</mask>
<path d="M52.1436 30.2136C52.6898 29.2535 52.3542 28.0324 51.3942 27.4863C50.4341 26.9401 49.213 27.2757 48.6668 28.2357L52.1436 30.2136ZM49.6293 31.5526L51.6128 31.8089L51.6134 31.8044L49.6293 31.5526ZM47.6458 33.3608C47.7874 34.4562 48.7902 35.2295 49.8856 35.088C50.9811 34.9464 51.7544 33.9436 51.6128 32.8482L47.6458 33.3608ZM48.6668 28.2357C48.1292 29.1808 47.7822 30.2221 47.6453 31.3007L51.6134 31.8044C51.6845 31.2445 51.8646 30.704 52.1436 30.2136L48.6668 28.2357ZM47.6458 31.2963C47.5573 31.9816 47.5573 32.6755 47.6458 33.3608L51.6128 32.8482C51.5683 32.5032 51.5683 32.1539 51.6128 31.8089L47.6458 31.2963Z" fill="#1B6B93" mask="url(#path-20-inside-9_3230_9615)"/>
</g>
<path d="M66.7147 51.9846C66.7147 52.6228 66.5541 53.2747 66.0904 53.7713C65.6352 54.2588 65.0224 54.4536 64.4056 54.4683C64.4479 54.4842 64.4939 54.4998 64.5437 54.5149C65.5863 54.8211 66.4659 55.7292 66.8185 56.7624C66.8787 56.2653 67.0559 55.7823 67.4183 55.3942C67.8924 54.8864 68.5376 54.6962 69.1802 54.6962C69.3381 54.6962 69.4604 54.6414 69.5285 54.5861C69.5299 54.585 69.5313 54.5838 69.5326 54.5828C69.5313 54.5817 69.5299 54.5805 69.5285 54.5794C69.4604 54.5241 69.3381 54.4693 69.1802 54.4693C68.5376 54.4693 67.8924 54.2791 67.4183 53.7713C66.9546 53.2747 66.794 52.6228 66.794 51.9846C66.794 51.8774 66.7779 51.783 66.7544 51.7043C66.7308 51.783 66.7147 51.8774 66.7147 51.9846ZM63.9736 54.1991C63.9735 54.1991 63.974 54.1999 63.9751 54.2016C63.9742 54.1999 63.9736 54.1991 63.9736 54.1991ZM69.5742 54.5372C69.5741 54.5371 69.5733 54.5384 69.5722 54.5412C69.5739 54.5386 69.5744 54.5372 69.5742 54.5372ZM69.5722 54.6243C69.5733 54.6271 69.5741 54.6284 69.5742 54.6283C69.5744 54.6283 69.5739 54.6269 69.5722 54.6243ZM66.6252 51.4669C66.6251 51.4671 66.627 51.4689 66.6309 51.4715C66.6272 51.468 66.6252 51.4667 66.6252 51.4669ZM66.8778 51.4715C66.8817 51.4689 66.8836 51.4671 66.8836 51.4669C66.8835 51.4667 66.8815 51.468 66.8778 51.4715Z" stroke="#1B6B93" stroke-width="2"/>
<path d="M71.98 44.4067C71.8763 44.7869 71.4961 45.098 71.1505 45.098C70.7703 45.098 70.4938 45.3399 70.4938 45.6164C70.4938 45.8929 70.8049 46.1348 71.1851 46.1348C71.6344 46.1348 71.8763 46.3768 71.8763 46.7915C71.8763 47.7938 72.5676 48.0703 72.8095 47.1717C72.9132 46.757 73.3971 46.2731 73.8464 46.1003C74.7796 45.7546 74.6068 45.098 73.5699 45.098C73.1552 45.098 72.9132 44.856 72.9132 44.4067C72.9132 44.0265 72.7404 43.7155 72.533 43.7155C72.3257 43.7155 72.0837 44.0265 71.98 44.4067Z" fill="#1B6B93"/>
</svg>
