<svg width="108" height="135" viewBox="0 0 108 135" fill="none" xmlns="http://www.w3.org/2000/svg">
<g clip-path="url(#clip0_1402_12297)">
<path d="M43.415 31.225C37.8181 31.9 33.2338 34.2203 31.8275 37.1031C30.7306 39.339 30.3088 43.0937 30.5759 47.9594C30.7588 50.9265 30.7447 50.9828 30.4634 51.3484C29.9572 51.9953 29.7041 53.1625 29.7041 54.8359C29.7041 56.5937 29.8869 57.5359 30.4916 58.8156C31.1666 60.264 32.6431 61.5015 34.2603 61.9797C34.3869 62.0219 34.64 62.5562 34.8509 63.2172C35.5259 65.2984 36.6228 67.2109 38.1978 69.0953L39.0556 70.1078L38.9009 71.2609C38.8166 71.8937 38.6197 73.0469 38.465 73.8203C38.3244 74.5937 38.1978 75.2547 38.1978 75.2687C38.1978 75.2969 37.9588 75.2828 37.6775 75.2265C36.9463 75.114 31.6869 75.3812 29.4228 75.6625C28.4103 75.789 27.0744 76.0422 26.4556 76.239C18.7072 78.6578 15.3463 87.5312 19.5088 94.6047C19.8603 95.2234 20.6056 96.1094 21.3791 96.8969C23.0947 98.5984 24.5994 99.4844 26.9759 100.173C27.6228 100.356 27.8478 100.511 28.2416 101.031C28.8181 101.805 29.8306 102.508 30.7869 102.789C31.8556 103.112 61.1338 103.112 62.2025 102.789C63.1728 102.508 64.1853 101.777 64.7056 101.017C65.0853 100.441 65.2119 100.356 66.0978 100.131C68.3619 99.5406 70.9213 97.8672 72.4681 95.9687C73.3541 94.8859 74.5213 92.6078 74.8306 91.3422C76.5463 84.564 72.6088 77.8 65.9431 76.0703C64.2697 75.6344 57.5759 75.0719 55.4947 75.1844L54.7353 75.2265L54.4963 74.0312C54.3556 73.3703 54.1728 72.189 54.0744 71.3875L53.8916 69.9531L54.3978 69.4187C55.79 67.9703 57.365 65.2984 58.0822 63.2031C58.3213 62.4719 58.5041 62.1484 58.6447 62.1625C58.7713 62.1625 59.0666 62.1765 59.2916 62.1906L59.7134 62.2187V64.8625C59.7134 67.4359 59.7275 67.5203 60.0369 67.8015C60.3322 68.0828 60.6275 68.1812 61.1478 68.139C61.2744 68.139 63.2291 66.8031 65.5072 65.1719L69.6275 62.2187H76.94C84.7588 62.2187 85.1103 62.1906 86.4603 61.5015C87.2759 61.0937 88.4291 59.9547 88.865 59.1531C89.6666 57.6765 89.6666 57.7187 89.6666 46.6515C89.6666 39.6765 89.6103 36.2594 89.5119 35.7531C89.0478 33.6015 87.29 31.7734 85.1103 31.1969C84.1541 30.9437 59.6009 30.9015 58.4197 31.1547C57.5619 31.3375 56.5634 31.8156 55.9588 32.3219L55.5509 32.6734L54.2572 32.2656C50.615 31.1265 47.0572 30.789 43.415 31.225ZM48.5338 33.5312C50.0806 33.714 51.7119 34.0234 53.0759 34.4172C54.0041 34.6703 54.1025 34.7406 54.0181 34.9937C53.9759 35.1625 53.8634 35.6406 53.7791 36.0765L53.6244 36.85L52.9072 36.6672C51.9931 36.4281 50.7838 36.4422 49.3775 36.6953C47.8728 36.9625 45.1588 36.9625 43.3025 36.6812C40.4338 36.2453 38.8166 36.6812 37.2416 38.2703C35.5681 39.9719 34.7806 41.9265 34.4713 45.1609C34.1759 48.2969 33.6697 50.5047 33.3041 50.2937C33.0509 50.125 32.8119 46.089 32.9244 43.7406C33.1353 39.1703 33.8525 37.4687 36.2009 35.964C39.0416 34.1359 44.4275 33.0812 48.5338 33.5312ZM85.1666 33.7281C85.8556 34.0937 86.5447 34.7687 86.8963 35.4297C87.2056 35.9922 87.2056 35.9922 87.2056 46.6094V57.2265L86.8963 57.8031C86.7275 58.1265 86.3197 58.6187 85.9822 58.9C84.9134 59.8281 84.8572 59.8281 76.4197 59.8281H68.84L65.5072 62.2047L62.1744 64.5953L62.1041 62.5703C62.0338 60.6719 62.0197 60.5312 61.6963 60.1937C61.3869 59.8703 61.2463 59.8281 60.3463 59.8281C58.4619 59.8281 57.1541 59.1531 56.4369 57.8031L56.1275 57.2265V46.6094C56.1275 36.5265 56.1416 35.964 56.3947 35.5C56.9009 34.5437 57.7588 33.8265 58.7291 33.5172C58.9259 33.4609 64.8463 33.4187 71.8775 33.4328C84.0556 33.4609 84.7025 33.475 85.1666 33.7281ZM43.2322 39.114C44.8916 39.3953 47.8588 39.4094 49.2369 39.1422C50.7838 38.8328 52.3447 38.889 53.0759 39.2687L53.6666 39.5781V48.2687C53.6666 57.5078 53.6806 57.6344 54.3697 58.9844C54.5384 59.3219 55.0306 59.9687 55.4384 60.4047L56.1978 61.1922L55.7619 62.4437C54.2431 66.7469 51.5572 69.6297 48.3931 70.389C48.0134 70.4734 47.0853 70.5437 46.3541 70.5437C42.8525 70.5437 39.9978 68.4906 38.0291 64.539C36.6088 61.7125 35.9197 58.5484 35.7228 54.0344C35.6244 51.939 35.6384 51.8406 36.0603 50.1953C36.5244 48.3531 36.7213 47.1859 36.8619 45.3437C37.1572 41.5328 38.9572 38.9312 41.3338 38.889C41.615 38.875 42.4728 38.9734 43.2322 39.114ZM33.0791 52.7687C33.1775 52.825 33.2759 53.5703 33.3322 54.5547C33.3884 55.4828 33.515 56.889 33.6134 57.6625C33.7541 58.9422 33.7541 59.0687 33.5572 58.9562C33.1916 58.7312 32.615 57.8172 32.3619 57.0859C32.0806 56.2703 32.0244 53.6547 32.2775 53.0359C32.4181 52.6703 32.7556 52.5437 33.0791 52.7687ZM43.3869 72.5406C44.765 72.9484 46.3822 73.089 47.6759 72.9203C48.8431 72.7656 50.4041 72.3015 51.2197 71.8797L51.6556 71.6547L51.8244 72.8078C51.9228 73.4406 52.1197 74.4953 52.2744 75.1422L52.5416 76.3234L52.19 76.8015C51.2197 78.0672 49.3775 78.8125 46.9447 78.9109C44.4697 79.0234 42.5994 78.5031 41.3056 77.3359C40.4056 76.5203 40.4056 76.5062 40.7853 74.4953C40.9822 73.5109 41.165 72.4562 41.2213 72.175L41.3056 71.6406L41.9666 71.9781C42.3322 72.1609 42.965 72.414 43.3869 72.5406ZM33.4166 78.489C32.5728 79.4031 31.7853 80.5422 31.2509 81.5828C30.6181 82.8625 30.7588 83.2422 32.1791 83.9594C33.2338 84.4937 34.4853 85.5625 34.9916 86.3781C35.2869 86.8562 35.2869 86.8703 35.0056 87.0953C34.6259 87.4047 33.7822 88.5015 33.5009 89.0359C33.0791 89.8797 33.1775 90.1609 34.3447 91.2437C36.1025 92.875 37.1713 94.0281 38.4228 95.6453C39.59 97.1359 41.8541 100.37 41.8541 100.525C41.8541 100.567 39.5619 100.609 36.7634 100.609C29.2963 100.595 29.6338 100.891 29.6197 94.45C29.6197 90.6953 29.6056 90.4703 29.3384 90.2031C28.9447 89.8094 28.3681 89.6969 27.9463 89.9359C27.2713 90.3156 27.2291 90.5828 27.2291 94.3094V97.7828L26.3572 97.4172C25.0916 96.9109 23.7275 95.9687 22.7853 94.9422C17.5822 89.3312 20.3103 80.2047 27.7213 78.3906C28.6775 78.1656 32.0384 77.7719 33.6838 77.7015L34.1478 77.6875L33.4166 78.489ZM61.5697 77.8984C66.14 78.2922 67.6447 78.8687 69.8525 81.0625C70.9494 82.1594 71.2869 82.6094 71.7791 83.5937C72.5103 85.1125 72.8056 86.3781 72.8056 88.0937C72.8056 92.0172 70.7666 95.3359 67.2509 97.0937C65.4791 97.9937 65.6197 98.2469 65.6197 94.0703C65.6197 90.6812 65.6056 90.4703 65.3384 90.2031C64.7338 89.5984 63.7916 89.725 63.4119 90.4844C63.2853 90.7375 63.2291 91.9187 63.2291 94.8437C63.2291 98.725 63.215 98.8656 62.9056 99.4C62.7088 99.7515 62.3572 100.075 61.9775 100.286C61.3588 100.609 61.3306 100.609 56.1697 100.609H50.9806L52.1478 98.8937C54.3978 95.575 56.5353 93.0015 58.3353 91.4828C58.94 90.9765 59.5025 90.3719 59.6009 90.1469C59.7416 89.7812 59.7134 89.6547 59.3619 88.9797C59.1509 88.5578 58.6869 87.8969 58.3353 87.5172C57.7306 86.8422 57.7166 86.8 57.8994 86.4344C58.2931 85.675 59.6713 84.4656 60.74 83.9594C61.9634 83.3828 62.2447 82.9609 61.9775 82.1453C61.7384 81.4422 60.2619 79.2765 59.4322 78.4187C59.0384 78.025 58.7853 77.6875 58.8556 77.6875C58.9259 77.6875 60.1494 77.7859 61.5697 77.8984ZM39.0697 79.6562C40.4478 83.6922 41.5728 88.2765 42.1213 92.1015C42.4447 94.3515 42.74 97.1078 42.6556 97.1781C42.6275 97.2062 42.3603 96.8687 42.0509 96.4328C40.9822 94.8578 39.2525 92.7906 37.6494 91.1453L36.0322 89.5L36.3275 89.1062C36.4822 88.8953 36.8197 88.6562 37.0728 88.5719C37.6353 88.389 38.0572 87.9109 38.0572 87.4609C38.0572 86.2375 35.6384 83.0453 34.1197 82.2578L33.6838 82.0328L34.2884 81.175C34.6259 80.6969 35.2166 80.0219 35.6244 79.6703C36.4963 78.9109 38.0431 77.9406 38.3244 77.9969C38.4369 78.025 38.7463 78.7 39.0697 79.6562ZM55.5509 78.4187C56.4791 78.9109 58.5322 80.8375 58.9119 81.5828L59.1509 82.0187L58.2369 82.6797C56.8025 83.6922 55.3541 85.6469 54.9322 87.1234C54.7634 87.6859 55.1009 88.3187 55.6634 88.5015C55.9306 88.5859 56.3244 88.839 56.5353 89.064L56.9009 89.4578L55.4525 90.9344C53.9056 92.5094 52.3728 94.3515 51.0791 96.1656L50.2916 97.2625V96.714C50.2916 95.2094 51.0931 89.8937 51.7822 86.8984C52.5416 83.5937 54.2853 77.9687 54.5525 77.9687C54.6228 77.9687 55.0728 78.1656 55.5509 78.4187ZM43.1197 80.9359C43.8088 81.1609 44.5259 81.2594 46.0025 81.3015C47.9431 81.3719 48.6322 81.2875 50.6713 80.6969L50.9666 80.6125L50.6291 81.7937C49.0259 87.2781 48.0275 93.1 47.7884 98.4297L47.69 100.539L46.4806 100.581L45.2713 100.623L45.1728 98.6828C44.8916 92.8609 43.7666 86.5047 42.0509 80.8797C41.9525 80.5703 42.0088 80.5844 43.1197 80.9359Z" fill="#1B6B93"/>
<path d="M69.3463 37.3141C68.2635 37.975 68.0244 38.65 68.0104 41.0828V42.9531H66.2244C64.1854 42.9531 63.4682 43.0938 62.9057 43.6281C62.1885 44.2891 62.1041 44.6266 62.1041 46.525C62.1041 48.3672 62.2026 48.8594 62.7088 49.3938C63.3416 50.0828 63.7354 50.1813 65.9432 50.2375L68.0104 50.2938V52.0797C68.0104 54.0766 68.1369 54.7094 68.6713 55.3422C69.2619 56.0313 69.7541 56.1719 71.6666 56.1719C73.5791 56.1719 74.0713 56.0313 74.6619 55.3422C75.1963 54.7094 75.3229 54.0766 75.3229 52.0797V50.2938L77.4041 50.2375C79.5979 50.1813 79.9916 50.0828 80.6244 49.3938C81.1307 48.8594 81.2291 48.3672 81.2291 46.525C81.2291 44.5844 81.1307 44.2328 80.3854 43.6141C79.7666 43.0797 79.1338 42.9531 77.1229 42.9531H75.3229V41.1531C75.3229 39.1422 75.1963 38.5094 74.6619 37.8906C74.0432 37.1453 73.6916 37.0469 71.6385 37.0469C70.0635 37.0469 69.6979 37.0891 69.3463 37.3141ZM72.9323 41.6031C72.9323 43.6141 72.9604 43.7828 73.2557 44.2328C73.4244 44.4859 73.7901 44.8516 74.0432 45.0203C74.4932 45.3156 74.6619 45.3438 76.6729 45.3438H78.8385V46.5391V47.7344H77.1229C74.6057 47.7484 73.9588 47.9453 73.2557 49C72.9604 49.4359 72.9323 49.6188 72.9323 51.6156V53.7813H71.6666H70.401V51.6156C70.401 49.6188 70.3729 49.4359 70.0916 49C69.3744 47.9453 68.7276 47.7484 66.2244 47.7344H64.4948V46.5391V45.3438H66.6604C68.6713 45.3438 68.8401 45.3156 69.2901 45.0203C69.5432 44.8516 69.9088 44.4859 70.0776 44.2328C70.3729 43.7828 70.401 43.6141 70.401 41.6031V39.4375H71.6666H72.9323V41.6031Z" fill="#1B6B93"/>
<path d="M23.3756 55.6124C23.0937 55.3106 22.9314 54.9499 22.8511 54.5747C22.7709 54.9499 22.6086 55.3106 22.3267 55.6124C22.007 55.9549 21.6069 56.1436 21.188 56.2243C21.9192 56.5344 22.5336 57.1569 22.8729 57.8809C22.9593 57.5395 23.1172 57.2133 23.3756 56.9366C23.8263 56.4538 24.4368 56.2767 25.0344 56.2767C25.0504 56.2767 25.0659 56.2759 25.0808 56.2745C25.0659 56.2731 25.0504 56.2724 25.0344 56.2724C24.4368 56.2724 23.8263 56.0952 23.3756 55.6124ZM23.3167 58.9648C23.3167 58.9648 23.3163 58.9644 23.3156 58.9637L23.3167 58.9648ZM25.3047 56.1809C25.3046 56.1809 25.304 56.1817 25.3029 56.1833C25.3042 56.1817 25.3048 56.1809 25.3047 56.1809ZM25.3029 56.3658C25.304 56.3674 25.3047 56.3681 25.3047 56.3681C25.3048 56.3681 25.3042 56.3673 25.3029 56.3658ZM22.6697 53.5454C22.6697 53.5455 22.6708 53.5468 22.6731 53.5488C22.6708 53.5463 22.6697 53.5453 22.6697 53.5454ZM23.0292 53.5488C23.0315 53.5468 23.0326 53.5455 23.0326 53.5454C23.0326 53.5453 23.0314 53.5463 23.0292 53.5488Z" stroke="#1B6B93" stroke-width="2"/>
</g>
<defs>
<clipPath id="clip0_1402_12297">
<rect width="72" height="72" fill="white" transform="translate(17.6666 31)"/>
</clipPath>
</defs>
</svg>
