<svg width="23" height="22" viewBox="0 0 23 22" fill="none" xmlns="http://www.w3.org/2000/svg">
<path d="M1.06291 8.20118C0.829517 6.49395 1.22963 4.78672 2.52998 3.40248C3.74143 2.12206 5.49746 1.14155 7.57581 1.62603C9.26516 2.01823 10.3544 3.25252 10.7989 3.88696C10.8989 4.02539 11.099 4.02539 11.199 3.88696C11.6547 3.26406 12.7328 2.02977 14.4221 1.62603C16.5005 1.14155 18.2565 2.12206 19.468 3.40248C22.7467 6.86308 20.2682 12.3424 16.6783 14.8686C15.2001 15.9068 12.9551 17.5563 11.9103 18.6176C11.6103 18.9175 11.3657 19.1943 11.1879 19.4135C11.0879 19.5288 10.9212 19.5288 10.8212 19.4135C10.6433 19.1943 10.3988 18.9175 10.0987 18.6176C9.054 17.5678 6.79782 15.9183 5.33075 14.8686C4.07485 13.9804 3.15238 13.0691 2.36327 11.6733" stroke="#023246" stroke-width="1.4" stroke-miterlimit="10" stroke-linecap="round" stroke-linejoin="round"/>
<path d="M1.52979 10.0006H4.47504L5.35305 8.52412L6.54227 11.8578L7.94266 4.46368L9.55421 14.038L11.5659 8.17806L12.7662 11.8809L13.8332 10.0006H16.5784" stroke="#023246" stroke-miterlimit="10" stroke-linecap="round" stroke-linejoin="round"/>
<path d="M16.9558 10.0007C16.9558 10.2457 16.7691 10.412 16.578 10.412C16.3868 10.412 16.2002 10.2457 16.2002 10.0007C16.2002 9.75574 16.3868 9.58942 16.578 9.58942C16.7691 9.58942 16.9558 9.75574 16.9558 10.0007Z" fill="#1B6B93" stroke="#023246"/>
</svg>
