<svg width="24" height="25" viewBox="0 0 24 25" fill="none" xmlns="http://www.w3.org/2000/svg">
<path d="M12 8C11.11 8 10.24 8.26392 9.49993 8.75839C8.75991 9.25285 8.18314 9.95566 7.84254 10.7779C7.50195 11.6002 7.41283 12.505 7.58647 13.3779C7.7601 14.2508 8.18868 15.0526 8.81802 15.682C9.44736 16.3113 10.2492 16.7399 11.1221 16.9135C11.995 17.0872 12.8998 16.9981 13.7221 16.6575C14.5443 16.3169 15.2471 15.7401 15.7416 15.0001C16.2361 14.26 16.5 13.39 16.5 12.5C16.4988 11.3069 16.0243 10.163 15.1806 9.31939C14.337 8.47575 13.1931 8.00124 12 8ZM12 15.5C11.4067 15.5 10.8266 15.3241 10.3333 14.9944C9.83994 14.6648 9.45542 14.1962 9.22836 13.6481C9.0013 13.0999 8.94189 12.4967 9.05764 11.9147C9.1734 11.3328 9.45912 10.7982 9.87868 10.3787C10.2982 9.95912 10.8328 9.6734 11.4147 9.55764C11.9967 9.44189 12.5999 9.5013 13.1481 9.72836C13.6962 9.95542 14.1648 10.3399 14.4944 10.8333C14.8241 11.3266 15 11.9067 15 12.5C15 13.2956 14.6839 14.0587 14.1213 14.6213C13.5587 15.1839 12.7956 15.5 12 15.5ZM16.5 2.75H7.5C6.10807 2.75149 4.77358 3.30509 3.78933 4.28933C2.80509 5.27358 2.25149 6.60807 2.25 8V17C2.25149 18.3919 2.80509 19.7264 3.78933 20.7107C4.77358 21.6949 6.10807 22.2485 7.5 22.25H16.5C17.8919 22.2485 19.2264 21.6949 20.2107 20.7107C21.1949 19.7264 21.7485 18.3919 21.75 17V8C21.7485 6.60807 21.1949 5.27358 20.2107 4.28933C19.2264 3.30509 17.8919 2.75149 16.5 2.75ZM20.25 17C20.25 17.9946 19.8549 18.9484 19.1516 19.6516C18.4484 20.3549 17.4946 20.75 16.5 20.75H7.5C6.50544 20.75 5.55161 20.3549 4.84835 19.6516C4.14509 18.9484 3.75 17.9946 3.75 17V8C3.75 7.00544 4.14509 6.05161 4.84835 5.34835C5.55161 4.64509 6.50544 4.25 7.5 4.25H16.5C17.4946 4.25 18.4484 4.64509 19.1516 5.34835C19.8549 6.05161 20.25 7.00544 20.25 8V17ZM18 7.625C18 7.8475 17.934 8.06501 17.8104 8.25002C17.6868 8.43502 17.5111 8.57922 17.3055 8.66436C17.1 8.74951 16.8738 8.77179 16.6555 8.72838C16.4373 8.68498 16.2368 8.57783 16.0795 8.4205C15.9222 8.26316 15.815 8.06271 15.7716 7.84448C15.7282 7.62625 15.7505 7.40005 15.8356 7.19448C15.9208 6.98891 16.065 6.81321 16.25 6.6896C16.435 6.56598 16.6525 6.5 16.875 6.5C17.1734 6.5 17.4595 6.61853 17.6705 6.8295C17.8815 7.04048 18 7.32663 18 7.625Z" fill="#023246"/>
</svg>
